%TF.GenerationSoftware,KiCad,Pcbnew,(6.0.0)*%
%TF.CreationDate,2022-04-24T16:41:59-07:00*%
%TF.ProjectId,Attic_Fan_Controller,41747469-635f-4466-916e-5f436f6e7472,rev?*%
%TF.SameCoordinates,Original*%
%TF.FileFunction,Legend,Top*%
%TF.FilePolarity,Positive*%
%FSLAX46Y46*%
G04 Gerber Fmt 4.6, Leading zero omitted, Abs format (unit mm)*
G04 Created by KiCad (PCBNEW (6.0.0)) date 2022-04-24 16:41:59*
%MOMM*%
%LPD*%
G01*
G04 APERTURE LIST*
%ADD10C,0.101600*%
%ADD11C,0.200000*%
%ADD12C,0.150000*%
%ADD13C,0.040000*%
%ADD14C,0.050000*%
%ADD15C,0.100000*%
%ADD16C,0.076200*%
%ADD17C,0.130000*%
%ADD18C,0.120000*%
%ADD19C,0.152400*%
%ADD20C,0.254000*%
%ADD21O,1.727200X1.727200*%
%ADD22R,1.727200X1.727200*%
G04 APERTURE END LIST*
D10*
X90478428Y-77039409D02*
X90478428Y-76531409D01*
X90599380Y-76531409D01*
X90671952Y-76555600D01*
X90720333Y-76603980D01*
X90744523Y-76652361D01*
X90768714Y-76749123D01*
X90768714Y-76821695D01*
X90744523Y-76918457D01*
X90720333Y-76966838D01*
X90671952Y-77015219D01*
X90599380Y-77039409D01*
X90478428Y-77039409D01*
X90962238Y-77015219D02*
X91034809Y-77039409D01*
X91155761Y-77039409D01*
X91204142Y-77015219D01*
X91228333Y-76991028D01*
X91252523Y-76942647D01*
X91252523Y-76894266D01*
X91228333Y-76845885D01*
X91204142Y-76821695D01*
X91155761Y-76797504D01*
X91059000Y-76773314D01*
X91010619Y-76749123D01*
X90986428Y-76724933D01*
X90962238Y-76676552D01*
X90962238Y-76628171D01*
X90986428Y-76579790D01*
X91010619Y-76555600D01*
X91059000Y-76531409D01*
X91179952Y-76531409D01*
X91252523Y-76555600D01*
X91736333Y-77039409D02*
X91446047Y-77039409D01*
X91591190Y-77039409D02*
X91591190Y-76531409D01*
X91542809Y-76603980D01*
X91494428Y-76652361D01*
X91446047Y-76676552D01*
X92026619Y-76749123D02*
X91978238Y-76724933D01*
X91954047Y-76700742D01*
X91929857Y-76652361D01*
X91929857Y-76628171D01*
X91954047Y-76579790D01*
X91978238Y-76555600D01*
X92026619Y-76531409D01*
X92123380Y-76531409D01*
X92171761Y-76555600D01*
X92195952Y-76579790D01*
X92220142Y-76628171D01*
X92220142Y-76652361D01*
X92195952Y-76700742D01*
X92171761Y-76724933D01*
X92123380Y-76749123D01*
X92026619Y-76749123D01*
X91978238Y-76773314D01*
X91954047Y-76797504D01*
X91929857Y-76845885D01*
X91929857Y-76942647D01*
X91954047Y-76991028D01*
X91978238Y-77015219D01*
X92026619Y-77039409D01*
X92123380Y-77039409D01*
X92171761Y-77015219D01*
X92195952Y-76991028D01*
X92220142Y-76942647D01*
X92220142Y-76845885D01*
X92195952Y-76797504D01*
X92171761Y-76773314D01*
X92123380Y-76749123D01*
X92607190Y-76773314D02*
X92679761Y-76797504D01*
X92703952Y-76821695D01*
X92728142Y-76870076D01*
X92728142Y-76942647D01*
X92703952Y-76991028D01*
X92679761Y-77015219D01*
X92631380Y-77039409D01*
X92437857Y-77039409D01*
X92437857Y-76531409D01*
X92607190Y-76531409D01*
X92655571Y-76555600D01*
X92679761Y-76579790D01*
X92703952Y-76628171D01*
X92703952Y-76676552D01*
X92679761Y-76724933D01*
X92655571Y-76749123D01*
X92607190Y-76773314D01*
X92437857Y-76773314D01*
X92921666Y-76579790D02*
X92945857Y-76555600D01*
X92994238Y-76531409D01*
X93115190Y-76531409D01*
X93163571Y-76555600D01*
X93187761Y-76579790D01*
X93211952Y-76628171D01*
X93211952Y-76676552D01*
X93187761Y-76749123D01*
X92897476Y-77039409D01*
X93211952Y-77039409D01*
X93526428Y-76531409D02*
X93574809Y-76531409D01*
X93623190Y-76555600D01*
X93647380Y-76579790D01*
X93671571Y-76628171D01*
X93695761Y-76724933D01*
X93695761Y-76845885D01*
X93671571Y-76942647D01*
X93647380Y-76991028D01*
X93623190Y-77015219D01*
X93574809Y-77039409D01*
X93526428Y-77039409D01*
X93478047Y-77015219D01*
X93453857Y-76991028D01*
X93429666Y-76942647D01*
X93405476Y-76845885D01*
X93405476Y-76724933D01*
X93429666Y-76628171D01*
X93453857Y-76579790D01*
X93478047Y-76555600D01*
X93526428Y-76531409D01*
D11*
X62373095Y-67762380D02*
X62039761Y-67286190D01*
X61801666Y-67762380D02*
X61801666Y-66762380D01*
X62182619Y-66762380D01*
X62277857Y-66810000D01*
X62325476Y-66857619D01*
X62373095Y-66952857D01*
X62373095Y-67095714D01*
X62325476Y-67190952D01*
X62277857Y-67238571D01*
X62182619Y-67286190D01*
X61801666Y-67286190D01*
X63182619Y-67714761D02*
X63087380Y-67762380D01*
X62896904Y-67762380D01*
X62801666Y-67714761D01*
X62754047Y-67619523D01*
X62754047Y-67238571D01*
X62801666Y-67143333D01*
X62896904Y-67095714D01*
X63087380Y-67095714D01*
X63182619Y-67143333D01*
X63230238Y-67238571D01*
X63230238Y-67333809D01*
X62754047Y-67429047D01*
X63658809Y-67762380D02*
X63658809Y-66762380D01*
X63658809Y-67143333D02*
X63754047Y-67095714D01*
X63944523Y-67095714D01*
X64039761Y-67143333D01*
X64087380Y-67190952D01*
X64135000Y-67286190D01*
X64135000Y-67571904D01*
X64087380Y-67667142D01*
X64039761Y-67714761D01*
X63944523Y-67762380D01*
X63754047Y-67762380D01*
X63658809Y-67714761D01*
X64706428Y-67762380D02*
X64611190Y-67714761D01*
X64563571Y-67667142D01*
X64515952Y-67571904D01*
X64515952Y-67286190D01*
X64563571Y-67190952D01*
X64611190Y-67143333D01*
X64706428Y-67095714D01*
X64849285Y-67095714D01*
X64944523Y-67143333D01*
X64992142Y-67190952D01*
X65039761Y-67286190D01*
X65039761Y-67571904D01*
X64992142Y-67667142D01*
X64944523Y-67714761D01*
X64849285Y-67762380D01*
X64706428Y-67762380D01*
X65611190Y-67762380D02*
X65515952Y-67714761D01*
X65468333Y-67667142D01*
X65420714Y-67571904D01*
X65420714Y-67286190D01*
X65468333Y-67190952D01*
X65515952Y-67143333D01*
X65611190Y-67095714D01*
X65754047Y-67095714D01*
X65849285Y-67143333D01*
X65896904Y-67190952D01*
X65944523Y-67286190D01*
X65944523Y-67571904D01*
X65896904Y-67667142D01*
X65849285Y-67714761D01*
X65754047Y-67762380D01*
X65611190Y-67762380D01*
X66230238Y-67095714D02*
X66611190Y-67095714D01*
X66373095Y-66762380D02*
X66373095Y-67619523D01*
X66420714Y-67714761D01*
X66515952Y-67762380D01*
X66611190Y-67762380D01*
D12*
X98023800Y-76318238D02*
X97992847Y-76380142D01*
X97992847Y-76473000D01*
X98023800Y-76565857D01*
X98085704Y-76627761D01*
X98147609Y-76658714D01*
X98271419Y-76689666D01*
X98364276Y-76689666D01*
X98488085Y-76658714D01*
X98549990Y-76627761D01*
X98611895Y-76565857D01*
X98642847Y-76473000D01*
X98642847Y-76411095D01*
X98611895Y-76318238D01*
X98580942Y-76287285D01*
X98364276Y-76287285D01*
X98364276Y-76411095D01*
X98642847Y-76008714D02*
X97992847Y-76008714D01*
X98642847Y-75637285D01*
X97992847Y-75637285D01*
X98642847Y-75327761D02*
X97992847Y-75327761D01*
X97992847Y-75173000D01*
X98023800Y-75080142D01*
X98085704Y-75018238D01*
X98147609Y-74987285D01*
X98271419Y-74956333D01*
X98364276Y-74956333D01*
X98488085Y-74987285D01*
X98549990Y-75018238D01*
X98611895Y-75080142D01*
X98642847Y-75173000D01*
X98642847Y-75327761D01*
X98642847Y-73408714D02*
X97992847Y-73408714D01*
X98611895Y-73408714D02*
X98642847Y-73470619D01*
X98642847Y-73594428D01*
X98611895Y-73656333D01*
X98580942Y-73687285D01*
X98519038Y-73718238D01*
X98333323Y-73718238D01*
X98271419Y-73687285D01*
X98240466Y-73656333D01*
X98209514Y-73594428D01*
X98209514Y-73470619D01*
X98240466Y-73408714D01*
X98642847Y-72820619D02*
X98302371Y-72820619D01*
X98240466Y-72851571D01*
X98209514Y-72913476D01*
X98209514Y-73037285D01*
X98240466Y-73099190D01*
X98611895Y-72820619D02*
X98642847Y-72882523D01*
X98642847Y-73037285D01*
X98611895Y-73099190D01*
X98549990Y-73130142D01*
X98488085Y-73130142D01*
X98426180Y-73099190D01*
X98395228Y-73037285D01*
X98395228Y-72882523D01*
X98364276Y-72820619D01*
X98209514Y-72603952D02*
X98209514Y-72356333D01*
X97992847Y-72511095D02*
X98549990Y-72511095D01*
X98611895Y-72480142D01*
X98642847Y-72418238D01*
X98642847Y-72356333D01*
X98642847Y-71861095D02*
X98302371Y-71861095D01*
X98240466Y-71892047D01*
X98209514Y-71953952D01*
X98209514Y-72077761D01*
X98240466Y-72139666D01*
X98611895Y-71861095D02*
X98642847Y-71923000D01*
X98642847Y-72077761D01*
X98611895Y-72139666D01*
X98549990Y-72170619D01*
X98488085Y-72170619D01*
X98426180Y-72139666D01*
X98395228Y-72077761D01*
X98395228Y-71923000D01*
X98364276Y-71861095D01*
X97992847Y-70623000D02*
X97992847Y-70220619D01*
X98240466Y-70437285D01*
X98240466Y-70344428D01*
X98271419Y-70282523D01*
X98302371Y-70251571D01*
X98364276Y-70220619D01*
X98519038Y-70220619D01*
X98580942Y-70251571D01*
X98611895Y-70282523D01*
X98642847Y-70344428D01*
X98642847Y-70530142D01*
X98611895Y-70592047D01*
X98580942Y-70623000D01*
X98209514Y-70003952D02*
X98642847Y-69849190D01*
X98209514Y-69694428D01*
X97992847Y-69508714D02*
X97992847Y-69106333D01*
X98240466Y-69323000D01*
X98240466Y-69230142D01*
X98271419Y-69168238D01*
X98302371Y-69137285D01*
X98364276Y-69106333D01*
X98519038Y-69106333D01*
X98580942Y-69137285D01*
X98611895Y-69168238D01*
X98642847Y-69230142D01*
X98642847Y-69415857D01*
X98611895Y-69477761D01*
X98580942Y-69508714D01*
D13*
X71681352Y-75148285D02*
X71848019Y-75148285D01*
X71919447Y-75410190D02*
X71681352Y-75410190D01*
X71681352Y-74910190D01*
X71919447Y-74910190D01*
X73062304Y-75148285D02*
X73133733Y-75172095D01*
X73157542Y-75195904D01*
X73181352Y-75243523D01*
X73181352Y-75314952D01*
X73157542Y-75362571D01*
X73133733Y-75386380D01*
X73086114Y-75410190D01*
X72895638Y-75410190D01*
X72895638Y-74910190D01*
X73062304Y-74910190D01*
X73109923Y-74934000D01*
X73133733Y-74957809D01*
X73157542Y-75005428D01*
X73157542Y-75053047D01*
X73133733Y-75100666D01*
X73109923Y-75124476D01*
X73062304Y-75148285D01*
X72895638Y-75148285D01*
X74443257Y-75362571D02*
X74419447Y-75386380D01*
X74348019Y-75410190D01*
X74300400Y-75410190D01*
X74228971Y-75386380D01*
X74181352Y-75338761D01*
X74157542Y-75291142D01*
X74133733Y-75195904D01*
X74133733Y-75124476D01*
X74157542Y-75029238D01*
X74181352Y-74981619D01*
X74228971Y-74934000D01*
X74300400Y-74910190D01*
X74348019Y-74910190D01*
X74419447Y-74934000D01*
X74443257Y-74957809D01*
D14*
X75743666Y-83974809D02*
X75767476Y-83951000D01*
X75815095Y-83927190D01*
X75934142Y-83927190D01*
X75981761Y-83951000D01*
X76005571Y-83974809D01*
X76029380Y-84022428D01*
X76029380Y-84070047D01*
X76005571Y-84141476D01*
X75719857Y-84427190D01*
X76029380Y-84427190D01*
X76338904Y-83927190D02*
X76386523Y-83927190D01*
X76434142Y-83951000D01*
X76457952Y-83974809D01*
X76481761Y-84022428D01*
X76505571Y-84117666D01*
X76505571Y-84236714D01*
X76481761Y-84331952D01*
X76457952Y-84379571D01*
X76434142Y-84403380D01*
X76386523Y-84427190D01*
X76338904Y-84427190D01*
X76291285Y-84403380D01*
X76267476Y-84379571D01*
X76243666Y-84331952D01*
X76219857Y-84236714D01*
X76219857Y-84117666D01*
X76243666Y-84022428D01*
X76267476Y-83974809D01*
X76291285Y-83951000D01*
X76338904Y-83927190D01*
X76719857Y-84427190D02*
X76719857Y-83927190D01*
X76767476Y-84236714D02*
X76910333Y-84427190D01*
X76910333Y-84093857D02*
X76719857Y-84284333D01*
X75981761Y-80918857D02*
X75981761Y-81252190D01*
X75862714Y-80728380D02*
X75743666Y-81085523D01*
X76053190Y-81085523D01*
X76196047Y-80752190D02*
X76529380Y-80752190D01*
X76315095Y-81252190D01*
X76719857Y-81252190D02*
X76719857Y-80752190D01*
X76767476Y-81061714D02*
X76910333Y-81252190D01*
X76910333Y-80918857D02*
X76719857Y-81109333D01*
D15*
X72664800Y-79528200D02*
X72764800Y-79561533D01*
X72798133Y-79594866D01*
X72831466Y-79661533D01*
X72831466Y-79761533D01*
X72798133Y-79828200D01*
X72764800Y-79861533D01*
X72698133Y-79894866D01*
X72431466Y-79894866D01*
X72431466Y-79194866D01*
X72664800Y-79194866D01*
X72731466Y-79228200D01*
X72764800Y-79261533D01*
X72798133Y-79328200D01*
X72798133Y-79394866D01*
X72764800Y-79461533D01*
X72731466Y-79494866D01*
X72664800Y-79528200D01*
X72431466Y-79528200D01*
X73531466Y-79828200D02*
X73498133Y-79861533D01*
X73398133Y-79894866D01*
X73331466Y-79894866D01*
X73231466Y-79861533D01*
X73164800Y-79794866D01*
X73131466Y-79728200D01*
X73098133Y-79594866D01*
X73098133Y-79494866D01*
X73131466Y-79361533D01*
X73164800Y-79294866D01*
X73231466Y-79228200D01*
X73331466Y-79194866D01*
X73398133Y-79194866D01*
X73498133Y-79228200D01*
X73531466Y-79261533D01*
X74164800Y-79194866D02*
X73831466Y-79194866D01*
X73798133Y-79528200D01*
X73831466Y-79494866D01*
X73898133Y-79461533D01*
X74064800Y-79461533D01*
X74131466Y-79494866D01*
X74164800Y-79528200D01*
X74198133Y-79594866D01*
X74198133Y-79761533D01*
X74164800Y-79828200D01*
X74131466Y-79861533D01*
X74064800Y-79894866D01*
X73898133Y-79894866D01*
X73831466Y-79861533D01*
X73798133Y-79828200D01*
X74798133Y-79428200D02*
X74798133Y-79894866D01*
X74631466Y-79161533D02*
X74464800Y-79661533D01*
X74898133Y-79661533D01*
X75098133Y-79194866D02*
X75564800Y-79194866D01*
X75264800Y-79894866D01*
D12*
%TO.C,PS1*%
X18271880Y-75126285D02*
X17271880Y-75126285D01*
X17271880Y-74745333D01*
X17319500Y-74650095D01*
X17367119Y-74602476D01*
X17462357Y-74554857D01*
X17605214Y-74554857D01*
X17700452Y-74602476D01*
X17748071Y-74650095D01*
X17795690Y-74745333D01*
X17795690Y-75126285D01*
X18224261Y-74173904D02*
X18271880Y-74031047D01*
X18271880Y-73792952D01*
X18224261Y-73697714D01*
X18176642Y-73650095D01*
X18081404Y-73602476D01*
X17986166Y-73602476D01*
X17890928Y-73650095D01*
X17843309Y-73697714D01*
X17795690Y-73792952D01*
X17748071Y-73983428D01*
X17700452Y-74078666D01*
X17652833Y-74126285D01*
X17557595Y-74173904D01*
X17462357Y-74173904D01*
X17367119Y-74126285D01*
X17319500Y-74078666D01*
X17271880Y-73983428D01*
X17271880Y-73745333D01*
X17319500Y-73602476D01*
X18271880Y-72650095D02*
X18271880Y-73221523D01*
X18271880Y-72935809D02*
X17271880Y-72935809D01*
X17414738Y-73031047D01*
X17509976Y-73126285D01*
X17557595Y-73221523D01*
%TO.C,U2*%
X62559095Y-71181980D02*
X62559095Y-71991504D01*
X62606714Y-72086742D01*
X62654333Y-72134361D01*
X62749571Y-72181980D01*
X62940047Y-72181980D01*
X63035285Y-72134361D01*
X63082904Y-72086742D01*
X63130523Y-71991504D01*
X63130523Y-71181980D01*
X63559095Y-71277219D02*
X63606714Y-71229600D01*
X63701952Y-71181980D01*
X63940047Y-71181980D01*
X64035285Y-71229600D01*
X64082904Y-71277219D01*
X64130523Y-71372457D01*
X64130523Y-71467695D01*
X64082904Y-71610552D01*
X63511476Y-72181980D01*
X64130523Y-72181980D01*
D16*
X62405809Y-84433873D02*
X62067142Y-84433873D01*
X62163904Y-84433873D02*
X62115523Y-84409682D01*
X62091333Y-84385492D01*
X62067142Y-84337111D01*
X62067142Y-84288730D01*
X62067142Y-84191968D02*
X62067142Y-83998444D01*
X61897809Y-84119397D02*
X62333238Y-84119397D01*
X62381619Y-84095206D01*
X62405809Y-84046825D01*
X62405809Y-83998444D01*
X62405809Y-83877492D02*
X62067142Y-83611397D01*
X62067142Y-83877492D02*
X62405809Y-83611397D01*
X62405809Y-81869682D02*
X62067142Y-81869682D01*
X61897809Y-81869682D02*
X61922000Y-81893873D01*
X61946190Y-81869682D01*
X61922000Y-81845492D01*
X61897809Y-81869682D01*
X61946190Y-81869682D01*
X62405809Y-81555206D02*
X62381619Y-81603587D01*
X62357428Y-81627778D01*
X62309047Y-81651968D01*
X62163904Y-81651968D01*
X62115523Y-81627778D01*
X62091333Y-81603587D01*
X62067142Y-81555206D01*
X62067142Y-81482635D01*
X62091333Y-81434254D01*
X62115523Y-81410063D01*
X62163904Y-81385873D01*
X62309047Y-81385873D01*
X62357428Y-81410063D01*
X62381619Y-81434254D01*
X62405809Y-81482635D01*
X62405809Y-81555206D01*
X61897809Y-81071397D02*
X61897809Y-81023016D01*
X61922000Y-80974635D01*
X61946190Y-80950444D01*
X61994571Y-80926254D01*
X62091333Y-80902063D01*
X62212285Y-80902063D01*
X62309047Y-80926254D01*
X62357428Y-80950444D01*
X62381619Y-80974635D01*
X62405809Y-81023016D01*
X62405809Y-81071397D01*
X62381619Y-81119778D01*
X62357428Y-81143968D01*
X62309047Y-81168159D01*
X62212285Y-81192349D01*
X62091333Y-81192349D01*
X61994571Y-81168159D01*
X61946190Y-81143968D01*
X61922000Y-81119778D01*
X61897809Y-81071397D01*
X62405809Y-79523206D02*
X62067142Y-79523206D01*
X61897809Y-79523206D02*
X61922000Y-79547397D01*
X61946190Y-79523206D01*
X61922000Y-79499016D01*
X61897809Y-79523206D01*
X61946190Y-79523206D01*
X62405809Y-79208730D02*
X62381619Y-79257111D01*
X62357428Y-79281302D01*
X62309047Y-79305492D01*
X62163904Y-79305492D01*
X62115523Y-79281302D01*
X62091333Y-79257111D01*
X62067142Y-79208730D01*
X62067142Y-79136159D01*
X62091333Y-79087778D01*
X62115523Y-79063587D01*
X62163904Y-79039397D01*
X62309047Y-79039397D01*
X62357428Y-79063587D01*
X62381619Y-79087778D01*
X62405809Y-79136159D01*
X62405809Y-79208730D01*
X61946190Y-78845873D02*
X61922000Y-78821682D01*
X61897809Y-78773302D01*
X61897809Y-78652349D01*
X61922000Y-78603968D01*
X61946190Y-78579778D01*
X61994571Y-78555587D01*
X62042952Y-78555587D01*
X62115523Y-78579778D01*
X62405809Y-78870063D01*
X62405809Y-78555587D01*
X62067142Y-76571968D02*
X62478380Y-76571968D01*
X62526761Y-76596159D01*
X62550952Y-76620349D01*
X62575142Y-76668730D01*
X62575142Y-76741302D01*
X62550952Y-76789682D01*
X62381619Y-76571968D02*
X62405809Y-76620349D01*
X62405809Y-76717111D01*
X62381619Y-76765492D01*
X62357428Y-76789682D01*
X62309047Y-76813873D01*
X62163904Y-76813873D01*
X62115523Y-76789682D01*
X62091333Y-76765492D01*
X62067142Y-76717111D01*
X62067142Y-76620349D01*
X62091333Y-76571968D01*
X62067142Y-76330063D02*
X62405809Y-76330063D01*
X62115523Y-76330063D02*
X62091333Y-76305873D01*
X62067142Y-76257492D01*
X62067142Y-76184921D01*
X62091333Y-76136540D01*
X62139714Y-76112349D01*
X62405809Y-76112349D01*
X62405809Y-75652730D02*
X61897809Y-75652730D01*
X62381619Y-75652730D02*
X62405809Y-75701111D01*
X62405809Y-75797873D01*
X62381619Y-75846254D01*
X62357428Y-75870444D01*
X62309047Y-75894635D01*
X62163904Y-75894635D01*
X62115523Y-75870444D01*
X62091333Y-75846254D01*
X62067142Y-75797873D01*
X62067142Y-75701111D01*
X62091333Y-75652730D01*
X61189809Y-84690857D02*
X61189809Y-84376380D01*
X61383333Y-84545714D01*
X61383333Y-84473142D01*
X61407523Y-84424761D01*
X61431714Y-84400571D01*
X61480095Y-84376380D01*
X61601047Y-84376380D01*
X61649428Y-84400571D01*
X61673619Y-84424761D01*
X61697809Y-84473142D01*
X61697809Y-84618285D01*
X61673619Y-84666666D01*
X61649428Y-84690857D01*
X61359142Y-84207047D02*
X61697809Y-84086095D01*
X61359142Y-83965142D01*
X61189809Y-83820000D02*
X61189809Y-83505523D01*
X61383333Y-83674857D01*
X61383333Y-83602285D01*
X61407523Y-83553904D01*
X61431714Y-83529714D01*
X61480095Y-83505523D01*
X61601047Y-83505523D01*
X61649428Y-83529714D01*
X61673619Y-83553904D01*
X61697809Y-83602285D01*
X61697809Y-83747428D01*
X61673619Y-83795809D01*
X61649428Y-83820000D01*
X61697809Y-81739619D02*
X61359142Y-81739619D01*
X61455904Y-81739619D02*
X61407523Y-81715428D01*
X61383333Y-81691238D01*
X61359142Y-81642857D01*
X61359142Y-81594476D01*
X61673619Y-81449333D02*
X61697809Y-81400952D01*
X61697809Y-81304190D01*
X61673619Y-81255809D01*
X61625238Y-81231619D01*
X61601047Y-81231619D01*
X61552666Y-81255809D01*
X61528476Y-81304190D01*
X61528476Y-81376761D01*
X61504285Y-81425142D01*
X61455904Y-81449333D01*
X61431714Y-81449333D01*
X61383333Y-81425142D01*
X61359142Y-81376761D01*
X61359142Y-81304190D01*
X61383333Y-81255809D01*
X61359142Y-81086476D02*
X61359142Y-80892952D01*
X61189809Y-81013904D02*
X61625238Y-81013904D01*
X61673619Y-80989714D01*
X61697809Y-80941333D01*
X61697809Y-80892952D01*
X61673619Y-78981904D02*
X61697809Y-79030285D01*
X61697809Y-79127047D01*
X61673619Y-79175428D01*
X61625238Y-79199619D01*
X61431714Y-79199619D01*
X61383333Y-79175428D01*
X61359142Y-79127047D01*
X61359142Y-79030285D01*
X61383333Y-78981904D01*
X61431714Y-78957714D01*
X61480095Y-78957714D01*
X61528476Y-79199619D01*
X61359142Y-78740000D02*
X61697809Y-78740000D01*
X61407523Y-78740000D02*
X61383333Y-78715809D01*
X61359142Y-78667428D01*
X61359142Y-78594857D01*
X61383333Y-78546476D01*
X61431714Y-78522285D01*
X61697809Y-78522285D01*
X61359142Y-76417714D02*
X61359142Y-76224190D01*
X61189809Y-76345142D02*
X61625238Y-76345142D01*
X61673619Y-76320952D01*
X61697809Y-76272571D01*
X61697809Y-76224190D01*
X61697809Y-76103238D02*
X61359142Y-75837142D01*
X61359142Y-76103238D02*
X61697809Y-75837142D01*
D12*
X67453142Y-71746873D02*
X67786476Y-71746873D01*
X67929333Y-72270682D02*
X67453142Y-72270682D01*
X67453142Y-71270682D01*
X67929333Y-71270682D01*
X68310285Y-72223063D02*
X68453142Y-72270682D01*
X68691238Y-72270682D01*
X68786476Y-72223063D01*
X68834095Y-72175444D01*
X68881714Y-72080206D01*
X68881714Y-71984968D01*
X68834095Y-71889730D01*
X68786476Y-71842111D01*
X68691238Y-71794492D01*
X68500761Y-71746873D01*
X68405523Y-71699254D01*
X68357904Y-71651635D01*
X68310285Y-71556397D01*
X68310285Y-71461159D01*
X68357904Y-71365921D01*
X68405523Y-71318302D01*
X68500761Y-71270682D01*
X68738857Y-71270682D01*
X68881714Y-71318302D01*
X69310285Y-72270682D02*
X69310285Y-71270682D01*
X69691238Y-71270682D01*
X69786476Y-71318302D01*
X69834095Y-71365921D01*
X69881714Y-71461159D01*
X69881714Y-71604016D01*
X69834095Y-71699254D01*
X69786476Y-71746873D01*
X69691238Y-71794492D01*
X69310285Y-71794492D01*
X70500761Y-71270682D02*
X70596000Y-71270682D01*
X70691238Y-71318302D01*
X70738857Y-71365921D01*
X70786476Y-71461159D01*
X70834095Y-71651635D01*
X70834095Y-71889730D01*
X70786476Y-72080206D01*
X70738857Y-72175444D01*
X70691238Y-72223063D01*
X70596000Y-72270682D01*
X70500761Y-72270682D01*
X70405523Y-72223063D01*
X70357904Y-72175444D01*
X70310285Y-72080206D01*
X70262666Y-71889730D01*
X70262666Y-71651635D01*
X70310285Y-71461159D01*
X70357904Y-71365921D01*
X70405523Y-71318302D01*
X70500761Y-71270682D01*
X71786476Y-72270682D02*
X71215047Y-72270682D01*
X71500761Y-72270682D02*
X71500761Y-71270682D01*
X71405523Y-71413540D01*
X71310285Y-71508778D01*
X71215047Y-71556397D01*
%TO.C,R1*%
X72858333Y-85652380D02*
X72525000Y-85176190D01*
X72286904Y-85652380D02*
X72286904Y-84652380D01*
X72667857Y-84652380D01*
X72763095Y-84700000D01*
X72810714Y-84747619D01*
X72858333Y-84842857D01*
X72858333Y-84985714D01*
X72810714Y-85080952D01*
X72763095Y-85128571D01*
X72667857Y-85176190D01*
X72286904Y-85176190D01*
X73810714Y-85652380D02*
X73239285Y-85652380D01*
X73525000Y-85652380D02*
X73525000Y-84652380D01*
X73429761Y-84795238D01*
X73334523Y-84890476D01*
X73239285Y-84938095D01*
%TO.C,U1*%
X90271695Y-69327780D02*
X90271695Y-70137304D01*
X90319314Y-70232542D01*
X90366933Y-70280161D01*
X90462171Y-70327780D01*
X90652647Y-70327780D01*
X90747885Y-70280161D01*
X90795504Y-70232542D01*
X90843123Y-70137304D01*
X90843123Y-69327780D01*
X91843123Y-70327780D02*
X91271695Y-70327780D01*
X91557409Y-70327780D02*
X91557409Y-69327780D01*
X91462171Y-69470638D01*
X91366933Y-69565876D01*
X91271695Y-69613495D01*
D15*
%TO.C,2.5mm*%
X102486000Y-80754571D02*
X102514571Y-80726000D01*
X102571714Y-80697428D01*
X102714571Y-80697428D01*
X102771714Y-80726000D01*
X102800285Y-80754571D01*
X102828857Y-80811714D01*
X102828857Y-80868857D01*
X102800285Y-80954571D01*
X102457428Y-81297428D01*
X102828857Y-81297428D01*
X103086000Y-81240285D02*
X103114571Y-81268857D01*
X103086000Y-81297428D01*
X103057428Y-81268857D01*
X103086000Y-81240285D01*
X103086000Y-81297428D01*
X103657428Y-80697428D02*
X103371714Y-80697428D01*
X103343142Y-80983142D01*
X103371714Y-80954571D01*
X103428857Y-80926000D01*
X103571714Y-80926000D01*
X103628857Y-80954571D01*
X103657428Y-80983142D01*
X103686000Y-81040285D01*
X103686000Y-81183142D01*
X103657428Y-81240285D01*
X103628857Y-81268857D01*
X103571714Y-81297428D01*
X103428857Y-81297428D01*
X103371714Y-81268857D01*
X103343142Y-81240285D01*
X103943142Y-81297428D02*
X103943142Y-80897428D01*
X103943142Y-80954571D02*
X103971714Y-80926000D01*
X104028857Y-80897428D01*
X104114571Y-80897428D01*
X104171714Y-80926000D01*
X104200285Y-80983142D01*
X104200285Y-81297428D01*
X104200285Y-80983142D02*
X104228857Y-80926000D01*
X104286000Y-80897428D01*
X104371714Y-80897428D01*
X104428857Y-80926000D01*
X104457428Y-80983142D01*
X104457428Y-81297428D01*
X104743142Y-81297428D02*
X104743142Y-80897428D01*
X104743142Y-80954571D02*
X104771714Y-80926000D01*
X104828857Y-80897428D01*
X104914571Y-80897428D01*
X104971714Y-80926000D01*
X105000285Y-80983142D01*
X105000285Y-81297428D01*
X105000285Y-80983142D02*
X105028857Y-80926000D01*
X105086000Y-80897428D01*
X105171714Y-80897428D01*
X105228857Y-80926000D01*
X105257428Y-80983142D01*
X105257428Y-81297428D01*
D12*
%TO.C,RLY1*%
X22870900Y-65069980D02*
X22537566Y-64593790D01*
X22299471Y-65069980D02*
X22299471Y-64069980D01*
X22680423Y-64069980D01*
X22775661Y-64117600D01*
X22823280Y-64165219D01*
X22870900Y-64260457D01*
X22870900Y-64403314D01*
X22823280Y-64498552D01*
X22775661Y-64546171D01*
X22680423Y-64593790D01*
X22299471Y-64593790D01*
X23775661Y-65069980D02*
X23299471Y-65069980D01*
X23299471Y-64069980D01*
X24299471Y-64593790D02*
X24299471Y-65069980D01*
X23966138Y-64069980D02*
X24299471Y-64593790D01*
X24632804Y-64069980D01*
X25489947Y-65069980D02*
X24918519Y-65069980D01*
X25204233Y-65069980D02*
X25204233Y-64069980D01*
X25108995Y-64212838D01*
X25013757Y-64308076D01*
X24918519Y-64355695D01*
X100151547Y-24312428D02*
X100913452Y-24312428D01*
X100532500Y-24693380D02*
X100532500Y-23931476D01*
X18205119Y-34869571D02*
X18205119Y-34298142D01*
X18205119Y-34583857D02*
X19205119Y-34583857D01*
X19062261Y-34488619D01*
X18967023Y-34393380D01*
X18919404Y-34298142D01*
X19205119Y-35488619D02*
X19205119Y-35583857D01*
X19157500Y-35679095D01*
X19109880Y-35726714D01*
X19014642Y-35774333D01*
X18824166Y-35821952D01*
X18586071Y-35821952D01*
X18395595Y-35774333D01*
X18300357Y-35726714D01*
X18252738Y-35679095D01*
X18205119Y-35583857D01*
X18205119Y-35488619D01*
X18252738Y-35393380D01*
X18300357Y-35345761D01*
X18395595Y-35298142D01*
X18586071Y-35250523D01*
X18824166Y-35250523D01*
X19014642Y-35298142D01*
X19109880Y-35345761D01*
X19157500Y-35393380D01*
X19205119Y-35488619D01*
X19205119Y-36441000D02*
X19205119Y-36536238D01*
X19157500Y-36631476D01*
X19109880Y-36679095D01*
X19014642Y-36726714D01*
X18824166Y-36774333D01*
X18586071Y-36774333D01*
X18395595Y-36726714D01*
X18300357Y-36679095D01*
X18252738Y-36631476D01*
X18205119Y-36536238D01*
X18205119Y-36441000D01*
X18252738Y-36345761D01*
X18300357Y-36298142D01*
X18395595Y-36250523D01*
X18586071Y-36202904D01*
X18824166Y-36202904D01*
X19014642Y-36250523D01*
X19109880Y-36298142D01*
X19157500Y-36345761D01*
X19205119Y-36441000D01*
X18586071Y-37202904D02*
X18586071Y-37964809D01*
X19109880Y-38393380D02*
X19157500Y-38441000D01*
X19205119Y-38536238D01*
X19205119Y-38774333D01*
X19157500Y-38869571D01*
X19109880Y-38917190D01*
X19014642Y-38964809D01*
X18919404Y-38964809D01*
X18776547Y-38917190D01*
X18205119Y-38345761D01*
X18205119Y-38964809D01*
X18871785Y-39821952D02*
X18205119Y-39821952D01*
X19252738Y-39583857D02*
X18538452Y-39345761D01*
X18538452Y-39964809D01*
X19205119Y-40536238D02*
X19205119Y-40631476D01*
X19157500Y-40726714D01*
X19109880Y-40774333D01*
X19014642Y-40821952D01*
X18824166Y-40869571D01*
X18586071Y-40869571D01*
X18395595Y-40821952D01*
X18300357Y-40774333D01*
X18252738Y-40726714D01*
X18205119Y-40631476D01*
X18205119Y-40536238D01*
X18252738Y-40441000D01*
X18300357Y-40393380D01*
X18395595Y-40345761D01*
X18586071Y-40298142D01*
X18824166Y-40298142D01*
X19014642Y-40345761D01*
X19109880Y-40393380D01*
X19157500Y-40441000D01*
X19205119Y-40536238D01*
X19205119Y-41155285D02*
X18205119Y-41488619D01*
X19205119Y-41821952D01*
X18490833Y-42107666D02*
X18490833Y-42583857D01*
X18205119Y-42012428D02*
X19205119Y-42345761D01*
X18205119Y-42679095D01*
X18300357Y-43583857D02*
X18252738Y-43536238D01*
X18205119Y-43393380D01*
X18205119Y-43298142D01*
X18252738Y-43155285D01*
X18347976Y-43060047D01*
X18443214Y-43012428D01*
X18633690Y-42964809D01*
X18776547Y-42964809D01*
X18967023Y-43012428D01*
X19062261Y-43060047D01*
X19157500Y-43155285D01*
X19205119Y-43298142D01*
X19205119Y-43393380D01*
X19157500Y-43536238D01*
X19109880Y-43583857D01*
X92830119Y-30318380D02*
X93830119Y-30318380D01*
X93353928Y-30318380D02*
X93353928Y-30889809D01*
X92830119Y-30889809D02*
X93830119Y-30889809D01*
X92877738Y-31746952D02*
X92830119Y-31651714D01*
X92830119Y-31461238D01*
X92877738Y-31366000D01*
X92972976Y-31318380D01*
X93353928Y-31318380D01*
X93449166Y-31366000D01*
X93496785Y-31461238D01*
X93496785Y-31651714D01*
X93449166Y-31746952D01*
X93353928Y-31794571D01*
X93258690Y-31794571D01*
X93163452Y-31318380D01*
X92830119Y-32651714D02*
X93353928Y-32651714D01*
X93449166Y-32604095D01*
X93496785Y-32508857D01*
X93496785Y-32318380D01*
X93449166Y-32223142D01*
X92877738Y-32651714D02*
X92830119Y-32556476D01*
X92830119Y-32318380D01*
X92877738Y-32223142D01*
X92972976Y-32175523D01*
X93068214Y-32175523D01*
X93163452Y-32223142D01*
X93211071Y-32318380D01*
X93211071Y-32556476D01*
X93258690Y-32651714D01*
X93496785Y-32985047D02*
X93496785Y-33366000D01*
X93830119Y-33127904D02*
X92972976Y-33127904D01*
X92877738Y-33175523D01*
X92830119Y-33270761D01*
X92830119Y-33366000D01*
X92877738Y-34413619D02*
X92830119Y-34556476D01*
X92830119Y-34794571D01*
X92877738Y-34889809D01*
X92925357Y-34937428D01*
X93020595Y-34985047D01*
X93115833Y-34985047D01*
X93211071Y-34937428D01*
X93258690Y-34889809D01*
X93306309Y-34794571D01*
X93353928Y-34604095D01*
X93401547Y-34508857D01*
X93449166Y-34461238D01*
X93544404Y-34413619D01*
X93639642Y-34413619D01*
X93734880Y-34461238D01*
X93782500Y-34508857D01*
X93830119Y-34604095D01*
X93830119Y-34842190D01*
X93782500Y-34985047D01*
X92830119Y-35413619D02*
X93496785Y-35413619D01*
X93830119Y-35413619D02*
X93782500Y-35366000D01*
X93734880Y-35413619D01*
X93782500Y-35461238D01*
X93830119Y-35413619D01*
X93734880Y-35413619D01*
X93496785Y-35889809D02*
X92830119Y-35889809D01*
X93401547Y-35889809D02*
X93449166Y-35937428D01*
X93496785Y-36032666D01*
X93496785Y-36175523D01*
X93449166Y-36270761D01*
X93353928Y-36318380D01*
X92830119Y-36318380D01*
X92830119Y-36794571D02*
X93830119Y-36794571D01*
X93211071Y-36889809D02*
X92830119Y-37175523D01*
X93496785Y-37175523D02*
X93115833Y-36794571D01*
X92830119Y-38366000D02*
X93830119Y-38366000D01*
X93115833Y-38699333D01*
X93830119Y-39032666D01*
X92830119Y-39032666D01*
X92830119Y-39651714D02*
X92877738Y-39556476D01*
X92925357Y-39508857D01*
X93020595Y-39461238D01*
X93306309Y-39461238D01*
X93401547Y-39508857D01*
X93449166Y-39556476D01*
X93496785Y-39651714D01*
X93496785Y-39794571D01*
X93449166Y-39889809D01*
X93401547Y-39937428D01*
X93306309Y-39985047D01*
X93020595Y-39985047D01*
X92925357Y-39937428D01*
X92877738Y-39889809D01*
X92830119Y-39794571D01*
X92830119Y-39651714D01*
X93496785Y-40842190D02*
X92830119Y-40842190D01*
X93496785Y-40413619D02*
X92972976Y-40413619D01*
X92877738Y-40461238D01*
X92830119Y-40556476D01*
X92830119Y-40699333D01*
X92877738Y-40794571D01*
X92925357Y-40842190D01*
X93496785Y-41318380D02*
X92830119Y-41318380D01*
X93401547Y-41318380D02*
X93449166Y-41366000D01*
X93496785Y-41461238D01*
X93496785Y-41604095D01*
X93449166Y-41699333D01*
X93353928Y-41746952D01*
X92830119Y-41746952D01*
X93496785Y-42080285D02*
X93496785Y-42461238D01*
X93830119Y-42223142D02*
X92972976Y-42223142D01*
X92877738Y-42270761D01*
X92830119Y-42366000D01*
X92830119Y-42461238D01*
X92830119Y-43556476D02*
X93830119Y-43556476D01*
X93353928Y-43556476D02*
X93353928Y-44127904D01*
X92830119Y-44127904D02*
X93830119Y-44127904D01*
X92830119Y-44746952D02*
X92877738Y-44651714D01*
X92925357Y-44604095D01*
X93020595Y-44556476D01*
X93306309Y-44556476D01*
X93401547Y-44604095D01*
X93449166Y-44651714D01*
X93496785Y-44746952D01*
X93496785Y-44889809D01*
X93449166Y-44985047D01*
X93401547Y-45032666D01*
X93306309Y-45080285D01*
X93020595Y-45080285D01*
X92925357Y-45032666D01*
X92877738Y-44985047D01*
X92830119Y-44889809D01*
X92830119Y-44746952D01*
X92830119Y-45651714D02*
X92877738Y-45556476D01*
X92972976Y-45508857D01*
X93830119Y-45508857D01*
X92877738Y-46413619D02*
X92830119Y-46318380D01*
X92830119Y-46127904D01*
X92877738Y-46032666D01*
X92972976Y-45985047D01*
X93353928Y-45985047D01*
X93449166Y-46032666D01*
X93496785Y-46127904D01*
X93496785Y-46318380D01*
X93449166Y-46413619D01*
X93353928Y-46461238D01*
X93258690Y-46461238D01*
X93163452Y-45985047D01*
D17*
X102101547Y-61102904D02*
X102101547Y-60700523D01*
X102349166Y-60917190D01*
X102349166Y-60824333D01*
X102380119Y-60762428D01*
X102411071Y-60731476D01*
X102472976Y-60700523D01*
X102627738Y-60700523D01*
X102689642Y-60731476D01*
X102720595Y-60762428D01*
X102751547Y-60824333D01*
X102751547Y-61010047D01*
X102720595Y-61071952D01*
X102689642Y-61102904D01*
X102503928Y-59926714D02*
X102503928Y-59431476D01*
X102101547Y-58688619D02*
X102101547Y-58286238D01*
X102349166Y-58502904D01*
X102349166Y-58410047D01*
X102380119Y-58348142D01*
X102411071Y-58317190D01*
X102472976Y-58286238D01*
X102627738Y-58286238D01*
X102689642Y-58317190D01*
X102720595Y-58348142D01*
X102751547Y-58410047D01*
X102751547Y-58595761D01*
X102720595Y-58657666D01*
X102689642Y-58688619D01*
X102163452Y-58038619D02*
X102132500Y-58007666D01*
X102101547Y-57945761D01*
X102101547Y-57791000D01*
X102132500Y-57729095D01*
X102163452Y-57698142D01*
X102225357Y-57667190D01*
X102287261Y-57667190D01*
X102380119Y-57698142D01*
X102751547Y-58069571D01*
X102751547Y-57667190D01*
X102101547Y-57481476D02*
X102751547Y-57264809D01*
X102101547Y-57048142D01*
X102751547Y-56831476D02*
X102101547Y-56831476D01*
X102101547Y-56676714D01*
X102132500Y-56583857D01*
X102194404Y-56521952D01*
X102256309Y-56491000D01*
X102380119Y-56460047D01*
X102472976Y-56460047D01*
X102596785Y-56491000D01*
X102658690Y-56521952D01*
X102720595Y-56583857D01*
X102751547Y-56676714D01*
X102751547Y-56831476D01*
X102689642Y-55810047D02*
X102720595Y-55841000D01*
X102751547Y-55933857D01*
X102751547Y-55995761D01*
X102720595Y-56088619D01*
X102658690Y-56150523D01*
X102596785Y-56181476D01*
X102472976Y-56212428D01*
X102380119Y-56212428D01*
X102256309Y-56181476D01*
X102194404Y-56150523D01*
X102132500Y-56088619D01*
X102101547Y-55995761D01*
X102101547Y-55933857D01*
X102132500Y-55841000D01*
X102163452Y-55810047D01*
X102101547Y-31877904D02*
X102101547Y-31475523D01*
X102349166Y-31692190D01*
X102349166Y-31599333D01*
X102380119Y-31537428D01*
X102411071Y-31506476D01*
X102472976Y-31475523D01*
X102627738Y-31475523D01*
X102689642Y-31506476D01*
X102720595Y-31537428D01*
X102751547Y-31599333D01*
X102751547Y-31785047D01*
X102720595Y-31846952D01*
X102689642Y-31877904D01*
X102503928Y-30701714D02*
X102503928Y-30206476D01*
X102101547Y-29463619D02*
X102101547Y-29061238D01*
X102349166Y-29277904D01*
X102349166Y-29185047D01*
X102380119Y-29123142D01*
X102411071Y-29092190D01*
X102472976Y-29061238D01*
X102627738Y-29061238D01*
X102689642Y-29092190D01*
X102720595Y-29123142D01*
X102751547Y-29185047D01*
X102751547Y-29370761D01*
X102720595Y-29432666D01*
X102689642Y-29463619D01*
X102163452Y-28813619D02*
X102132500Y-28782666D01*
X102101547Y-28720761D01*
X102101547Y-28566000D01*
X102132500Y-28504095D01*
X102163452Y-28473142D01*
X102225357Y-28442190D01*
X102287261Y-28442190D01*
X102380119Y-28473142D01*
X102751547Y-28844571D01*
X102751547Y-28442190D01*
X102101547Y-28256476D02*
X102751547Y-28039809D01*
X102101547Y-27823142D01*
X102751547Y-27606476D02*
X102101547Y-27606476D01*
X102101547Y-27451714D01*
X102132500Y-27358857D01*
X102194404Y-27296952D01*
X102256309Y-27266000D01*
X102380119Y-27235047D01*
X102472976Y-27235047D01*
X102596785Y-27266000D01*
X102658690Y-27296952D01*
X102720595Y-27358857D01*
X102751547Y-27451714D01*
X102751547Y-27606476D01*
X102689642Y-26585047D02*
X102720595Y-26616000D01*
X102751547Y-26708857D01*
X102751547Y-26770761D01*
X102720595Y-26863619D01*
X102658690Y-26925523D01*
X102596785Y-26956476D01*
X102472976Y-26987428D01*
X102380119Y-26987428D01*
X102256309Y-26956476D01*
X102194404Y-26925523D01*
X102132500Y-26863619D01*
X102101547Y-26770761D01*
X102101547Y-26708857D01*
X102132500Y-26616000D01*
X102163452Y-26585047D01*
D12*
X100703928Y-53171952D02*
X100703928Y-52410047D01*
X28670595Y-65270761D02*
X28813452Y-65318380D01*
X29051547Y-65318380D01*
X29146785Y-65270761D01*
X29194404Y-65223142D01*
X29242023Y-65127904D01*
X29242023Y-65032666D01*
X29194404Y-64937428D01*
X29146785Y-64889809D01*
X29051547Y-64842190D01*
X28861071Y-64794571D01*
X28765833Y-64746952D01*
X28718214Y-64699333D01*
X28670595Y-64604095D01*
X28670595Y-64508857D01*
X28718214Y-64413619D01*
X28765833Y-64366000D01*
X28861071Y-64318380D01*
X29099166Y-64318380D01*
X29242023Y-64366000D01*
X29622976Y-65270761D02*
X29765833Y-65318380D01*
X30003928Y-65318380D01*
X30099166Y-65270761D01*
X30146785Y-65223142D01*
X30194404Y-65127904D01*
X30194404Y-65032666D01*
X30146785Y-64937428D01*
X30099166Y-64889809D01*
X30003928Y-64842190D01*
X29813452Y-64794571D01*
X29718214Y-64746952D01*
X29670595Y-64699333D01*
X29622976Y-64604095D01*
X29622976Y-64508857D01*
X29670595Y-64413619D01*
X29718214Y-64366000D01*
X29813452Y-64318380D01*
X30051547Y-64318380D01*
X30194404Y-64366000D01*
X31194404Y-65318380D02*
X30861071Y-64842190D01*
X30622976Y-65318380D02*
X30622976Y-64318380D01*
X31003928Y-64318380D01*
X31099166Y-64366000D01*
X31146785Y-64413619D01*
X31194404Y-64508857D01*
X31194404Y-64651714D01*
X31146785Y-64746952D01*
X31099166Y-64794571D01*
X31003928Y-64842190D01*
X30622976Y-64842190D01*
X31622976Y-64937428D02*
X32384880Y-64937428D01*
X32813452Y-64413619D02*
X32861071Y-64366000D01*
X32956309Y-64318380D01*
X33194404Y-64318380D01*
X33289642Y-64366000D01*
X33337261Y-64413619D01*
X33384880Y-64508857D01*
X33384880Y-64604095D01*
X33337261Y-64746952D01*
X32765833Y-65318380D01*
X33384880Y-65318380D01*
X34289642Y-64318380D02*
X33813452Y-64318380D01*
X33765833Y-64794571D01*
X33813452Y-64746952D01*
X33908690Y-64699333D01*
X34146785Y-64699333D01*
X34242023Y-64746952D01*
X34289642Y-64794571D01*
X34337261Y-64889809D01*
X34337261Y-65127904D01*
X34289642Y-65223142D01*
X34242023Y-65270761D01*
X34146785Y-65318380D01*
X33908690Y-65318380D01*
X33813452Y-65270761D01*
X33765833Y-65223142D01*
X34765833Y-65318380D02*
X34765833Y-64318380D01*
X35003928Y-64318380D01*
X35146785Y-64366000D01*
X35242023Y-64461238D01*
X35289642Y-64556476D01*
X35337261Y-64746952D01*
X35337261Y-64889809D01*
X35289642Y-65080285D01*
X35242023Y-65175523D01*
X35146785Y-65270761D01*
X35003928Y-65318380D01*
X34765833Y-65318380D01*
X35718214Y-65032666D02*
X36194404Y-65032666D01*
X35622976Y-65318380D02*
X35956309Y-64318380D01*
X36289642Y-65318380D01*
X30134880Y-47538619D02*
X29134880Y-47538619D01*
X29611071Y-47538619D02*
X29611071Y-46967190D01*
X30134880Y-46967190D02*
X29134880Y-46967190D01*
X30087261Y-46110047D02*
X30134880Y-46205285D01*
X30134880Y-46395761D01*
X30087261Y-46491000D01*
X29992023Y-46538619D01*
X29611071Y-46538619D01*
X29515833Y-46491000D01*
X29468214Y-46395761D01*
X29468214Y-46205285D01*
X29515833Y-46110047D01*
X29611071Y-46062428D01*
X29706309Y-46062428D01*
X29801547Y-46538619D01*
X30134880Y-45205285D02*
X29611071Y-45205285D01*
X29515833Y-45252904D01*
X29468214Y-45348142D01*
X29468214Y-45538619D01*
X29515833Y-45633857D01*
X30087261Y-45205285D02*
X30134880Y-45300523D01*
X30134880Y-45538619D01*
X30087261Y-45633857D01*
X29992023Y-45681476D01*
X29896785Y-45681476D01*
X29801547Y-45633857D01*
X29753928Y-45538619D01*
X29753928Y-45300523D01*
X29706309Y-45205285D01*
X29468214Y-44871952D02*
X29468214Y-44491000D01*
X29134880Y-44729095D02*
X29992023Y-44729095D01*
X30087261Y-44681476D01*
X30134880Y-44586238D01*
X30134880Y-44491000D01*
X30087261Y-43443380D02*
X30134880Y-43300523D01*
X30134880Y-43062428D01*
X30087261Y-42967190D01*
X30039642Y-42919571D01*
X29944404Y-42871952D01*
X29849166Y-42871952D01*
X29753928Y-42919571D01*
X29706309Y-42967190D01*
X29658690Y-43062428D01*
X29611071Y-43252904D01*
X29563452Y-43348142D01*
X29515833Y-43395761D01*
X29420595Y-43443380D01*
X29325357Y-43443380D01*
X29230119Y-43395761D01*
X29182500Y-43348142D01*
X29134880Y-43252904D01*
X29134880Y-43014809D01*
X29182500Y-42871952D01*
X30134880Y-42443380D02*
X29468214Y-42443380D01*
X29134880Y-42443380D02*
X29182500Y-42491000D01*
X29230119Y-42443380D01*
X29182500Y-42395761D01*
X29134880Y-42443380D01*
X29230119Y-42443380D01*
X29468214Y-41967190D02*
X30134880Y-41967190D01*
X29563452Y-41967190D02*
X29515833Y-41919571D01*
X29468214Y-41824333D01*
X29468214Y-41681476D01*
X29515833Y-41586238D01*
X29611071Y-41538619D01*
X30134880Y-41538619D01*
X30134880Y-41062428D02*
X29134880Y-41062428D01*
X29753928Y-40967190D02*
X30134880Y-40681476D01*
X29468214Y-40681476D02*
X29849166Y-41062428D01*
X30134880Y-39491000D02*
X29134880Y-39491000D01*
X29849166Y-39157666D01*
X29134880Y-38824333D01*
X30134880Y-38824333D01*
X30134880Y-38205285D02*
X30087261Y-38300523D01*
X30039642Y-38348142D01*
X29944404Y-38395761D01*
X29658690Y-38395761D01*
X29563452Y-38348142D01*
X29515833Y-38300523D01*
X29468214Y-38205285D01*
X29468214Y-38062428D01*
X29515833Y-37967190D01*
X29563452Y-37919571D01*
X29658690Y-37871952D01*
X29944404Y-37871952D01*
X30039642Y-37919571D01*
X30087261Y-37967190D01*
X30134880Y-38062428D01*
X30134880Y-38205285D01*
X29468214Y-37014809D02*
X30134880Y-37014809D01*
X29468214Y-37443380D02*
X29992023Y-37443380D01*
X30087261Y-37395761D01*
X30134880Y-37300523D01*
X30134880Y-37157666D01*
X30087261Y-37062428D01*
X30039642Y-37014809D01*
X29468214Y-36538619D02*
X30134880Y-36538619D01*
X29563452Y-36538619D02*
X29515833Y-36491000D01*
X29468214Y-36395761D01*
X29468214Y-36252904D01*
X29515833Y-36157666D01*
X29611071Y-36110047D01*
X30134880Y-36110047D01*
X29468214Y-35776714D02*
X29468214Y-35395761D01*
X29134880Y-35633857D02*
X29992023Y-35633857D01*
X30087261Y-35586238D01*
X30134880Y-35491000D01*
X30134880Y-35395761D01*
X30134880Y-34300523D02*
X29134880Y-34300523D01*
X29611071Y-34300523D02*
X29611071Y-33729095D01*
X30134880Y-33729095D02*
X29134880Y-33729095D01*
X30134880Y-33110047D02*
X30087261Y-33205285D01*
X30039642Y-33252904D01*
X29944404Y-33300523D01*
X29658690Y-33300523D01*
X29563452Y-33252904D01*
X29515833Y-33205285D01*
X29468214Y-33110047D01*
X29468214Y-32967190D01*
X29515833Y-32871952D01*
X29563452Y-32824333D01*
X29658690Y-32776714D01*
X29944404Y-32776714D01*
X30039642Y-32824333D01*
X30087261Y-32871952D01*
X30134880Y-32967190D01*
X30134880Y-33110047D01*
X30134880Y-32205285D02*
X30087261Y-32300523D01*
X29992023Y-32348142D01*
X29134880Y-32348142D01*
X30087261Y-31443380D02*
X30134880Y-31538619D01*
X30134880Y-31729095D01*
X30087261Y-31824333D01*
X29992023Y-31871952D01*
X29611071Y-31871952D01*
X29515833Y-31824333D01*
X29468214Y-31729095D01*
X29468214Y-31538619D01*
X29515833Y-31443380D01*
X29611071Y-31395761D01*
X29706309Y-31395761D01*
X29801547Y-31871952D01*
%TO.C,Q1*%
X71405761Y-74207619D02*
X71310523Y-74160000D01*
X71215285Y-74064761D01*
X71072428Y-73921904D01*
X70977190Y-73874285D01*
X70881952Y-73874285D01*
X70929571Y-74112380D02*
X70834333Y-74064761D01*
X70739095Y-73969523D01*
X70691476Y-73779047D01*
X70691476Y-73445714D01*
X70739095Y-73255238D01*
X70834333Y-73160000D01*
X70929571Y-73112380D01*
X71120047Y-73112380D01*
X71215285Y-73160000D01*
X71310523Y-73255238D01*
X71358142Y-73445714D01*
X71358142Y-73779047D01*
X71310523Y-73969523D01*
X71215285Y-74064761D01*
X71120047Y-74112380D01*
X70929571Y-74112380D01*
X72310523Y-74112380D02*
X71739095Y-74112380D01*
X72024809Y-74112380D02*
X72024809Y-73112380D01*
X71929571Y-73255238D01*
X71834333Y-73350476D01*
X71739095Y-73398095D01*
%TO.C,J1*%
X99071180Y-78311333D02*
X99785466Y-78311333D01*
X99928323Y-78358952D01*
X100023561Y-78454190D01*
X100071180Y-78597047D01*
X100071180Y-78692285D01*
X100071180Y-77311333D02*
X100071180Y-77882761D01*
X100071180Y-77597047D02*
X99071180Y-77597047D01*
X99214038Y-77692285D01*
X99309276Y-77787523D01*
X99356895Y-77882761D01*
D15*
%TO.C,J2*%
X54037733Y-85269428D02*
X54037733Y-85698000D01*
X54006780Y-85783714D01*
X53944876Y-85840857D01*
X53852019Y-85869428D01*
X53790114Y-85869428D01*
X54316304Y-85326571D02*
X54347257Y-85298000D01*
X54409161Y-85269428D01*
X54563923Y-85269428D01*
X54625828Y-85298000D01*
X54656780Y-85326571D01*
X54687733Y-85383714D01*
X54687733Y-85440857D01*
X54656780Y-85526571D01*
X54285352Y-85869428D01*
X54687733Y-85869428D01*
D12*
%TO.C,C1*%
X81316533Y-67260742D02*
X81268914Y-67308361D01*
X81126057Y-67355980D01*
X81030819Y-67355980D01*
X80887961Y-67308361D01*
X80792723Y-67213123D01*
X80745104Y-67117885D01*
X80697485Y-66927409D01*
X80697485Y-66784552D01*
X80745104Y-66594076D01*
X80792723Y-66498838D01*
X80887961Y-66403600D01*
X81030819Y-66355980D01*
X81126057Y-66355980D01*
X81268914Y-66403600D01*
X81316533Y-66451219D01*
X82268914Y-67355980D02*
X81697485Y-67355980D01*
X81983200Y-67355980D02*
X81983200Y-66355980D01*
X81887961Y-66498838D01*
X81792723Y-66594076D01*
X81697485Y-66641695D01*
%TO.C,U3*%
X76835095Y-73239380D02*
X76835095Y-74048904D01*
X76882714Y-74144142D01*
X76930333Y-74191761D01*
X77025571Y-74239380D01*
X77216047Y-74239380D01*
X77311285Y-74191761D01*
X77358904Y-74144142D01*
X77406523Y-74048904D01*
X77406523Y-73239380D01*
X77787476Y-73239380D02*
X78406523Y-73239380D01*
X78073190Y-73620333D01*
X78216047Y-73620333D01*
X78311285Y-73667952D01*
X78358904Y-73715571D01*
X78406523Y-73810809D01*
X78406523Y-74048904D01*
X78358904Y-74144142D01*
X78311285Y-74191761D01*
X78216047Y-74239380D01*
X77930333Y-74239380D01*
X77835095Y-74191761D01*
X77787476Y-74144142D01*
D15*
%TO.C,2.5mm*%
X102740000Y-18397571D02*
X102768571Y-18369000D01*
X102825714Y-18340428D01*
X102968571Y-18340428D01*
X103025714Y-18369000D01*
X103054285Y-18397571D01*
X103082857Y-18454714D01*
X103082857Y-18511857D01*
X103054285Y-18597571D01*
X102711428Y-18940428D01*
X103082857Y-18940428D01*
X103340000Y-18883285D02*
X103368571Y-18911857D01*
X103340000Y-18940428D01*
X103311428Y-18911857D01*
X103340000Y-18883285D01*
X103340000Y-18940428D01*
X103911428Y-18340428D02*
X103625714Y-18340428D01*
X103597142Y-18626142D01*
X103625714Y-18597571D01*
X103682857Y-18569000D01*
X103825714Y-18569000D01*
X103882857Y-18597571D01*
X103911428Y-18626142D01*
X103940000Y-18683285D01*
X103940000Y-18826142D01*
X103911428Y-18883285D01*
X103882857Y-18911857D01*
X103825714Y-18940428D01*
X103682857Y-18940428D01*
X103625714Y-18911857D01*
X103597142Y-18883285D01*
X104197142Y-18940428D02*
X104197142Y-18540428D01*
X104197142Y-18597571D02*
X104225714Y-18569000D01*
X104282857Y-18540428D01*
X104368571Y-18540428D01*
X104425714Y-18569000D01*
X104454285Y-18626142D01*
X104454285Y-18940428D01*
X104454285Y-18626142D02*
X104482857Y-18569000D01*
X104540000Y-18540428D01*
X104625714Y-18540428D01*
X104682857Y-18569000D01*
X104711428Y-18626142D01*
X104711428Y-18940428D01*
X104997142Y-18940428D02*
X104997142Y-18540428D01*
X104997142Y-18597571D02*
X105025714Y-18569000D01*
X105082857Y-18540428D01*
X105168571Y-18540428D01*
X105225714Y-18569000D01*
X105254285Y-18626142D01*
X105254285Y-18940428D01*
X105254285Y-18626142D02*
X105282857Y-18569000D01*
X105340000Y-18540428D01*
X105425714Y-18540428D01*
X105482857Y-18569000D01*
X105511428Y-18626142D01*
X105511428Y-18940428D01*
X13840000Y-18143571D02*
X13868571Y-18115000D01*
X13925714Y-18086428D01*
X14068571Y-18086428D01*
X14125714Y-18115000D01*
X14154285Y-18143571D01*
X14182857Y-18200714D01*
X14182857Y-18257857D01*
X14154285Y-18343571D01*
X13811428Y-18686428D01*
X14182857Y-18686428D01*
X14440000Y-18629285D02*
X14468571Y-18657857D01*
X14440000Y-18686428D01*
X14411428Y-18657857D01*
X14440000Y-18629285D01*
X14440000Y-18686428D01*
X15011428Y-18086428D02*
X14725714Y-18086428D01*
X14697142Y-18372142D01*
X14725714Y-18343571D01*
X14782857Y-18315000D01*
X14925714Y-18315000D01*
X14982857Y-18343571D01*
X15011428Y-18372142D01*
X15040000Y-18429285D01*
X15040000Y-18572142D01*
X15011428Y-18629285D01*
X14982857Y-18657857D01*
X14925714Y-18686428D01*
X14782857Y-18686428D01*
X14725714Y-18657857D01*
X14697142Y-18629285D01*
X15297142Y-18686428D02*
X15297142Y-18286428D01*
X15297142Y-18343571D02*
X15325714Y-18315000D01*
X15382857Y-18286428D01*
X15468571Y-18286428D01*
X15525714Y-18315000D01*
X15554285Y-18372142D01*
X15554285Y-18686428D01*
X15554285Y-18372142D02*
X15582857Y-18315000D01*
X15640000Y-18286428D01*
X15725714Y-18286428D01*
X15782857Y-18315000D01*
X15811428Y-18372142D01*
X15811428Y-18686428D01*
X16097142Y-18686428D02*
X16097142Y-18286428D01*
X16097142Y-18343571D02*
X16125714Y-18315000D01*
X16182857Y-18286428D01*
X16268571Y-18286428D01*
X16325714Y-18315000D01*
X16354285Y-18372142D01*
X16354285Y-18686428D01*
X16354285Y-18372142D02*
X16382857Y-18315000D01*
X16440000Y-18286428D01*
X16525714Y-18286428D01*
X16582857Y-18315000D01*
X16611428Y-18372142D01*
X16611428Y-18686428D01*
D12*
%TO.C,SW1*%
X54125761Y-74866333D02*
X54173380Y-74723476D01*
X54173380Y-74485380D01*
X54125761Y-74390142D01*
X54078142Y-74342523D01*
X53982904Y-74294904D01*
X53887666Y-74294904D01*
X53792428Y-74342523D01*
X53744809Y-74390142D01*
X53697190Y-74485380D01*
X53649571Y-74675857D01*
X53601952Y-74771095D01*
X53554333Y-74818714D01*
X53459095Y-74866333D01*
X53363857Y-74866333D01*
X53268619Y-74818714D01*
X53221000Y-74771095D01*
X53173380Y-74675857D01*
X53173380Y-74437761D01*
X53221000Y-74294904D01*
X53173380Y-73961571D02*
X54173380Y-73723476D01*
X53459095Y-73533000D01*
X54173380Y-73342523D01*
X53173380Y-73104428D01*
X54173380Y-72199666D02*
X54173380Y-72771095D01*
X54173380Y-72485380D02*
X53173380Y-72485380D01*
X53316238Y-72580619D01*
X53411476Y-72675857D01*
X53459095Y-72771095D01*
%TO.C,C2*%
X82281733Y-68073542D02*
X82234114Y-68121161D01*
X82091257Y-68168780D01*
X81996019Y-68168780D01*
X81853161Y-68121161D01*
X81757923Y-68025923D01*
X81710304Y-67930685D01*
X81662685Y-67740209D01*
X81662685Y-67597352D01*
X81710304Y-67406876D01*
X81757923Y-67311638D01*
X81853161Y-67216400D01*
X81996019Y-67168780D01*
X82091257Y-67168780D01*
X82234114Y-67216400D01*
X82281733Y-67264019D01*
X82662685Y-67264019D02*
X82710304Y-67216400D01*
X82805542Y-67168780D01*
X83043638Y-67168780D01*
X83138876Y-67216400D01*
X83186495Y-67264019D01*
X83234114Y-67359257D01*
X83234114Y-67454495D01*
X83186495Y-67597352D01*
X82615066Y-68168780D01*
X83234114Y-68168780D01*
D15*
%TO.C,2.5mm*%
X13967000Y-80683571D02*
X13995571Y-80655000D01*
X14052714Y-80626428D01*
X14195571Y-80626428D01*
X14252714Y-80655000D01*
X14281285Y-80683571D01*
X14309857Y-80740714D01*
X14309857Y-80797857D01*
X14281285Y-80883571D01*
X13938428Y-81226428D01*
X14309857Y-81226428D01*
X14567000Y-81169285D02*
X14595571Y-81197857D01*
X14567000Y-81226428D01*
X14538428Y-81197857D01*
X14567000Y-81169285D01*
X14567000Y-81226428D01*
X15138428Y-80626428D02*
X14852714Y-80626428D01*
X14824142Y-80912142D01*
X14852714Y-80883571D01*
X14909857Y-80855000D01*
X15052714Y-80855000D01*
X15109857Y-80883571D01*
X15138428Y-80912142D01*
X15167000Y-80969285D01*
X15167000Y-81112142D01*
X15138428Y-81169285D01*
X15109857Y-81197857D01*
X15052714Y-81226428D01*
X14909857Y-81226428D01*
X14852714Y-81197857D01*
X14824142Y-81169285D01*
X15424142Y-81226428D02*
X15424142Y-80826428D01*
X15424142Y-80883571D02*
X15452714Y-80855000D01*
X15509857Y-80826428D01*
X15595571Y-80826428D01*
X15652714Y-80855000D01*
X15681285Y-80912142D01*
X15681285Y-81226428D01*
X15681285Y-80912142D02*
X15709857Y-80855000D01*
X15767000Y-80826428D01*
X15852714Y-80826428D01*
X15909857Y-80855000D01*
X15938428Y-80912142D01*
X15938428Y-81226428D01*
X16224142Y-81226428D02*
X16224142Y-80826428D01*
X16224142Y-80883571D02*
X16252714Y-80855000D01*
X16309857Y-80826428D01*
X16395571Y-80826428D01*
X16452714Y-80855000D01*
X16481285Y-80912142D01*
X16481285Y-81226428D01*
X16481285Y-80912142D02*
X16509857Y-80855000D01*
X16567000Y-80826428D01*
X16652714Y-80826428D01*
X16709857Y-80855000D01*
X16738428Y-80912142D01*
X16738428Y-81226428D01*
D12*
%TO.C,R2*%
X72858333Y-82621380D02*
X72525000Y-82145190D01*
X72286904Y-82621380D02*
X72286904Y-81621380D01*
X72667857Y-81621380D01*
X72763095Y-81669000D01*
X72810714Y-81716619D01*
X72858333Y-81811857D01*
X72858333Y-81954714D01*
X72810714Y-82049952D01*
X72763095Y-82097571D01*
X72667857Y-82145190D01*
X72286904Y-82145190D01*
X73239285Y-81716619D02*
X73286904Y-81669000D01*
X73382142Y-81621380D01*
X73620238Y-81621380D01*
X73715476Y-81669000D01*
X73763095Y-81716619D01*
X73810714Y-81811857D01*
X73810714Y-81907095D01*
X73763095Y-82049952D01*
X73191666Y-82621380D01*
X73810714Y-82621380D01*
D18*
%TO.C,PS1*%
X18969500Y-73462000D02*
X18969500Y-75472000D01*
X19359500Y-66862000D02*
X19359500Y-87062000D01*
X19359500Y-87062000D02*
X53559500Y-87062000D01*
X53559500Y-66862000D02*
X19359500Y-66862000D01*
X53559500Y-87062000D02*
X53559500Y-66862000D01*
D19*
%TO.C,U2*%
X63246000Y-85153302D02*
X65786000Y-85153302D01*
D20*
X62738000Y-72961302D02*
X87376000Y-72961302D01*
X87376000Y-72961302D02*
X87376000Y-87185302D01*
D19*
X68326000Y-85153302D02*
X68326000Y-82613302D01*
X68326000Y-74993302D02*
X63246000Y-74993302D01*
X63246000Y-74993302D02*
X63246000Y-85153302D01*
X68326000Y-82613302D02*
X68326000Y-74993302D01*
D20*
X87376000Y-87185302D02*
X62738000Y-87185302D01*
D19*
X65786000Y-85153302D02*
X68326000Y-85153302D01*
D20*
X62738000Y-87185302D02*
X62738000Y-72961302D01*
D18*
%TO.C,R1*%
X76271000Y-85344000D02*
X77041000Y-85344000D01*
X83581000Y-86714000D02*
X83581000Y-83974000D01*
X84351000Y-85344000D02*
X83581000Y-85344000D01*
X77041000Y-86714000D02*
X83581000Y-86714000D01*
X83581000Y-83974000D02*
X77041000Y-83974000D01*
X77041000Y-83974000D02*
X77041000Y-86714000D01*
D15*
%TO.C,U1*%
X94136538Y-71000350D02*
X94136538Y-71300350D01*
X94136538Y-75700350D02*
X93836538Y-75850350D01*
X94136538Y-75400350D02*
X94136538Y-75700350D01*
X94136538Y-71000350D02*
X93836538Y-70850350D01*
D12*
X90986538Y-71400350D02*
G75*
G03*
X90936538Y-75250350I1900000J-1950000D01*
G01*
D18*
%TO.C,RLY1*%
X21432500Y-13716000D02*
X101696500Y-13716000D01*
X101696500Y-13716000D02*
X101696500Y-63754000D01*
X101696500Y-63754000D02*
X21432500Y-63754000D01*
X21432500Y-63754000D02*
X21432500Y-13716000D01*
%TO.C,Q1*%
X74825000Y-74604000D02*
X71225000Y-74604000D01*
X71186522Y-74615522D02*
G75*
G03*
X73025000Y-79054000I1838478J-1838478D01*
G01*
X73025000Y-79054001D02*
G75*
G03*
X74863478Y-74615522I0J2600001D01*
G01*
%TO.C,J1*%
X98245000Y-68179000D02*
X98373000Y-68308000D01*
X98039000Y-68384000D02*
X98133000Y-68478000D01*
X96154000Y-78264000D02*
X96154000Y-67644000D01*
X98245000Y-71679000D02*
X98373000Y-71808000D01*
X98039000Y-71884000D02*
X98133000Y-71978000D01*
X104114000Y-78504000D02*
X104114000Y-78104000D01*
X100495000Y-70429000D02*
X100588000Y-70523000D01*
X96154000Y-67644000D02*
X103874000Y-67644000D01*
X102314000Y-78264000D02*
X102314000Y-67644000D01*
X100255000Y-70599000D02*
X100383000Y-70728000D01*
X100255000Y-74099000D02*
X100383000Y-74228000D01*
X100495000Y-73929000D02*
X100588000Y-74023000D01*
X103874000Y-78264000D02*
X103874000Y-67644000D01*
X103474000Y-78504000D02*
X104114000Y-78504000D01*
X103414000Y-78264000D02*
X103414000Y-67644000D01*
X96154000Y-78264000D02*
X103874000Y-78264000D01*
X97873999Y-75588000D02*
G75*
G03*
X97888642Y-77343894I1439999J-866000D01*
G01*
X98448000Y-77894001D02*
G75*
G03*
X100203894Y-77879358I866000J1439999D01*
G01*
X100205000Y-75029000D02*
G75*
G03*
X98423807Y-75028496I-891000J-1425003D01*
G01*
X100994000Y-76454000D02*
G75*
G03*
X100738721Y-75563736I-1679990J3D01*
G01*
X100754000Y-77320000D02*
G75*
G03*
X100994099Y-76425326I-1440014J866003D01*
G01*
X100994000Y-69454000D02*
G75*
G03*
X100994000Y-69454000I-1680000J0D01*
G01*
X100994000Y-72954000D02*
G75*
G03*
X100994000Y-72954000I-1680000J0D01*
G01*
%TO.C,J2*%
X60238000Y-86791000D02*
X60238000Y-76511000D01*
X57638000Y-86791000D02*
X57638000Y-84191000D01*
X55038000Y-86791000D02*
X55038000Y-85461000D01*
X60238000Y-86791000D02*
X57638000Y-86791000D01*
X60238000Y-76511000D02*
X55038000Y-76511000D01*
X57638000Y-84191000D02*
X55038000Y-84191000D01*
X55038000Y-84191000D02*
X55038000Y-76511000D01*
X56368000Y-86791000D02*
X55038000Y-86791000D01*
%TO.C,C1*%
X81118000Y-70798401D02*
X80088000Y-70798401D01*
X81242000Y-70477401D02*
X80088000Y-70477401D01*
X78408000Y-70598401D02*
X77294000Y-70598401D01*
X78408000Y-70517401D02*
X77266000Y-70517401D01*
X78408000Y-71358401D02*
X77770000Y-71358401D01*
X78408000Y-70758401D02*
X77359000Y-70758401D01*
X78408000Y-70557401D02*
X77280000Y-70557401D01*
X80016000Y-71838401D02*
X78480000Y-71838401D01*
X81137000Y-70758401D02*
X80088000Y-70758401D01*
X81230000Y-70517401D02*
X80088000Y-70517401D01*
X80643000Y-67807600D02*
X80243000Y-67807600D01*
X79618000Y-71958401D02*
X78878000Y-71958401D01*
X78408000Y-71198401D02*
X77629000Y-71198401D01*
X78408000Y-70638401D02*
X77308000Y-70638401D01*
X80764000Y-71318401D02*
X80088000Y-71318401D01*
X79912000Y-71878401D02*
X78584000Y-71878401D01*
X78408000Y-71278401D02*
X77696000Y-71278401D01*
X78408000Y-71438401D02*
X77852000Y-71438401D01*
X80928000Y-71118401D02*
X80088000Y-71118401D01*
X78408000Y-70678401D02*
X77324000Y-70678401D01*
X81172000Y-70678401D02*
X80088000Y-70678401D01*
X78408000Y-70117401D02*
X77181000Y-70117401D01*
X80261000Y-71718401D02*
X78235000Y-71718401D01*
X81325000Y-69997401D02*
X80088000Y-69997401D01*
X78408000Y-70317401D02*
X77214000Y-70317401D01*
X78408000Y-70798401D02*
X77378000Y-70798401D01*
X80107000Y-71798401D02*
X78389000Y-71798401D01*
X78408000Y-70878401D02*
X77418000Y-70878401D01*
X80502000Y-71558401D02*
X77994000Y-71558401D01*
X81310000Y-70157401D02*
X80088000Y-70157401D01*
X81056000Y-70918401D02*
X80088000Y-70918401D01*
X78408000Y-70197401D02*
X77192000Y-70197401D01*
X78408000Y-70477401D02*
X77254000Y-70477401D01*
X78408000Y-71318401D02*
X77732000Y-71318401D01*
X80448000Y-71598401D02*
X78048000Y-71598401D01*
X81155000Y-70718401D02*
X80088000Y-70718401D01*
X81304000Y-70197401D02*
X80088000Y-70197401D01*
X81273000Y-70357401D02*
X80088000Y-70357401D01*
X78408000Y-69997401D02*
X77171000Y-69997401D01*
X80552000Y-71518401D02*
X77944000Y-71518401D01*
X78408000Y-70077401D02*
X77177000Y-70077401D01*
X80599000Y-71478401D02*
X77897000Y-71478401D01*
X81033000Y-70958401D02*
X80088000Y-70958401D01*
X80188000Y-71758401D02*
X78308000Y-71758401D01*
X80686000Y-71398401D02*
X80088000Y-71398401D01*
X81290000Y-70277401D02*
X80088000Y-70277401D01*
X80956000Y-71078401D02*
X80088000Y-71078401D01*
X81282000Y-70317401D02*
X80088000Y-70317401D01*
X81264000Y-70397401D02*
X80088000Y-70397401D01*
X80328000Y-71678401D02*
X78168000Y-71678401D01*
X80390000Y-71638401D02*
X78106000Y-71638401D01*
X78408000Y-69917401D02*
X77168000Y-69917401D01*
X78408000Y-71038401D02*
X77513000Y-71038401D01*
X80898000Y-71158401D02*
X80088000Y-71158401D01*
X78408000Y-71398401D02*
X77810000Y-71398401D01*
X78408000Y-70277401D02*
X77206000Y-70277401D01*
X78408000Y-70397401D02*
X77232000Y-70397401D01*
X81008000Y-70998401D02*
X80088000Y-70998401D01*
X81327000Y-69957401D02*
X80088000Y-69957401D01*
X81319000Y-70077401D02*
X80088000Y-70077401D01*
X78408000Y-70037401D02*
X77174000Y-70037401D01*
X81328000Y-69877401D02*
X80088000Y-69877401D01*
X78408000Y-70237401D02*
X77198000Y-70237401D01*
X80867000Y-71198401D02*
X80088000Y-71198401D01*
X78408000Y-70998401D02*
X77488000Y-70998401D01*
X78408000Y-70918401D02*
X77440000Y-70918401D01*
X80835000Y-71238401D02*
X80088000Y-71238401D01*
X78408000Y-70437401D02*
X77243000Y-70437401D01*
X78408000Y-70838401D02*
X77397000Y-70838401D01*
X78408000Y-71238401D02*
X77661000Y-71238401D01*
X78408000Y-71158401D02*
X77598000Y-71158401D01*
X81078000Y-70878401D02*
X80088000Y-70878401D01*
X81216000Y-70557401D02*
X80088000Y-70557401D01*
X78408000Y-70718401D02*
X77341000Y-70718401D01*
X78408000Y-70157401D02*
X77186000Y-70157401D01*
X81315000Y-70117401D02*
X80088000Y-70117401D01*
X81328000Y-69917401D02*
X80088000Y-69917401D01*
X80443000Y-67607600D02*
X80443000Y-68007600D01*
X81322000Y-70037401D02*
X80088000Y-70037401D01*
X78408000Y-70357401D02*
X77223000Y-70357401D01*
X80800000Y-71278401D02*
X80088000Y-71278401D01*
X80983000Y-71038401D02*
X80088000Y-71038401D01*
X81253000Y-70437401D02*
X80088000Y-70437401D01*
X78408000Y-69877401D02*
X77168000Y-69877401D01*
X81099000Y-70838401D02*
X80088000Y-70838401D01*
X78408000Y-70958401D02*
X77463000Y-70958401D01*
X78408000Y-71078401D02*
X77540000Y-71078401D01*
X81202000Y-70598401D02*
X80088000Y-70598401D01*
X80644000Y-71438401D02*
X80088000Y-71438401D01*
X81298000Y-70237401D02*
X80088000Y-70237401D01*
X80726000Y-71358401D02*
X80088000Y-71358401D01*
X81188000Y-70638401D02*
X80088000Y-70638401D01*
X78408000Y-71118401D02*
X77568000Y-71118401D01*
X79785000Y-71918401D02*
X78711000Y-71918401D01*
X78408000Y-69957401D02*
X77169000Y-69957401D01*
X81368000Y-69877401D02*
G75*
G03*
X81368000Y-69877401I-2120000J0D01*
G01*
%TO.C,U3*%
X82467000Y-73713000D02*
X82467000Y-73943000D01*
X79747000Y-75023000D02*
X79747000Y-73713000D01*
X82467000Y-78433000D02*
X82467000Y-78203000D01*
X83607000Y-78203000D02*
X82467000Y-78203000D01*
X82467000Y-78433000D02*
X79747000Y-78433000D01*
X79747000Y-73713000D02*
X82467000Y-73713000D01*
X79747000Y-78433000D02*
X79747000Y-77123000D01*
%TO.C,SW1*%
X54619000Y-68835000D02*
X54619000Y-73335000D01*
X58469000Y-67955000D02*
X56969000Y-67955000D01*
X60859000Y-73295000D02*
X60859000Y-68795000D01*
X56969000Y-74145000D02*
X58469000Y-74145000D01*
%TO.C,C2*%
X86723400Y-71013001D02*
X85828400Y-71013001D01*
X84148400Y-70853001D02*
X83158400Y-70853001D01*
X84148400Y-70452001D02*
X82994400Y-70452001D01*
X84148400Y-70573001D02*
X83034400Y-70573001D01*
X84148400Y-71213001D02*
X83401400Y-71213001D01*
X86970400Y-70492001D02*
X85828400Y-70492001D01*
X87067400Y-69932001D02*
X85828400Y-69932001D01*
X86773400Y-70933001D02*
X85828400Y-70933001D01*
X86668400Y-71093001D02*
X85828400Y-71093001D01*
X87013400Y-70332001D02*
X85828400Y-70332001D01*
X87068400Y-69852001D02*
X85828400Y-69852001D01*
X86001400Y-71693001D02*
X83975400Y-71693001D01*
X86540400Y-71253001D02*
X85828400Y-71253001D01*
X84148400Y-69972001D02*
X82911400Y-69972001D01*
X84148400Y-70693001D02*
X83081400Y-70693001D01*
X84148400Y-69852001D02*
X82908400Y-69852001D01*
X84148400Y-70733001D02*
X83099400Y-70733001D01*
X86292400Y-71493001D02*
X83684400Y-71493001D01*
X84148400Y-70372001D02*
X82972400Y-70372001D01*
X86638400Y-71133001D02*
X85828400Y-71133001D01*
X85847400Y-71773001D02*
X84129400Y-71773001D01*
X84148400Y-70653001D02*
X83064400Y-70653001D01*
X84148400Y-70492001D02*
X83006400Y-70492001D01*
X86956400Y-70532001D02*
X85828400Y-70532001D01*
X84148400Y-71133001D02*
X83338400Y-71133001D01*
X86575400Y-71213001D02*
X85828400Y-71213001D01*
X87068400Y-69892001D02*
X85828400Y-69892001D01*
X84148400Y-70052001D02*
X82917400Y-70052001D01*
X86942400Y-70573001D02*
X85828400Y-70573001D01*
X86877400Y-70733001D02*
X85828400Y-70733001D01*
X84148400Y-70773001D02*
X83118400Y-70773001D01*
X84148400Y-70332001D02*
X82963400Y-70332001D01*
X86912400Y-70653001D02*
X85828400Y-70653001D01*
X86607400Y-71173001D02*
X85828400Y-71173001D01*
X87055400Y-70092001D02*
X85828400Y-70092001D01*
X86982400Y-70452001D02*
X85828400Y-70452001D01*
X87022400Y-70292001D02*
X85828400Y-70292001D01*
X87038400Y-70212001D02*
X85828400Y-70212001D01*
X86384400Y-71413001D02*
X85828400Y-71413001D01*
X87030400Y-70252001D02*
X85828400Y-70252001D01*
X84148400Y-70813001D02*
X83137400Y-70813001D01*
X84148400Y-71333001D02*
X83510400Y-71333001D01*
X86504400Y-71293001D02*
X85828400Y-71293001D01*
X84148400Y-71013001D02*
X83253400Y-71013001D01*
X85928400Y-71733001D02*
X84048400Y-71733001D01*
X84148400Y-71093001D02*
X83308400Y-71093001D01*
X84148400Y-69932001D02*
X82909400Y-69932001D01*
X86130400Y-71613001D02*
X83846400Y-71613001D01*
X86796400Y-70893001D02*
X85828400Y-70893001D01*
X84148400Y-70292001D02*
X82954400Y-70292001D01*
X87004400Y-70372001D02*
X85828400Y-70372001D01*
X84148400Y-70172001D02*
X82932400Y-70172001D01*
X85652400Y-71853001D02*
X84324400Y-71853001D01*
X86818400Y-70853001D02*
X85828400Y-70853001D01*
X86993400Y-70412001D02*
X85828400Y-70412001D01*
X84148400Y-70933001D02*
X83203400Y-70933001D01*
X86188400Y-71573001D02*
X83788400Y-71573001D01*
X87065400Y-69972001D02*
X85828400Y-69972001D01*
X86183400Y-67582200D02*
X86183400Y-67982200D01*
X86339400Y-71453001D02*
X83637400Y-71453001D01*
X84148400Y-71053001D02*
X83280400Y-71053001D01*
X86696400Y-71053001D02*
X85828400Y-71053001D01*
X86895400Y-70693001D02*
X85828400Y-70693001D01*
X84148400Y-70252001D02*
X82946400Y-70252001D01*
X86242400Y-71533001D02*
X83734400Y-71533001D01*
X87062400Y-70012001D02*
X85828400Y-70012001D01*
X84148400Y-70532001D02*
X83020400Y-70532001D01*
X84148400Y-70893001D02*
X83180400Y-70893001D01*
X86839400Y-70813001D02*
X85828400Y-70813001D01*
X84148400Y-70212001D02*
X82938400Y-70212001D01*
X84148400Y-70613001D02*
X83048400Y-70613001D01*
X84148400Y-71373001D02*
X83550400Y-71373001D01*
X86426400Y-71373001D02*
X85828400Y-71373001D01*
X85756400Y-71813001D02*
X84220400Y-71813001D01*
X84148400Y-71173001D02*
X83369400Y-71173001D01*
X86928400Y-70613001D02*
X85828400Y-70613001D01*
X87059400Y-70052001D02*
X85828400Y-70052001D01*
X86748400Y-70973001D02*
X85828400Y-70973001D01*
X85358400Y-71933001D02*
X84618400Y-71933001D01*
X84148400Y-70412001D02*
X82983400Y-70412001D01*
X87050400Y-70132001D02*
X85828400Y-70132001D01*
X85525400Y-71893001D02*
X84451400Y-71893001D01*
X84148400Y-69892001D02*
X82908400Y-69892001D01*
X86383400Y-67782200D02*
X85983400Y-67782200D01*
X84148400Y-71253001D02*
X83436400Y-71253001D01*
X84148400Y-70092001D02*
X82921400Y-70092001D01*
X84148400Y-70973001D02*
X83228400Y-70973001D01*
X86858400Y-70773001D02*
X85828400Y-70773001D01*
X86068400Y-71653001D02*
X83908400Y-71653001D01*
X84148400Y-71293001D02*
X83472400Y-71293001D01*
X84148400Y-70012001D02*
X82914400Y-70012001D01*
X86466400Y-71333001D02*
X85828400Y-71333001D01*
X84148400Y-71413001D02*
X83592400Y-71413001D01*
X84148400Y-70132001D02*
X82926400Y-70132001D01*
X87044400Y-70172001D02*
X85828400Y-70172001D01*
X87108400Y-69852001D02*
G75*
G03*
X87108400Y-69852001I-2120000J0D01*
G01*
%TO.C,R2*%
X77121000Y-83539000D02*
X83661000Y-83539000D01*
X83661000Y-80799000D02*
X77121000Y-80799000D01*
X84431000Y-82169000D02*
X83661000Y-82169000D01*
X77121000Y-80799000D02*
X77121000Y-83539000D01*
X76351000Y-82169000D02*
X77121000Y-82169000D01*
X83661000Y-83539000D02*
X83661000Y-80799000D01*
%TD*%
D21*
%TO.C,U2*%
X64516000Y-76263302D03*
X67056000Y-76263302D03*
X64516000Y-78803302D03*
X67056000Y-78803302D03*
X64516000Y-81343302D03*
X67056000Y-81343302D03*
D22*
X64516000Y-83883302D03*
D21*
X67056000Y-83883302D03*
%TD*%
M02*
