M48
; DRILL file {KiCad (6.0.0)} date Sun Apr 24 16:42:00 2022
; FORMAT={-:-/ absolute / inch / decimal}
; #@! TF.CreationDate,2022-04-24T16:42:00-07:00
; #@! TF.GenerationSoftware,Kicad,Pcbnew,(6.0.0)
; #@! TF.FileFunction,Plated,1,2,PTH
FMAT,2
INCH
; #@! TA.AperFunction,Plated,PTH,ViaDrill
T1C0.0079
; #@! TA.AperFunction,Plated,PTH,ViaDrill
T2C0.0157
; #@! TA.AperFunction,Plated,PTH,ComponentDrill
T3C0.0217
; #@! TA.AperFunction,Plated,PTH,ComponentDrill
T4C0.0236
; #@! TA.AperFunction,Plated,PTH,ComponentDrill
T5C0.0295
; #@! TA.AperFunction,Plated,PTH,ComponentDrill
T6C0.0300
; #@! TA.AperFunction,Plated,PTH,ComponentDrill
T7C0.0315
; #@! TA.AperFunction,Plated,PTH,ComponentDrill
T8C0.0394
; #@! TA.AperFunction,Plated,PTH,ComponentDrill
T9C0.0400
; #@! TA.AperFunction,Plated,PTH,ComponentDrill
T10C0.0433
; #@! TA.AperFunction,Plated,PTH,ComponentDrill
T11C0.0472
; #@! TA.AperFunction,Plated,PTH,ComponentDrill
T12C0.0984
; #@! TA.AperFunction,Plated,PTH,ComponentDrill
T13C0.2000
%
G90
G05
T1
X0.919Y-2.778
X0.919Y-3.295
X0.964Y-1.748
X0.964Y-2.095
X0.965Y-0.627
X0.965Y-1.31
X0.966Y-2.477
X1.15Y-2.264
X1.151Y-0.914
X1.271Y-1.528
X1.463Y-1.234
X1.464Y-1.999
X1.826Y-1.492
X1.826Y-1.716
X1.868Y-3.295
X1.878Y-2.779
X2.266Y-3.197
X2.269Y-3.279
X2.414Y-3.278
X2.423Y-3.134
X2.423Y-3.189
X2.432Y-3.339
X2.517Y-1.614
X2.714Y-3.386
X2.806Y-3.265
X2.813Y-3.327
X3.04Y-3.06
X3.135Y-2.995
X3.165Y-2.995
X3.193Y-1.49
X3.195Y-1.716
X3.21Y-2.84
X3.27Y-3.06
X3.28Y-2.9359
X3.422Y-1.232
X3.422Y-2.001
X3.693Y-0.913
X3.694Y-2.266
X3.698Y-2.474
X3.701Y-1.309
X3.701Y-1.747
X3.705Y-2.095
T2
X3.015Y-3.411
T3
X3.6432Y-2.8378
X3.6432Y-2.8878
X3.6432Y-2.9378
T4
X3.12Y-2.7216
X3.12Y-2.7806
X3.346Y-2.7206
X3.346Y-2.7796
T5
X2.825Y-3.01
X2.875Y-3.01
X2.925Y-3.01
T6
X0.7364Y-0.9475
X0.7396Y-1.9672
X4.0578Y-0.954
X4.0578Y-2.079
T7
X2.9619Y-3.36
X2.965Y-3.235
X3.3619Y-3.36
X3.365Y-3.235
T8
X0.8567Y-2.9316
X0.8567Y-3.1284
X2.0142Y-2.7269
X2.0142Y-3.3331
X2.2192Y-3.0646
X2.2192Y-3.1646
X2.2192Y-3.2646
X2.2192Y-3.3646
X2.3192Y-3.0646
X2.3192Y-3.1646
X2.3192Y-3.2646
X2.3192Y-3.3646
T9
X2.54Y-3.0025
X2.54Y-3.1025
X2.54Y-3.2025
X2.54Y-3.3025
X2.64Y-3.0025
X2.64Y-3.1025
X2.64Y-3.2025
X2.64Y-3.3025
T10
X2.185Y-2.675
X2.185Y-2.925
X2.358Y-2.675
X2.358Y-2.925
T11
X3.91Y-2.7344
X3.91Y-2.8722
X3.91Y-3.01
T12
X0.6038Y-0.6
X0.605Y-3.325
X4.085Y-0.6
X4.085Y-3.325
T13
X0.9438Y-1.525
X3.9038Y-1.525
T0
M30
