%TF.GenerationSoftware,KiCad,Pcbnew,(6.0.0)*%
%TF.CreationDate,2022-04-24T16:41:59-07:00*%
%TF.ProjectId,Attic_Fan_Controller,41747469-635f-4466-916e-5f436f6e7472,rev?*%
%TF.SameCoordinates,Original*%
%TF.FileFunction,Copper,L2,Bot*%
%TF.FilePolarity,Positive*%
%FSLAX46Y46*%
G04 Gerber Fmt 4.6, Leading zero omitted, Abs format (unit mm)*
G04 Created by KiCad (PCBNEW (6.0.0)) date 2022-04-24 16:41:59*
%MOMM*%
%LPD*%
G01*
G04 APERTURE LIST*
%ADD10C,0.750000*%
%TA.AperFunction,NonConductor*%
%ADD11C,0.750000*%
%TD*%
%TA.AperFunction,ComponentPad*%
%ADD12R,2.300000X2.000000*%
%TD*%
%TA.AperFunction,ComponentPad*%
%ADD13C,2.300000*%
%TD*%
%TA.AperFunction,ComponentPad*%
%ADD14O,1.727200X1.727200*%
%TD*%
%TA.AperFunction,ComponentPad*%
%ADD15R,1.727200X1.727200*%
%TD*%
%TA.AperFunction,ComponentPad*%
%ADD16C,1.600000*%
%TD*%
%TA.AperFunction,ComponentPad*%
%ADD17O,1.600000X1.600000*%
%TD*%
%TA.AperFunction,ComponentPad*%
%ADD18R,1.500000X1.000000*%
%TD*%
%TA.AperFunction,ComponentPad*%
%ADD19O,1.500000X1.000000*%
%TD*%
%TA.AperFunction,ConnectorPad*%
%ADD20C,5.000000*%
%TD*%
%TA.AperFunction,ComponentPad*%
%ADD21C,2.900000*%
%TD*%
%TA.AperFunction,ComponentPad*%
%ADD22C,1.524000*%
%TD*%
%TA.AperFunction,ComponentPad*%
%ADD23C,7.620000*%
%TD*%
%TA.AperFunction,ComponentPad*%
%ADD24R,1.050000X1.500000*%
%TD*%
%TA.AperFunction,ComponentPad*%
%ADD25O,1.050000X1.500000*%
%TD*%
%TA.AperFunction,ComponentPad*%
%ADD26R,2.400000X2.400000*%
%TD*%
%TA.AperFunction,ComponentPad*%
%ADD27C,2.400000*%
%TD*%
%TA.AperFunction,ComponentPad*%
%ADD28O,1.700000X1.700000*%
%TD*%
%TA.AperFunction,ComponentPad*%
%ADD29R,1.700000X1.700000*%
%TD*%
%TA.AperFunction,ComponentPad*%
%ADD30R,1.200000X1.200000*%
%TD*%
%TA.AperFunction,ComponentPad*%
%ADD31C,1.200000*%
%TD*%
%TA.AperFunction,ComponentPad*%
%ADD32C,2.000000*%
%TD*%
%TA.AperFunction,ViaPad*%
%ADD33C,0.400000*%
%TD*%
%TA.AperFunction,ViaPad*%
%ADD34C,0.800000*%
%TD*%
%TA.AperFunction,Conductor*%
%ADD35C,0.400000*%
%TD*%
%TA.AperFunction,Conductor*%
%ADD36C,0.254000*%
%TD*%
G04 APERTURE END LIST*
D10*
D11*
X81101160Y-21802142D02*
X80726160Y-18802142D01*
X80904732Y-20230714D02*
X79190446Y-20230714D01*
X79386875Y-21802142D02*
X79011875Y-18802142D01*
X76672589Y-21802142D02*
X76476160Y-20230714D01*
X76583303Y-19945000D01*
X76851160Y-19802142D01*
X77422589Y-19802142D01*
X77726160Y-19945000D01*
X76654732Y-21659285D02*
X76958303Y-21802142D01*
X77672589Y-21802142D01*
X77940446Y-21659285D01*
X78047589Y-21373571D01*
X78011875Y-21087857D01*
X77833303Y-20802142D01*
X77529732Y-20659285D01*
X76815446Y-20659285D01*
X76511875Y-20516428D01*
X74994017Y-19802142D02*
X75369017Y-22802142D01*
X75011875Y-19945000D02*
X74708303Y-19802142D01*
X74136875Y-19802142D01*
X73869017Y-19945000D01*
X73744017Y-20087857D01*
X73636875Y-20373571D01*
X73744017Y-21230714D01*
X73922589Y-21516428D01*
X74083303Y-21659285D01*
X74386875Y-21802142D01*
X74958303Y-21802142D01*
X75226160Y-21659285D01*
X72279732Y-19802142D02*
X72654732Y-22802142D01*
X72297589Y-19945000D02*
X71994017Y-19802142D01*
X71422589Y-19802142D01*
X71154732Y-19945000D01*
X71029732Y-20087857D01*
X70922589Y-20373571D01*
X71029732Y-21230714D01*
X71208303Y-21516428D01*
X71369017Y-21659285D01*
X71672589Y-21802142D01*
X72244017Y-21802142D01*
X72511875Y-21659285D01*
X69851160Y-19802142D02*
X69386875Y-21802142D01*
X68422589Y-19802142D02*
X69386875Y-21802142D01*
X69761875Y-22516428D01*
X69922589Y-22659285D01*
X70226160Y-22802142D01*
X64047589Y-20230714D02*
X63636875Y-20373571D01*
X63511875Y-20516428D01*
X63404732Y-20802142D01*
X63458303Y-21230714D01*
X63636875Y-21516428D01*
X63797589Y-21659285D01*
X64101160Y-21802142D01*
X65244017Y-21802142D01*
X64869017Y-18802142D01*
X63869017Y-18802142D01*
X63601160Y-18945000D01*
X63476160Y-19087857D01*
X63369017Y-19373571D01*
X63404732Y-19659285D01*
X63583303Y-19945000D01*
X63744017Y-20087857D01*
X64047589Y-20230714D01*
X65047589Y-20230714D01*
X62244017Y-21802142D02*
X61994017Y-19802142D01*
X61869017Y-18802142D02*
X62029732Y-18945000D01*
X61904732Y-19087857D01*
X61744017Y-18945000D01*
X61869017Y-18802142D01*
X61904732Y-19087857D01*
X60815446Y-21802142D02*
X60565446Y-19802142D01*
X60636875Y-20373571D02*
X60458303Y-20087857D01*
X60297589Y-19945000D01*
X59994017Y-19802142D01*
X59708303Y-19802142D01*
X59136875Y-19802142D02*
X57994017Y-19802142D01*
X58583303Y-18802142D02*
X58904732Y-21373571D01*
X58797589Y-21659285D01*
X58529732Y-21802142D01*
X58244017Y-21802142D01*
X57244017Y-21802142D02*
X56869017Y-18802142D01*
X55958303Y-21802142D02*
X55761875Y-20230714D01*
X55869017Y-19945000D01*
X56136875Y-19802142D01*
X56565446Y-19802142D01*
X56869017Y-19945000D01*
X57029732Y-20087857D01*
X53244017Y-21802142D02*
X52869017Y-18802142D01*
X53226160Y-21659285D02*
X53529732Y-21802142D01*
X54101160Y-21802142D01*
X54369017Y-21659285D01*
X54494017Y-21516428D01*
X54601160Y-21230714D01*
X54494017Y-20373571D01*
X54315446Y-20087857D01*
X54154732Y-19945000D01*
X53851160Y-19802142D01*
X53279732Y-19802142D01*
X53011875Y-19945000D01*
X50529732Y-21802142D02*
X50333303Y-20230714D01*
X50440446Y-19945000D01*
X50708303Y-19802142D01*
X51279732Y-19802142D01*
X51583303Y-19945000D01*
X50511875Y-21659285D02*
X50815446Y-21802142D01*
X51529732Y-21802142D01*
X51797589Y-21659285D01*
X51904732Y-21373571D01*
X51869017Y-21087857D01*
X51690446Y-20802142D01*
X51386875Y-20659285D01*
X50672589Y-20659285D01*
X50369017Y-20516428D01*
X49136875Y-19802142D02*
X48672589Y-21802142D01*
X47708303Y-19802142D02*
X48672589Y-21802142D01*
X49047589Y-22516428D01*
X49208303Y-22659285D01*
X49511875Y-22802142D01*
X43297589Y-18802142D02*
X43565446Y-20945000D01*
X43761875Y-21373571D01*
X44083303Y-21659285D01*
X44529732Y-21802142D01*
X44815446Y-21802142D01*
X41011875Y-18802142D02*
X41279732Y-20945000D01*
X41476160Y-21373571D01*
X41797589Y-21659285D01*
X42244017Y-21802142D01*
X42529732Y-21802142D01*
X82029732Y-26632142D02*
X83458303Y-26632142D01*
X83083303Y-23632142D01*
X80601160Y-26632142D02*
X80869017Y-26489285D01*
X80994017Y-26346428D01*
X81101160Y-26060714D01*
X80994017Y-25203571D01*
X80815446Y-24917857D01*
X80654732Y-24775000D01*
X80351160Y-24632142D01*
X79922589Y-24632142D01*
X79654732Y-24775000D01*
X79529732Y-24917857D01*
X79422589Y-25203571D01*
X79529732Y-26060714D01*
X79708303Y-26346428D01*
X79869017Y-26489285D01*
X80172589Y-26632142D01*
X80601160Y-26632142D01*
X78351160Y-24632142D02*
X77886875Y-26632142D01*
X76922589Y-24632142D01*
X74869017Y-26489285D02*
X75172589Y-26632142D01*
X75744017Y-26632142D01*
X76011875Y-26489285D01*
X76119017Y-26203571D01*
X75976160Y-25060714D01*
X75797589Y-24775000D01*
X75494017Y-24632142D01*
X74922589Y-24632142D01*
X74654732Y-24775000D01*
X74547589Y-25060714D01*
X74583303Y-25346428D01*
X76047589Y-25632142D01*
X71172589Y-26632142D02*
X70797589Y-23632142D01*
X70083303Y-23632142D01*
X69672589Y-23775000D01*
X69422589Y-24060714D01*
X69315446Y-24346428D01*
X69244017Y-24917857D01*
X69297589Y-25346428D01*
X69511875Y-25917857D01*
X69690446Y-26203571D01*
X70011875Y-26489285D01*
X70458303Y-26632142D01*
X71172589Y-26632142D01*
X66886875Y-26632142D02*
X66690446Y-25060714D01*
X66797589Y-24775000D01*
X67065446Y-24632142D01*
X67636875Y-24632142D01*
X67940446Y-24775000D01*
X66869017Y-26489285D02*
X67172589Y-26632142D01*
X67886875Y-26632142D01*
X68154732Y-26489285D01*
X68261875Y-26203571D01*
X68226160Y-25917857D01*
X68047589Y-25632142D01*
X67744017Y-25489285D01*
X67029732Y-25489285D01*
X66726160Y-25346428D01*
X64172589Y-26632142D02*
X63797589Y-23632142D01*
X64154732Y-26489285D02*
X64458303Y-26632142D01*
X65029732Y-26632142D01*
X65297589Y-26489285D01*
X65422589Y-26346428D01*
X65529732Y-26060714D01*
X65422589Y-25203571D01*
X65244017Y-24917857D01*
X65083303Y-24775000D01*
X64779732Y-24632142D01*
X64208303Y-24632142D01*
X63940446Y-24775000D01*
X60261875Y-23917857D02*
X60101160Y-23775000D01*
X59797589Y-23632142D01*
X59083303Y-23632142D01*
X58815446Y-23775000D01*
X58690446Y-23917857D01*
X58583303Y-24203571D01*
X58619017Y-24489285D01*
X58815446Y-24917857D01*
X60744017Y-26632142D01*
X58886875Y-26632142D01*
X56654732Y-23632142D02*
X56369017Y-23632142D01*
X56101160Y-23775000D01*
X55976160Y-23917857D01*
X55869017Y-24203571D01*
X55797589Y-24775000D01*
X55886875Y-25489285D01*
X56101160Y-26060714D01*
X56279732Y-26346428D01*
X56440446Y-26489285D01*
X56744017Y-26632142D01*
X57029732Y-26632142D01*
X57297589Y-26489285D01*
X57422589Y-26346428D01*
X57529732Y-26060714D01*
X57601160Y-25489285D01*
X57511875Y-24775000D01*
X57297589Y-24203571D01*
X57119017Y-23917857D01*
X56958303Y-23775000D01*
X56654732Y-23632142D01*
X54547589Y-23917857D02*
X54386875Y-23775000D01*
X54083303Y-23632142D01*
X53369017Y-23632142D01*
X53101160Y-23775000D01*
X52976160Y-23917857D01*
X52869017Y-24203571D01*
X52904732Y-24489285D01*
X53101160Y-24917857D01*
X55029732Y-26632142D01*
X53172589Y-26632142D01*
X51690446Y-23917857D02*
X51529732Y-23775000D01*
X51226160Y-23632142D01*
X50511875Y-23632142D01*
X50244017Y-23775000D01*
X50119017Y-23917857D01*
X50011875Y-24203571D01*
X50047589Y-24489285D01*
X50244017Y-24917857D01*
X52172589Y-26632142D01*
X50315446Y-26632142D01*
X48083303Y-23632142D02*
X47797589Y-23632142D01*
X47529732Y-23775000D01*
X47404732Y-23917857D01*
X47297589Y-24203571D01*
X47226160Y-24775000D01*
X47315446Y-25489285D01*
X47529732Y-26060714D01*
X47708303Y-26346428D01*
X47869017Y-26489285D01*
X48172589Y-26632142D01*
X48458303Y-26632142D01*
X48726160Y-26489285D01*
X48851160Y-26346428D01*
X48958303Y-26060714D01*
X49029732Y-25489285D01*
X48940446Y-24775000D01*
X48726160Y-24203571D01*
X48547589Y-23917857D01*
X48386875Y-23775000D01*
X48083303Y-23632142D01*
X44636875Y-24632142D02*
X44886875Y-26632142D01*
X45208303Y-23489285D02*
X46190446Y-25632142D01*
X44333303Y-25632142D01*
X41744017Y-26632142D02*
X43458303Y-26632142D01*
X42601160Y-26632142D02*
X42226160Y-23632142D01*
X42565446Y-24060714D01*
X42886875Y-24346428D01*
X43190446Y-24489285D01*
X38654732Y-23632142D02*
X40083303Y-23632142D01*
X40404732Y-25060714D01*
X40244017Y-24917857D01*
X39940446Y-24775000D01*
X39226160Y-24775000D01*
X38958303Y-24917857D01*
X38833303Y-25060714D01*
X38726160Y-25346428D01*
X38815446Y-26060714D01*
X38994017Y-26346428D01*
X39154732Y-26489285D01*
X39458303Y-26632142D01*
X40172589Y-26632142D01*
X40440446Y-26489285D01*
X40565446Y-26346428D01*
D12*
%TO.P,PS1,1,AC/L*%
%TO.N,Net-(PS1-Pad1)*%
X21759500Y-74462000D03*
D13*
%TO.P,PS1,2,AC/N*%
%TO.N,Net-(PS1-Pad2)*%
X21759500Y-79462000D03*
%TO.P,PS1,3,-Vout*%
%TO.N,GND*%
X51159500Y-69262000D03*
%TO.P,PS1,4,+Vout*%
%TO.N,+5VD*%
X51159500Y-84662000D03*
%TD*%
D14*
%TO.P,U2,1,UTXD*%
%TO.N,/TX GPIO1*%
X64516000Y-76263302D03*
%TO.P,U2,2,GND*%
%TO.N,GND*%
X67056000Y-76263302D03*
%TO.P,U2,3,CH_PD*%
%TO.N,+3V3*%
X64516000Y-78803302D03*
%TO.P,U2,4,GPIO2*%
%TO.N,/GPIO2*%
X67056000Y-78803302D03*
%TO.P,U2,5,RST*%
%TO.N,/RST*%
X64516000Y-81343302D03*
%TO.P,U2,6,GPIO0*%
%TO.N,/GPIO0*%
X67056000Y-81343302D03*
D15*
%TO.P,U2,7,VCC*%
%TO.N,+3V3*%
X64516000Y-83883302D03*
D14*
%TO.P,U2,8,URXD*%
%TO.N,/RX GPIO3*%
X67056000Y-83883302D03*
%TD*%
D16*
%TO.P,R1,1*%
%TO.N,+3V3*%
X75231000Y-85344000D03*
D17*
%TO.P,R1,2*%
%TO.N,/GPIO0*%
X85391000Y-85344000D03*
%TD*%
D18*
%TO.P,U1,1,GND*%
%TO.N,GND*%
X92536538Y-74620350D03*
D19*
%TO.P,U1,2,DQ*%
%TO.N,/GPIO0*%
X92536538Y-73350350D03*
%TO.P,U1,3,VDD*%
%TO.N,+3V3*%
X92536538Y-72080350D03*
%TD*%
D20*
%TO.P,2.5mm,1*%
%TO.N,N/C*%
X103759000Y-84455000D03*
D21*
X103759000Y-84455000D03*
%TD*%
D22*
%TO.P,RLY1,4,-*%
%TO.N,Net-(Q1-Pad1)*%
X103068100Y-52806600D03*
%TO.P,RLY1,3,+*%
%TO.N,+5VD*%
X103068100Y-24231600D03*
%TO.P,RLY1,2,~~*%
%TO.N,Net-(PS1-Pad2)*%
X18705187Y-24066000D03*
%TO.P,RLY1,1,~~*%
%TO.N,Net-(PS1-Pad1)*%
X18785749Y-49966000D03*
D23*
%TO.P,RLY1,0,Mount*%
%TO.N,GND*%
X99156500Y-38735000D03*
X23972500Y-38735000D03*
%TD*%
D24*
%TO.P,Q1,1,C*%
%TO.N,Net-(Q1-Pad1)*%
X74295000Y-76454000D03*
D25*
%TO.P,Q1,2,B*%
%TO.N,Net-(Q1-Pad2)*%
X73025000Y-76454000D03*
%TO.P,Q1,3,E*%
%TO.N,GND*%
X71755000Y-76454000D03*
%TD*%
D26*
%TO.P,J1,1,Pin_1*%
%TO.N,GND*%
X99314000Y-76454000D03*
D27*
%TO.P,J1,2,Pin_2*%
%TO.N,/GPIO0*%
X99314000Y-72954000D03*
%TO.P,J1,3,Pin_3*%
%TO.N,+3V3*%
X99314000Y-69454000D03*
%TD*%
D28*
%TO.P,J2,1,Pin_1*%
%TO.N,/TX GPIO1*%
X56368000Y-77841000D03*
%TO.P,J2,2,Pin_2*%
%TO.N,GND*%
X58908000Y-77841000D03*
%TO.P,J2,3,Pin_3*%
%TO.N,+3V3*%
X56368000Y-80381000D03*
%TO.P,J2,4,Pin_4*%
%TO.N,/GPIO2*%
X58908000Y-80381000D03*
%TO.P,J2,5,Pin_5*%
%TO.N,/RST*%
X56368000Y-82921000D03*
%TO.P,J2,6,Pin_6*%
%TO.N,/GPIO0*%
X58908000Y-82921000D03*
D29*
%TO.P,J2,7,Pin_7*%
%TO.N,+3V3*%
X56368000Y-85461000D03*
D28*
%TO.P,J2,8,Pin_8*%
%TO.N,/RX GPIO3*%
X58908000Y-85461000D03*
%TD*%
D30*
%TO.P,C1,1*%
%TO.N,+5VD*%
X79248000Y-69127401D03*
D31*
%TO.P,C1,2*%
%TO.N,GND*%
X79248000Y-70627401D03*
%TD*%
D20*
%TO.P,2.5mm,1*%
%TO.N,N/C*%
X103759000Y-15240000D03*
D21*
X103759000Y-15240000D03*
%TD*%
%TO.P,2.5mm,1*%
%TO.N,N/C*%
X15336350Y-15240000D03*
D20*
X15336350Y-15240000D03*
%TD*%
D32*
%TO.P,SW1,1,1*%
%TO.N,/RST*%
X55499000Y-74295000D03*
X55499000Y-67945000D03*
%TO.P,SW1,2,2*%
%TO.N,GND*%
X59893200Y-74295000D03*
X59893200Y-67945000D03*
%TD*%
D30*
%TO.P,C2,1*%
%TO.N,+3V3*%
X84988400Y-69102001D03*
D31*
%TO.P,C2,2*%
%TO.N,GND*%
X84988400Y-70602001D03*
%TD*%
D21*
%TO.P,2.5mm,1*%
%TO.N,N/C*%
X15367000Y-84455000D03*
D20*
X15367000Y-84455000D03*
%TD*%
D16*
%TO.P,R2,1*%
%TO.N,/GPIO2*%
X75311000Y-82169000D03*
D17*
%TO.P,R2,2*%
%TO.N,Net-(Q1-Pad2)*%
X85471000Y-82169000D03*
%TD*%
D33*
%TO.N,+5VD*%
X79629000Y-76073000D03*
%TO.N,GND*%
X81534000Y-72136000D03*
%TO.N,+5VD*%
X80391000Y-76073000D03*
%TO.N,GND*%
X77216000Y-77724000D03*
X83058000Y-77724000D03*
%TO.N,+3V3*%
X83312000Y-74573000D03*
%TO.N,GND*%
X61772800Y-84810600D03*
X23342600Y-70561200D03*
X24511000Y-15925800D03*
X47447200Y-83693000D03*
X24511000Y-33274000D03*
X37185600Y-50774600D03*
X94005400Y-44373800D03*
X86918800Y-31292800D03*
X81153000Y-43586400D03*
X29210000Y-57505600D03*
X81102200Y-37846000D03*
X47701200Y-70586600D03*
X93929200Y-62839600D03*
X61544200Y-79603600D03*
X93802200Y-23190200D03*
X68935600Y-86004400D03*
X32283400Y-38811200D03*
X46380400Y-43586400D03*
X93827600Y-57556400D03*
X24485600Y-44399200D03*
X71272400Y-82931000D03*
X23342600Y-83693000D03*
X24485600Y-53213000D03*
X61315600Y-83261200D03*
X46380400Y-37896800D03*
X57632600Y-83286600D03*
X71450200Y-84505800D03*
X61544200Y-81000600D03*
X94107000Y-53213000D03*
X24536400Y-62915800D03*
X86918800Y-50825400D03*
X29235400Y-23215600D03*
X57556400Y-81203800D03*
X37160200Y-31343600D03*
X94005400Y-33248600D03*
X63931800Y-40995600D03*
D34*
%TO.N,+3V3*%
X76581000Y-86639400D03*
%TD*%
D35*
%TO.N,+5VD*%
X78105000Y-76073000D02*
X79629000Y-76073000D01*
X75438000Y-73406000D02*
X78105000Y-76073000D01*
X75438000Y-71628000D02*
X75438000Y-73406000D01*
X79629000Y-76073000D02*
X80391000Y-76073000D01*
D36*
X104394000Y-66040000D02*
X104394000Y-25557500D01*
X103886000Y-66548000D02*
X104394000Y-66040000D01*
X104394000Y-25557500D02*
X103068100Y-24231600D01*
X83058000Y-66548000D02*
X103886000Y-66548000D01*
X79248000Y-69127401D02*
X80478599Y-69127401D01*
X80478599Y-69127401D02*
X83058000Y-66548000D01*
D35*
X78141799Y-69127401D02*
X79248000Y-69127401D01*
X75793600Y-71475600D02*
X78141799Y-69127401D01*
X75463400Y-71475600D02*
X75793600Y-71475600D01*
D36*
%TO.N,+3V3*%
X84074000Y-85598000D02*
X84074000Y-75335000D01*
X83032600Y-86639400D02*
X84074000Y-85598000D01*
X76581000Y-86639400D02*
X83032600Y-86639400D01*
X84074000Y-75335000D02*
X83312000Y-74573000D01*
D35*
%TO.N,+5VD*%
X52984400Y-71475600D02*
X75463400Y-71475600D01*
X51159500Y-84662000D02*
X51159500Y-73300500D01*
X51159500Y-73300500D02*
X52984400Y-71475600D01*
D36*
%TO.N,Net-(PS1-Pad1)*%
X17780000Y-70482500D02*
X17780000Y-50971749D01*
X21759500Y-74462000D02*
X17780000Y-70482500D01*
X17780000Y-50971749D02*
X18785749Y-49966000D01*
%TO.N,Net-(PS1-Pad2)*%
X21759500Y-79439750D02*
X21759500Y-79462000D01*
X16002000Y-73682250D02*
X21759500Y-79439750D01*
X16002000Y-26769187D02*
X16002000Y-73682250D01*
X18705187Y-24066000D02*
X16002000Y-26769187D01*
D35*
%TO.N,+5VD*%
X75463400Y-71475600D02*
X73228200Y-71475600D01*
D36*
%TO.N,/RST*%
X54499000Y-81052000D02*
X56368000Y-82921000D01*
X55499000Y-74295000D02*
X54499000Y-75295000D01*
X54499000Y-75295000D02*
X54499000Y-81052000D01*
%TD*%
%TA.AperFunction,Conductor*%
%TO.N,GND*%
G36*
X103117263Y-12339002D02*
G01*
X103163756Y-12392658D01*
X103173860Y-12462932D01*
X103144366Y-12527512D01*
X103085876Y-12565526D01*
X102797103Y-12653538D01*
X102493341Y-12787830D01*
X102207911Y-12957642D01*
X101944950Y-13160515D01*
X101942249Y-13163174D01*
X101942242Y-13163180D01*
X101710974Y-13390845D01*
X101708266Y-13393511D01*
X101501287Y-13653253D01*
X101327012Y-13935980D01*
X101187965Y-14237596D01*
X101086161Y-14553732D01*
X101023073Y-14879808D01*
X101022806Y-14883584D01*
X101022805Y-14883589D01*
X100999884Y-15207314D01*
X100999616Y-15211103D01*
X101016130Y-15542816D01*
X101016771Y-15546547D01*
X101016772Y-15546555D01*
X101030909Y-15628822D01*
X101072375Y-15870142D01*
X101167537Y-16188341D01*
X101169050Y-16191812D01*
X101169052Y-16191818D01*
X101229407Y-16330295D01*
X101300236Y-16492803D01*
X101302159Y-16496074D01*
X101302161Y-16496078D01*
X101466629Y-16775847D01*
X101466634Y-16775855D01*
X101468552Y-16779117D01*
X101670046Y-17043137D01*
X101672694Y-17045856D01*
X101672699Y-17045861D01*
X101899152Y-17278322D01*
X101901798Y-17281038D01*
X101904742Y-17283409D01*
X101904745Y-17283412D01*
X101975810Y-17340652D01*
X102160453Y-17489374D01*
X102442264Y-17665127D01*
X102743147Y-17805751D01*
X103058746Y-17909209D01*
X103384488Y-17974003D01*
X103388261Y-17974290D01*
X103388268Y-17974291D01*
X103711878Y-17998908D01*
X103711883Y-17998908D01*
X103715655Y-17999195D01*
X104047450Y-17984418D01*
X104375067Y-17929888D01*
X104378701Y-17928822D01*
X104378705Y-17928821D01*
X104520975Y-17887083D01*
X104693759Y-17836393D01*
X104998912Y-17705290D01*
X105286103Y-17538475D01*
X105551175Y-17338367D01*
X105790286Y-17107863D01*
X105840764Y-17045861D01*
X105997582Y-16853239D01*
X105997583Y-16853238D01*
X105999973Y-16850302D01*
X106001995Y-16847098D01*
X106175176Y-16572623D01*
X106175179Y-16572617D01*
X106177199Y-16569416D01*
X106313133Y-16282495D01*
X106360375Y-16229498D01*
X106428769Y-16210454D01*
X106496603Y-16231411D01*
X106542337Y-16285714D01*
X106553000Y-16336442D01*
X106553000Y-83364766D01*
X106532998Y-83432887D01*
X106479342Y-83479380D01*
X106409068Y-83489484D01*
X106344488Y-83459990D01*
X106312028Y-83416316D01*
X106310946Y-83413902D01*
X106204510Y-83176518D01*
X106033205Y-82891982D01*
X106030878Y-82888998D01*
X106030873Y-82888991D01*
X105831294Y-82633082D01*
X105831292Y-82633079D01*
X105828958Y-82630087D01*
X105594726Y-82394626D01*
X105573865Y-82378180D01*
X105336885Y-82191360D01*
X105333904Y-82189010D01*
X105050269Y-82016218D01*
X104915225Y-81954817D01*
X104751381Y-81880321D01*
X104751373Y-81880318D01*
X104747929Y-81878752D01*
X104431264Y-81778604D01*
X104258828Y-81746178D01*
X104108585Y-81717925D01*
X104108580Y-81717924D01*
X104104861Y-81717225D01*
X103773449Y-81695503D01*
X103769669Y-81695711D01*
X103769668Y-81695711D01*
X103674655Y-81700940D01*
X103441827Y-81713753D01*
X103438100Y-81714414D01*
X103438096Y-81714414D01*
X103258869Y-81746178D01*
X103114799Y-81771711D01*
X103111174Y-81772816D01*
X103111169Y-81772817D01*
X102864671Y-81847945D01*
X102797103Y-81868538D01*
X102493341Y-82002830D01*
X102376133Y-82072561D01*
X102219896Y-82165512D01*
X102207911Y-82172642D01*
X102204910Y-82174957D01*
X102204906Y-82174960D01*
X102042537Y-82300227D01*
X101944950Y-82375515D01*
X101942249Y-82378174D01*
X101942242Y-82378180D01*
X101716933Y-82599979D01*
X101708266Y-82608511D01*
X101705902Y-82611478D01*
X101705899Y-82611481D01*
X101518594Y-82846534D01*
X101501287Y-82868253D01*
X101327012Y-83150980D01*
X101187965Y-83452596D01*
X101086161Y-83768732D01*
X101085442Y-83772448D01*
X101085440Y-83772456D01*
X101023792Y-84091090D01*
X101023073Y-84094808D01*
X101022806Y-84098584D01*
X101022805Y-84098589D01*
X101000004Y-84420623D01*
X100999616Y-84426103D01*
X101003364Y-84501380D01*
X101015837Y-84751924D01*
X101016130Y-84757816D01*
X101016771Y-84761547D01*
X101016772Y-84761555D01*
X101068654Y-85063487D01*
X101072375Y-85085142D01*
X101073463Y-85088781D01*
X101073464Y-85088784D01*
X101134431Y-85292641D01*
X101167537Y-85403341D01*
X101169050Y-85406812D01*
X101169052Y-85406818D01*
X101208574Y-85497495D01*
X101300236Y-85707803D01*
X101302159Y-85711074D01*
X101302161Y-85711078D01*
X101466629Y-85990847D01*
X101466634Y-85990855D01*
X101468552Y-85994117D01*
X101470853Y-85997132D01*
X101663097Y-86249031D01*
X101670046Y-86258137D01*
X101672694Y-86260856D01*
X101672699Y-86260861D01*
X101877904Y-86471510D01*
X101901798Y-86496038D01*
X101904742Y-86498409D01*
X101904745Y-86498412D01*
X101991743Y-86568485D01*
X102160453Y-86704374D01*
X102442264Y-86880127D01*
X102714222Y-87007232D01*
X102717688Y-87008852D01*
X102770932Y-87055815D01*
X102790333Y-87124110D01*
X102769732Y-87192051D01*
X102715669Y-87238070D01*
X102664338Y-87249000D01*
X83197968Y-87249000D01*
X83129847Y-87228998D01*
X83083354Y-87175342D01*
X83073250Y-87105068D01*
X83102744Y-87040488D01*
X83143356Y-87009450D01*
X83143566Y-87009349D01*
X83150315Y-87006582D01*
X83157883Y-87005322D01*
X83203251Y-86980842D01*
X83208514Y-86978161D01*
X83247850Y-86959273D01*
X83247854Y-86959270D01*
X83254998Y-86955840D01*
X83259292Y-86952230D01*
X83261224Y-86950298D01*
X83263173Y-86948511D01*
X83263226Y-86948482D01*
X83263345Y-86948612D01*
X83263913Y-86948111D01*
X83269657Y-86945012D01*
X83306467Y-86905191D01*
X83309896Y-86901626D01*
X84305480Y-85906042D01*
X84326224Y-85889288D01*
X84330675Y-85886414D01*
X84398750Y-85866269D01*
X84466913Y-85886127D01*
X84499529Y-85918633D01*
X84500334Y-85917995D01*
X84628786Y-86080061D01*
X84633479Y-86084055D01*
X84633480Y-86084056D01*
X84773700Y-86203392D01*
X84786271Y-86214091D01*
X84966789Y-86314980D01*
X85163466Y-86378884D01*
X85368809Y-86403370D01*
X85374944Y-86402898D01*
X85374946Y-86402898D01*
X85568856Y-86387977D01*
X85568860Y-86387976D01*
X85574998Y-86387504D01*
X85774178Y-86331892D01*
X85779682Y-86329112D01*
X85779684Y-86329111D01*
X85953262Y-86241431D01*
X85953264Y-86241430D01*
X85958763Y-86238652D01*
X86121722Y-86111334D01*
X86125748Y-86106670D01*
X86125751Y-86106667D01*
X86252819Y-85959457D01*
X86252820Y-85959455D01*
X86256848Y-85954789D01*
X86335441Y-85816442D01*
X86355950Y-85780340D01*
X86355952Y-85780336D01*
X86358995Y-85774979D01*
X86424270Y-85578753D01*
X86450189Y-85373586D01*
X86450602Y-85344000D01*
X86430422Y-85138189D01*
X86370651Y-84940217D01*
X86314189Y-84834028D01*
X86276459Y-84763067D01*
X86276457Y-84763064D01*
X86273565Y-84757625D01*
X86269674Y-84752855D01*
X86269672Y-84752851D01*
X86146758Y-84602143D01*
X86146755Y-84602140D01*
X86142863Y-84597368D01*
X86136523Y-84592123D01*
X85988271Y-84469478D01*
X85988266Y-84469475D01*
X85983522Y-84465550D01*
X85978103Y-84462620D01*
X85978100Y-84462618D01*
X85807032Y-84370122D01*
X85807027Y-84370120D01*
X85801612Y-84367192D01*
X85604063Y-84306040D01*
X85597938Y-84305396D01*
X85597937Y-84305396D01*
X85404526Y-84285068D01*
X85404524Y-84285068D01*
X85398397Y-84284424D01*
X85272229Y-84295906D01*
X85198591Y-84302607D01*
X85198590Y-84302607D01*
X85192450Y-84303166D01*
X84994066Y-84361554D01*
X84988601Y-84364411D01*
X84816261Y-84454508D01*
X84816257Y-84454511D01*
X84810801Y-84457363D01*
X84806001Y-84461223D01*
X84806000Y-84461223D01*
X84660452Y-84578246D01*
X84594829Y-84605342D01*
X84524975Y-84592659D01*
X84473067Y-84544222D01*
X84455500Y-84480049D01*
X84455500Y-82947316D01*
X84475502Y-82879195D01*
X84529158Y-82832702D01*
X84599432Y-82822598D01*
X84664012Y-82852092D01*
X84680244Y-82869050D01*
X84688285Y-82879195D01*
X84704958Y-82900232D01*
X84704961Y-82900235D01*
X84708786Y-82905061D01*
X84713479Y-82909055D01*
X84713480Y-82909056D01*
X84821309Y-83000825D01*
X84866271Y-83039091D01*
X85046789Y-83139980D01*
X85243466Y-83203884D01*
X85448809Y-83228370D01*
X85454944Y-83227898D01*
X85454946Y-83227898D01*
X85648856Y-83212977D01*
X85648860Y-83212976D01*
X85654998Y-83212504D01*
X85854178Y-83156892D01*
X85859682Y-83154112D01*
X85859684Y-83154111D01*
X86033262Y-83066431D01*
X86033264Y-83066430D01*
X86038763Y-83063652D01*
X86201722Y-82936334D01*
X86205748Y-82931670D01*
X86205751Y-82931667D01*
X86332819Y-82784457D01*
X86332820Y-82784455D01*
X86336848Y-82779789D01*
X86420190Y-82633082D01*
X86435950Y-82605340D01*
X86435952Y-82605336D01*
X86438995Y-82599979D01*
X86475114Y-82491399D01*
X86502325Y-82409601D01*
X86502326Y-82409598D01*
X86504270Y-82403753D01*
X86530189Y-82198586D01*
X86530602Y-82169000D01*
X86510422Y-81963189D01*
X86450651Y-81765217D01*
X86402108Y-81673921D01*
X86356459Y-81588067D01*
X86356457Y-81588064D01*
X86353565Y-81582625D01*
X86349674Y-81577855D01*
X86349672Y-81577851D01*
X86226758Y-81427143D01*
X86226755Y-81427140D01*
X86222863Y-81422368D01*
X86215966Y-81416662D01*
X86068271Y-81294478D01*
X86068266Y-81294475D01*
X86063522Y-81290550D01*
X86058103Y-81287620D01*
X86058100Y-81287618D01*
X85887032Y-81195122D01*
X85887027Y-81195120D01*
X85881612Y-81192192D01*
X85684063Y-81131040D01*
X85677938Y-81130396D01*
X85677937Y-81130396D01*
X85484526Y-81110068D01*
X85484524Y-81110068D01*
X85478397Y-81109424D01*
X85352229Y-81120906D01*
X85278591Y-81127607D01*
X85278590Y-81127607D01*
X85272450Y-81128166D01*
X85074066Y-81186554D01*
X85068601Y-81189411D01*
X84896261Y-81279508D01*
X84896257Y-81279511D01*
X84890801Y-81282363D01*
X84886001Y-81286223D01*
X84886000Y-81286223D01*
X84879495Y-81291453D01*
X84729635Y-81411943D01*
X84716881Y-81427143D01*
X84678022Y-81473453D01*
X84618912Y-81512780D01*
X84547924Y-81513906D01*
X84487597Y-81476475D01*
X84457083Y-81412370D01*
X84455500Y-81392462D01*
X84455500Y-77698669D01*
X97606001Y-77698669D01*
X97606371Y-77705490D01*
X97611895Y-77756352D01*
X97615521Y-77771604D01*
X97660676Y-77892054D01*
X97669214Y-77907649D01*
X97745715Y-78009724D01*
X97758276Y-78022285D01*
X97860351Y-78098786D01*
X97875946Y-78107324D01*
X97996394Y-78152478D01*
X98011649Y-78156105D01*
X98062514Y-78161631D01*
X98069328Y-78162000D01*
X99041885Y-78162000D01*
X99057124Y-78157525D01*
X99058329Y-78156135D01*
X99060000Y-78148452D01*
X99060000Y-78143884D01*
X99568000Y-78143884D01*
X99572475Y-78159123D01*
X99573865Y-78160328D01*
X99581548Y-78161999D01*
X100558669Y-78161999D01*
X100565490Y-78161629D01*
X100616352Y-78156105D01*
X100631604Y-78152479D01*
X100752054Y-78107324D01*
X100767649Y-78098786D01*
X100869724Y-78022285D01*
X100882285Y-78009724D01*
X100958786Y-77907649D01*
X100967324Y-77892054D01*
X101012478Y-77771606D01*
X101016105Y-77756351D01*
X101021631Y-77705486D01*
X101022000Y-77698672D01*
X101022000Y-76726115D01*
X101017525Y-76710876D01*
X101016135Y-76709671D01*
X101008452Y-76708000D01*
X99586115Y-76708000D01*
X99570876Y-76712475D01*
X99569671Y-76713865D01*
X99568000Y-76721548D01*
X99568000Y-78143884D01*
X99060000Y-78143884D01*
X99060000Y-76726115D01*
X99055525Y-76710876D01*
X99054135Y-76709671D01*
X99046452Y-76708000D01*
X97624116Y-76708000D01*
X97608877Y-76712475D01*
X97607672Y-76713865D01*
X97606001Y-76721548D01*
X97606001Y-77698669D01*
X84455500Y-77698669D01*
X84455500Y-76181885D01*
X97606000Y-76181885D01*
X97610475Y-76197124D01*
X97611865Y-76198329D01*
X97619548Y-76200000D01*
X99041885Y-76200000D01*
X99057124Y-76195525D01*
X99058329Y-76194135D01*
X99060000Y-76186452D01*
X99060000Y-76181885D01*
X99568000Y-76181885D01*
X99572475Y-76197124D01*
X99573865Y-76198329D01*
X99581548Y-76200000D01*
X101003884Y-76200000D01*
X101019123Y-76195525D01*
X101020328Y-76194135D01*
X101021999Y-76186452D01*
X101021999Y-75209331D01*
X101021629Y-75202510D01*
X101016105Y-75151648D01*
X101012479Y-75136396D01*
X100967324Y-75015946D01*
X100958786Y-75000351D01*
X100882285Y-74898276D01*
X100869724Y-74885715D01*
X100767649Y-74809214D01*
X100752054Y-74800676D01*
X100631606Y-74755522D01*
X100616351Y-74751895D01*
X100565486Y-74746369D01*
X100558672Y-74746000D01*
X99586115Y-74746000D01*
X99570876Y-74750475D01*
X99569671Y-74751865D01*
X99568000Y-74759548D01*
X99568000Y-76181885D01*
X99060000Y-76181885D01*
X99060000Y-74764116D01*
X99055525Y-74748877D01*
X99054135Y-74747672D01*
X99046452Y-74746001D01*
X98069331Y-74746001D01*
X98062510Y-74746371D01*
X98011648Y-74751895D01*
X97996396Y-74755521D01*
X97875946Y-74800676D01*
X97860351Y-74809214D01*
X97758276Y-74885715D01*
X97745715Y-74898276D01*
X97669214Y-75000351D01*
X97660676Y-75015946D01*
X97615522Y-75136394D01*
X97611895Y-75151649D01*
X97606369Y-75202514D01*
X97606000Y-75209328D01*
X97606000Y-76181885D01*
X84455500Y-76181885D01*
X84455500Y-75389140D01*
X84458087Y-75364824D01*
X84458154Y-75363401D01*
X84460346Y-75353220D01*
X84456373Y-75319652D01*
X84456021Y-75313678D01*
X84455928Y-75313686D01*
X84455500Y-75308508D01*
X84455500Y-75303308D01*
X84454646Y-75298176D01*
X84452314Y-75284165D01*
X84451477Y-75278286D01*
X84446642Y-75237433D01*
X84446642Y-75237432D01*
X84445418Y-75227093D01*
X84441433Y-75218794D01*
X84439922Y-75209717D01*
X84415804Y-75165019D01*
X91278539Y-75165019D01*
X91278909Y-75171840D01*
X91284433Y-75222702D01*
X91288059Y-75237954D01*
X91333214Y-75358404D01*
X91341752Y-75373999D01*
X91418253Y-75476074D01*
X91430814Y-75488635D01*
X91532889Y-75565136D01*
X91548484Y-75573674D01*
X91668932Y-75618828D01*
X91684187Y-75622455D01*
X91735052Y-75627981D01*
X91741866Y-75628350D01*
X92264423Y-75628350D01*
X92279662Y-75623875D01*
X92280867Y-75622485D01*
X92282538Y-75614802D01*
X92282538Y-75610234D01*
X92790538Y-75610234D01*
X92795013Y-75625473D01*
X92796403Y-75626678D01*
X92804086Y-75628349D01*
X93331207Y-75628349D01*
X93338028Y-75627979D01*
X93388890Y-75622455D01*
X93404142Y-75618829D01*
X93524592Y-75573674D01*
X93540187Y-75565136D01*
X93642262Y-75488635D01*
X93654823Y-75476074D01*
X93731324Y-75373999D01*
X93739862Y-75358404D01*
X93785016Y-75237956D01*
X93788643Y-75222701D01*
X93794169Y-75171836D01*
X93794538Y-75165022D01*
X93794538Y-74892465D01*
X93790063Y-74877226D01*
X93788673Y-74876021D01*
X93780990Y-74874350D01*
X92808653Y-74874350D01*
X92793414Y-74878825D01*
X92792209Y-74880215D01*
X92790538Y-74887898D01*
X92790538Y-75610234D01*
X92282538Y-75610234D01*
X92282538Y-74892465D01*
X92278063Y-74877226D01*
X92276673Y-74876021D01*
X92268990Y-74874350D01*
X91296654Y-74874350D01*
X91281415Y-74878825D01*
X91280210Y-74880215D01*
X91278539Y-74887898D01*
X91278539Y-75165019D01*
X84415804Y-75165019D01*
X84415442Y-75164349D01*
X84412761Y-75159086D01*
X84393869Y-75119743D01*
X84390440Y-75112602D01*
X84386831Y-75108308D01*
X84384905Y-75106382D01*
X84383109Y-75104424D01*
X84383079Y-75104367D01*
X84383208Y-75104249D01*
X84382710Y-75103684D01*
X84379612Y-75097943D01*
X84339804Y-75061145D01*
X84336239Y-75057716D01*
X83786066Y-74507543D01*
X83754226Y-74453813D01*
X83753990Y-74453005D01*
X83752718Y-74444125D01*
X83737806Y-74411327D01*
X83709119Y-74348235D01*
X91278538Y-74348235D01*
X91283013Y-74363474D01*
X91284403Y-74364679D01*
X91292086Y-74366350D01*
X93776422Y-74366350D01*
X93791661Y-74361875D01*
X93792866Y-74360485D01*
X93794537Y-74352802D01*
X93794537Y-74075681D01*
X93794167Y-74068860D01*
X93788643Y-74017998D01*
X93785017Y-74002746D01*
X93739862Y-73882296D01*
X93731324Y-73866701D01*
X93654823Y-73764626D01*
X93642263Y-73752066D01*
X93558811Y-73689523D01*
X93516295Y-73632664D01*
X93511269Y-73561845D01*
X93513785Y-73552173D01*
X93532046Y-73491880D01*
X93532048Y-73491871D01*
X93534168Y-73484870D01*
X93545062Y-73309270D01*
X93542333Y-73293384D01*
X93516507Y-73143088D01*
X93516506Y-73143086D01*
X93515267Y-73135873D01*
X93446382Y-72973982D01*
X93405436Y-72918342D01*
X97854951Y-72918342D01*
X97855248Y-72923494D01*
X97855248Y-72923498D01*
X97857819Y-72968089D01*
X97868719Y-73157121D01*
X97869856Y-73162167D01*
X97869857Y-73162173D01*
X97898401Y-73288832D01*
X97921301Y-73390446D01*
X98011284Y-73612049D01*
X98013989Y-73616464D01*
X98013990Y-73616465D01*
X98056919Y-73686518D01*
X98136254Y-73815980D01*
X98292852Y-73996762D01*
X98476874Y-74149540D01*
X98481326Y-74152142D01*
X98481331Y-74152145D01*
X98609401Y-74226983D01*
X98683377Y-74270211D01*
X98906817Y-74355534D01*
X98911883Y-74356565D01*
X98911884Y-74356565D01*
X98931152Y-74360485D01*
X99141191Y-74403218D01*
X99275499Y-74408143D01*
X99375043Y-74411794D01*
X99375048Y-74411794D01*
X99380207Y-74411983D01*
X99385327Y-74411327D01*
X99385329Y-74411327D01*
X99612316Y-74382249D01*
X99612317Y-74382249D01*
X99617444Y-74381592D01*
X99622394Y-74380107D01*
X99841577Y-74314349D01*
X99841582Y-74314347D01*
X99846532Y-74312862D01*
X100061319Y-74207639D01*
X100065524Y-74204639D01*
X100065530Y-74204636D01*
X100251832Y-74071748D01*
X100251834Y-74071746D01*
X100256036Y-74068749D01*
X100425454Y-73899921D01*
X100565023Y-73705690D01*
X100569026Y-73697592D01*
X100668701Y-73495914D01*
X100668702Y-73495912D01*
X100670995Y-73491272D01*
X100735635Y-73278516D01*
X100739022Y-73267369D01*
X100739022Y-73267368D01*
X100740524Y-73262425D01*
X100746521Y-73216876D01*
X100771306Y-73028617D01*
X100771306Y-73028613D01*
X100771743Y-73025296D01*
X100773485Y-72954000D01*
X100753887Y-72715628D01*
X100695620Y-72483658D01*
X100600249Y-72264319D01*
X100470335Y-72063502D01*
X100448286Y-72039270D01*
X100312844Y-71890422D01*
X100312842Y-71890421D01*
X100309366Y-71886600D01*
X100305315Y-71883401D01*
X100305311Y-71883397D01*
X100125725Y-71741569D01*
X100121667Y-71738364D01*
X99982539Y-71661561D01*
X99916808Y-71625275D01*
X99916805Y-71625274D01*
X99912277Y-71622774D01*
X99686819Y-71542936D01*
X99638046Y-71534248D01*
X99456438Y-71501898D01*
X99456434Y-71501898D01*
X99451350Y-71500992D01*
X99367548Y-71499968D01*
X99217360Y-71498133D01*
X99217358Y-71498133D01*
X99212191Y-71498070D01*
X99053680Y-71522326D01*
X98980876Y-71533466D01*
X98980874Y-71533467D01*
X98975767Y-71534248D01*
X98909878Y-71555784D01*
X98753340Y-71606949D01*
X98753338Y-71606950D01*
X98748427Y-71608555D01*
X98716308Y-71625275D01*
X98548954Y-71712394D01*
X98536275Y-71718994D01*
X98532142Y-71722097D01*
X98532139Y-71722099D01*
X98349145Y-71859495D01*
X98345010Y-71862600D01*
X98179767Y-72035516D01*
X98176853Y-72039788D01*
X98176852Y-72039789D01*
X98163286Y-72059676D01*
X98044985Y-72233099D01*
X97944284Y-72450042D01*
X97880366Y-72680520D01*
X97879817Y-72685654D01*
X97879817Y-72685656D01*
X97876966Y-72712332D01*
X97854951Y-72918342D01*
X93405436Y-72918342D01*
X93342101Y-72832279D01*
X93316836Y-72810815D01*
X93277871Y-72751467D01*
X93277178Y-72680474D01*
X93306942Y-72628137D01*
X93389766Y-72540706D01*
X93394802Y-72535390D01*
X93483170Y-72383254D01*
X93534168Y-72214870D01*
X93545062Y-72039270D01*
X93530262Y-71953135D01*
X93516507Y-71873088D01*
X93516506Y-71873086D01*
X93515267Y-71865873D01*
X93446382Y-71703982D01*
X93342101Y-71562279D01*
X93208018Y-71448368D01*
X93115485Y-71401118D01*
X93057843Y-71371684D01*
X93057838Y-71371682D01*
X93051326Y-71368357D01*
X93044220Y-71366618D01*
X93044217Y-71366617D01*
X92950091Y-71343585D01*
X92880430Y-71326539D01*
X92874828Y-71326191D01*
X92874825Y-71326191D01*
X92871263Y-71325970D01*
X92871254Y-71325970D01*
X92869324Y-71325850D01*
X92242485Y-71325850D01*
X92150588Y-71336564D01*
X92119056Y-71340240D01*
X92119054Y-71340240D01*
X92111784Y-71341088D01*
X92104907Y-71343584D01*
X92104904Y-71343585D01*
X92036659Y-71368357D01*
X91946404Y-71401118D01*
X91940287Y-71405128D01*
X91940284Y-71405130D01*
X91879412Y-71445040D01*
X91799270Y-71497584D01*
X91678274Y-71625310D01*
X91589906Y-71777446D01*
X91538908Y-71945830D01*
X91528014Y-72121430D01*
X91529254Y-72128646D01*
X91529254Y-72128648D01*
X91556569Y-72287612D01*
X91557809Y-72294827D01*
X91626694Y-72456718D01*
X91730975Y-72598421D01*
X91736558Y-72603164D01*
X91756240Y-72619885D01*
X91795205Y-72679233D01*
X91795898Y-72750226D01*
X91766134Y-72802563D01*
X91678274Y-72895310D01*
X91589906Y-73047446D01*
X91538908Y-73215830D01*
X91528014Y-73391430D01*
X91529254Y-73398646D01*
X91529254Y-73398648D01*
X91557809Y-73564827D01*
X91556034Y-73565132D01*
X91556077Y-73626765D01*
X91517735Y-73686518D01*
X91510721Y-73692178D01*
X91430814Y-73752065D01*
X91418253Y-73764626D01*
X91341752Y-73866701D01*
X91333214Y-73882296D01*
X91288060Y-74002744D01*
X91284433Y-74017999D01*
X91278907Y-74068864D01*
X91278538Y-74075678D01*
X91278538Y-74348235D01*
X83709119Y-74348235D01*
X83702548Y-74333782D01*
X83702547Y-74333780D01*
X83698832Y-74325610D01*
X83613850Y-74226983D01*
X83504601Y-74156172D01*
X83379870Y-74118870D01*
X83370894Y-74118815D01*
X83370893Y-74118815D01*
X83317678Y-74118490D01*
X83249683Y-74118074D01*
X83124505Y-74153850D01*
X83014400Y-74223321D01*
X82928219Y-74320903D01*
X82924404Y-74329028D01*
X82924403Y-74329030D01*
X82889484Y-74403407D01*
X82872890Y-74438751D01*
X82871509Y-74447620D01*
X82862179Y-74507543D01*
X82852860Y-74567390D01*
X82854024Y-74576292D01*
X82854024Y-74576295D01*
X82868577Y-74687582D01*
X82869741Y-74696481D01*
X82922174Y-74815645D01*
X83005946Y-74915303D01*
X83013414Y-74920274D01*
X83013415Y-74920275D01*
X83106850Y-74982472D01*
X83106853Y-74982473D01*
X83114320Y-74987444D01*
X83187969Y-75010453D01*
X83190315Y-75011186D01*
X83241836Y-75042358D01*
X83655595Y-75456117D01*
X83689621Y-75518429D01*
X83692500Y-75545212D01*
X83692500Y-85387787D01*
X83672498Y-85455908D01*
X83655595Y-85476883D01*
X82911481Y-86220996D01*
X82849169Y-86255021D01*
X82822386Y-86257900D01*
X77179283Y-86257900D01*
X77111162Y-86237898D01*
X77084768Y-86215224D01*
X77079854Y-86209650D01*
X77075553Y-86203392D01*
X76957275Y-86098011D01*
X76949889Y-86094100D01*
X76848688Y-86040517D01*
X76817274Y-86023884D01*
X76663633Y-85985292D01*
X76656034Y-85985252D01*
X76656033Y-85985252D01*
X76590181Y-85984907D01*
X76505221Y-85984462D01*
X76497841Y-85986234D01*
X76497839Y-85986234D01*
X76358563Y-86019671D01*
X76358560Y-86019672D01*
X76351184Y-86021443D01*
X76344443Y-86024922D01*
X76344433Y-86024926D01*
X76314549Y-86040351D01*
X76244842Y-86053821D01*
X76178919Y-86027466D01*
X76137709Y-85969654D01*
X76134296Y-85898739D01*
X76147203Y-85866149D01*
X76195950Y-85780340D01*
X76195952Y-85780336D01*
X76198995Y-85774979D01*
X76264270Y-85578753D01*
X76290189Y-85373586D01*
X76290602Y-85344000D01*
X76270422Y-85138189D01*
X76210651Y-84940217D01*
X76154189Y-84834028D01*
X76116459Y-84763067D01*
X76116457Y-84763064D01*
X76113565Y-84757625D01*
X76109674Y-84752855D01*
X76109672Y-84752851D01*
X75986758Y-84602143D01*
X75986755Y-84602140D01*
X75982863Y-84597368D01*
X75976523Y-84592123D01*
X75828271Y-84469478D01*
X75828266Y-84469475D01*
X75823522Y-84465550D01*
X75818103Y-84462620D01*
X75818100Y-84462618D01*
X75647032Y-84370122D01*
X75647027Y-84370120D01*
X75641612Y-84367192D01*
X75444063Y-84306040D01*
X75437938Y-84305396D01*
X75437937Y-84305396D01*
X75244526Y-84285068D01*
X75244524Y-84285068D01*
X75238397Y-84284424D01*
X75112229Y-84295906D01*
X75038591Y-84302607D01*
X75038590Y-84302607D01*
X75032450Y-84303166D01*
X74834066Y-84361554D01*
X74828601Y-84364411D01*
X74656261Y-84454508D01*
X74656257Y-84454511D01*
X74650801Y-84457363D01*
X74646001Y-84461223D01*
X74646000Y-84461223D01*
X74622585Y-84480049D01*
X74489635Y-84586943D01*
X74356708Y-84745360D01*
X74257082Y-84926578D01*
X74194553Y-85123696D01*
X74193867Y-85129813D01*
X74193866Y-85129817D01*
X74172188Y-85323081D01*
X74171501Y-85329206D01*
X74172743Y-85344000D01*
X74182880Y-85464704D01*
X74188806Y-85535278D01*
X74245807Y-85734066D01*
X74248625Y-85739548D01*
X74248626Y-85739552D01*
X74337514Y-85912509D01*
X74337517Y-85912513D01*
X74340334Y-85917995D01*
X74468786Y-86080061D01*
X74473479Y-86084055D01*
X74473480Y-86084056D01*
X74613700Y-86203392D01*
X74626271Y-86214091D01*
X74806789Y-86314980D01*
X75003466Y-86378884D01*
X75208809Y-86403370D01*
X75214944Y-86402898D01*
X75214946Y-86402898D01*
X75408856Y-86387977D01*
X75408860Y-86387976D01*
X75414998Y-86387504D01*
X75614178Y-86331892D01*
X75619682Y-86329112D01*
X75619684Y-86329111D01*
X75798763Y-86238652D01*
X75800111Y-86241321D01*
X75855938Y-86225063D01*
X75924014Y-86245216D01*
X75970388Y-86298975D01*
X75980336Y-86369271D01*
X75973052Y-86396832D01*
X75945167Y-86468354D01*
X75945166Y-86468358D01*
X75942406Y-86475437D01*
X75941414Y-86482970D01*
X75941414Y-86482971D01*
X75931146Y-86560969D01*
X75921729Y-86632496D01*
X75922563Y-86640046D01*
X75935086Y-86753475D01*
X75939113Y-86789953D01*
X75941723Y-86797084D01*
X75941723Y-86797086D01*
X75980626Y-86903393D01*
X75993553Y-86938719D01*
X75997789Y-86945022D01*
X75997789Y-86945023D01*
X76070161Y-87052724D01*
X76091553Y-87120421D01*
X76072949Y-87188937D01*
X76020256Y-87236518D01*
X75965579Y-87249000D01*
X16454284Y-87249000D01*
X16386163Y-87228998D01*
X16339670Y-87175342D01*
X16329566Y-87105068D01*
X16359060Y-87040488D01*
X16404547Y-87007232D01*
X16412785Y-87003693D01*
X16606912Y-86920290D01*
X16894103Y-86753475D01*
X17159175Y-86553367D01*
X17398286Y-86322863D01*
X17401430Y-86319002D01*
X17605582Y-86068239D01*
X17605583Y-86068238D01*
X17607973Y-86065302D01*
X17623197Y-86041174D01*
X17783176Y-85787623D01*
X17783179Y-85787617D01*
X17785199Y-85784416D01*
X17927397Y-85484273D01*
X18032506Y-85169220D01*
X18099005Y-84843822D01*
X18116594Y-84627567D01*
X49750607Y-84627567D01*
X49750904Y-84632720D01*
X49750904Y-84632723D01*
X49763213Y-84846203D01*
X49763901Y-84858139D01*
X49765038Y-84863185D01*
X49765039Y-84863191D01*
X49785661Y-84954694D01*
X49814676Y-85083442D01*
X49901566Y-85297428D01*
X50022240Y-85494349D01*
X50025624Y-85498255D01*
X50025625Y-85498257D01*
X50057694Y-85535278D01*
X50173455Y-85668916D01*
X50351151Y-85816442D01*
X50355603Y-85819044D01*
X50355608Y-85819047D01*
X50466884Y-85884071D01*
X50550556Y-85932965D01*
X50766314Y-86015355D01*
X50771380Y-86016386D01*
X50771381Y-86016386D01*
X50796237Y-86021443D01*
X50992632Y-86061400D01*
X51122823Y-86066174D01*
X51218267Y-86069674D01*
X51218271Y-86069674D01*
X51223431Y-86069863D01*
X51228551Y-86069207D01*
X51228553Y-86069207D01*
X51299588Y-86060107D01*
X51452513Y-86040517D01*
X51457461Y-86039032D01*
X51457468Y-86039031D01*
X51668776Y-85975635D01*
X51668775Y-85975635D01*
X51673726Y-85974150D01*
X51881129Y-85872544D01*
X51885334Y-85869544D01*
X51885340Y-85869541D01*
X52064949Y-85741427D01*
X52064951Y-85741425D01*
X52069153Y-85738428D01*
X52232747Y-85575404D01*
X52249966Y-85551442D01*
X52364500Y-85392050D01*
X52367518Y-85387850D01*
X52376310Y-85370062D01*
X52417635Y-85286447D01*
X52469847Y-85180803D01*
X52497805Y-85088784D01*
X52535482Y-84964775D01*
X52535483Y-84964769D01*
X52536986Y-84959823D01*
X52563404Y-84759158D01*
X52566694Y-84734167D01*
X52566694Y-84734161D01*
X52567131Y-84730845D01*
X52568440Y-84677305D01*
X52568732Y-84665364D01*
X52568732Y-84665360D01*
X52568814Y-84662000D01*
X52562560Y-84585933D01*
X55263500Y-84585933D01*
X55263501Y-86336066D01*
X55278266Y-86410301D01*
X55285161Y-86420620D01*
X55285162Y-86420622D01*
X55325516Y-86481015D01*
X55334516Y-86494484D01*
X55418699Y-86550734D01*
X55492933Y-86565500D01*
X56367858Y-86565500D01*
X57243066Y-86565499D01*
X57278818Y-86558388D01*
X57305126Y-86553156D01*
X57305128Y-86553155D01*
X57317301Y-86550734D01*
X57327621Y-86543839D01*
X57327622Y-86543838D01*
X57391168Y-86501377D01*
X57401484Y-86494484D01*
X57457734Y-86410301D01*
X57472500Y-86336067D01*
X57472499Y-85431964D01*
X57799148Y-85431964D01*
X57812424Y-85634522D01*
X57813845Y-85640118D01*
X57813846Y-85640123D01*
X57849622Y-85780988D01*
X57862392Y-85831269D01*
X57864809Y-85836512D01*
X57909274Y-85932965D01*
X57947377Y-86015616D01*
X57974377Y-86053821D01*
X58003095Y-86094455D01*
X58064533Y-86181389D01*
X58209938Y-86323035D01*
X58378720Y-86435812D01*
X58384023Y-86438090D01*
X58384026Y-86438092D01*
X58531327Y-86501377D01*
X58565228Y-86515942D01*
X58638244Y-86532464D01*
X58757579Y-86559467D01*
X58757584Y-86559468D01*
X58763216Y-86560742D01*
X58768987Y-86560969D01*
X58768989Y-86560969D01*
X58828756Y-86563317D01*
X58966053Y-86568712D01*
X59066499Y-86554148D01*
X59161231Y-86540413D01*
X59161236Y-86540412D01*
X59166945Y-86539584D01*
X59172409Y-86537729D01*
X59172414Y-86537728D01*
X59353693Y-86476192D01*
X59353698Y-86476190D01*
X59359165Y-86474334D01*
X59536276Y-86375147D01*
X59543342Y-86369271D01*
X59677249Y-86257900D01*
X59692345Y-86245345D01*
X59800646Y-86115128D01*
X59818453Y-86093718D01*
X59818455Y-86093715D01*
X59822147Y-86089276D01*
X59908654Y-85934807D01*
X59918510Y-85917208D01*
X59918511Y-85917206D01*
X59921334Y-85912165D01*
X59923190Y-85906698D01*
X59923192Y-85906693D01*
X59984728Y-85725414D01*
X59984729Y-85725409D01*
X59986584Y-85719945D01*
X59987412Y-85714236D01*
X59987413Y-85714231D01*
X60006208Y-85584601D01*
X60015712Y-85519053D01*
X60017232Y-85461000D01*
X59998658Y-85258859D01*
X59997090Y-85253299D01*
X59945125Y-85069046D01*
X59945124Y-85069044D01*
X59943557Y-85063487D01*
X59932978Y-85042033D01*
X59856331Y-84886609D01*
X59853776Y-84881428D01*
X59732320Y-84718779D01*
X59583258Y-84580987D01*
X59578375Y-84577906D01*
X59578371Y-84577903D01*
X59416464Y-84475748D01*
X59411581Y-84472667D01*
X59223039Y-84397446D01*
X59217379Y-84396320D01*
X59217375Y-84396319D01*
X59029613Y-84358971D01*
X59029610Y-84358971D01*
X59023946Y-84357844D01*
X59018171Y-84357768D01*
X59018167Y-84357768D01*
X58916793Y-84356441D01*
X58820971Y-84355187D01*
X58815274Y-84356166D01*
X58815273Y-84356166D01*
X58727397Y-84371266D01*
X58620910Y-84389564D01*
X58430463Y-84459824D01*
X58256010Y-84563612D01*
X58251670Y-84567418D01*
X58251666Y-84567421D01*
X58122160Y-84680996D01*
X58103392Y-84697455D01*
X57977720Y-84856869D01*
X57975031Y-84861980D01*
X57975029Y-84861983D01*
X57937954Y-84932451D01*
X57883203Y-85036515D01*
X57823007Y-85230378D01*
X57799148Y-85431964D01*
X57472499Y-85431964D01*
X57472499Y-84585934D01*
X57457734Y-84511699D01*
X57431654Y-84472667D01*
X57408377Y-84437832D01*
X57401484Y-84427516D01*
X57317301Y-84371266D01*
X57243067Y-84356500D01*
X56368142Y-84356500D01*
X55492934Y-84356501D01*
X55457182Y-84363612D01*
X55430874Y-84368844D01*
X55430872Y-84368845D01*
X55418699Y-84371266D01*
X55408379Y-84378161D01*
X55408378Y-84378162D01*
X55347985Y-84418516D01*
X55334516Y-84427516D01*
X55278266Y-84511699D01*
X55263500Y-84585933D01*
X52562560Y-84585933D01*
X52549890Y-84431822D01*
X52493626Y-84207826D01*
X52401533Y-83996028D01*
X52305882Y-83848173D01*
X52278893Y-83806454D01*
X52278891Y-83806451D01*
X52276085Y-83802114D01*
X52120650Y-83631293D01*
X52022423Y-83553718D01*
X51943456Y-83491353D01*
X51943451Y-83491350D01*
X51939402Y-83488152D01*
X51934886Y-83485659D01*
X51934883Y-83485657D01*
X51741734Y-83379033D01*
X51741730Y-83379031D01*
X51737210Y-83376536D01*
X51732337Y-83374810D01*
X51732334Y-83374809D01*
X51697941Y-83362630D01*
X51640404Y-83321036D01*
X51614488Y-83254939D01*
X51614000Y-83243857D01*
X51614000Y-81033780D01*
X54112655Y-81033780D01*
X54113879Y-81044120D01*
X54116627Y-81067342D01*
X54116979Y-81073320D01*
X54117072Y-81073312D01*
X54117500Y-81078490D01*
X54117500Y-81083692D01*
X54120446Y-81101389D01*
X54120686Y-81102832D01*
X54121522Y-81108704D01*
X54123488Y-81125318D01*
X54124166Y-81131040D01*
X54127582Y-81159907D01*
X54131567Y-81168206D01*
X54133078Y-81177283D01*
X54157558Y-81222651D01*
X54160239Y-81227914D01*
X54179127Y-81267250D01*
X54179130Y-81267254D01*
X54182560Y-81274398D01*
X54186170Y-81278692D01*
X54188102Y-81280624D01*
X54189889Y-81282573D01*
X54189918Y-81282626D01*
X54189788Y-81282745D01*
X54190289Y-81283313D01*
X54193388Y-81289057D01*
X54201033Y-81296124D01*
X54233208Y-81325866D01*
X54236774Y-81329296D01*
X55303807Y-82396330D01*
X55337833Y-82458642D01*
X55335044Y-82522789D01*
X55284722Y-82684851D01*
X55284720Y-82684861D01*
X55283007Y-82690378D01*
X55259148Y-82891964D01*
X55272424Y-83094522D01*
X55273845Y-83100118D01*
X55273846Y-83100123D01*
X55306417Y-83228370D01*
X55322392Y-83291269D01*
X55324809Y-83296512D01*
X55404959Y-83470371D01*
X55407377Y-83475616D01*
X55416237Y-83488152D01*
X55501020Y-83608118D01*
X55524533Y-83641389D01*
X55528675Y-83645424D01*
X55557094Y-83673108D01*
X55669938Y-83783035D01*
X55838720Y-83895812D01*
X55844023Y-83898090D01*
X55844026Y-83898092D01*
X56019921Y-83973662D01*
X56025228Y-83975942D01*
X56094780Y-83991680D01*
X56217579Y-84019467D01*
X56217584Y-84019468D01*
X56223216Y-84020742D01*
X56228987Y-84020969D01*
X56228989Y-84020969D01*
X56288756Y-84023317D01*
X56426053Y-84028712D01*
X56526499Y-84014148D01*
X56621231Y-84000413D01*
X56621236Y-84000412D01*
X56626945Y-83999584D01*
X56632409Y-83997729D01*
X56632414Y-83997728D01*
X56813693Y-83936192D01*
X56813698Y-83936190D01*
X56819165Y-83934334D01*
X56996276Y-83835147D01*
X57030776Y-83806454D01*
X57147913Y-83709031D01*
X57152345Y-83705345D01*
X57216597Y-83628091D01*
X57278453Y-83553718D01*
X57278455Y-83553715D01*
X57282147Y-83549276D01*
X57381334Y-83372165D01*
X57383190Y-83366698D01*
X57383192Y-83366693D01*
X57444728Y-83185414D01*
X57444729Y-83185409D01*
X57446584Y-83179945D01*
X57447412Y-83174236D01*
X57447413Y-83174231D01*
X57472555Y-83000825D01*
X57475712Y-82979053D01*
X57477232Y-82921000D01*
X57474564Y-82891964D01*
X57799148Y-82891964D01*
X57812424Y-83094522D01*
X57813845Y-83100118D01*
X57813846Y-83100123D01*
X57846417Y-83228370D01*
X57862392Y-83291269D01*
X57864809Y-83296512D01*
X57944959Y-83470371D01*
X57947377Y-83475616D01*
X57956237Y-83488152D01*
X58041020Y-83608118D01*
X58064533Y-83641389D01*
X58068675Y-83645424D01*
X58097094Y-83673108D01*
X58209938Y-83783035D01*
X58378720Y-83895812D01*
X58384023Y-83898090D01*
X58384026Y-83898092D01*
X58559921Y-83973662D01*
X58565228Y-83975942D01*
X58634780Y-83991680D01*
X58757579Y-84019467D01*
X58757584Y-84019468D01*
X58763216Y-84020742D01*
X58768987Y-84020969D01*
X58768989Y-84020969D01*
X58828756Y-84023317D01*
X58966053Y-84028712D01*
X59066499Y-84014148D01*
X59161231Y-84000413D01*
X59161236Y-84000412D01*
X59166945Y-83999584D01*
X59172409Y-83997729D01*
X59172414Y-83997728D01*
X59353693Y-83936192D01*
X59353698Y-83936190D01*
X59359165Y-83934334D01*
X59536276Y-83835147D01*
X59570776Y-83806454D01*
X59687913Y-83709031D01*
X59692345Y-83705345D01*
X59756597Y-83628091D01*
X59818453Y-83553718D01*
X59818455Y-83553715D01*
X59822147Y-83549276D01*
X59921334Y-83372165D01*
X59923190Y-83366698D01*
X59923192Y-83366693D01*
X59984728Y-83185414D01*
X59984729Y-83185409D01*
X59986584Y-83179945D01*
X59987412Y-83174236D01*
X59987413Y-83174231D01*
X60012555Y-83000825D01*
X60013453Y-82994635D01*
X63397900Y-82994635D01*
X63397901Y-84771968D01*
X63412666Y-84846203D01*
X63468916Y-84930386D01*
X63553099Y-84986636D01*
X63627333Y-85001402D01*
X64515856Y-85001402D01*
X65404666Y-85001401D01*
X65440418Y-84994290D01*
X65466726Y-84989058D01*
X65466728Y-84989057D01*
X65478901Y-84986636D01*
X65489221Y-84979741D01*
X65489222Y-84979740D01*
X65552768Y-84937279D01*
X65563084Y-84930386D01*
X65619334Y-84846203D01*
X65634100Y-84771969D01*
X65634099Y-83853908D01*
X65933495Y-83853908D01*
X65946935Y-84058961D01*
X65997517Y-84258130D01*
X66083549Y-84444747D01*
X66202148Y-84612561D01*
X66349342Y-84755951D01*
X66354138Y-84759156D01*
X66354141Y-84759158D01*
X66432523Y-84811531D01*
X66520203Y-84870117D01*
X66525506Y-84872395D01*
X66525509Y-84872397D01*
X66703701Y-84948954D01*
X66709008Y-84951234D01*
X66909433Y-84996586D01*
X66915202Y-84996813D01*
X66915205Y-84996813D01*
X66992697Y-84999857D01*
X67114768Y-85004653D01*
X67222330Y-84989057D01*
X67312419Y-84975995D01*
X67312424Y-84975994D01*
X67318133Y-84975166D01*
X67323597Y-84973311D01*
X67323602Y-84973310D01*
X67507249Y-84910971D01*
X67507254Y-84910969D01*
X67512721Y-84909113D01*
X67692012Y-84808705D01*
X67850003Y-84677305D01*
X67981403Y-84519314D01*
X68048454Y-84399586D01*
X68078987Y-84345066D01*
X68078988Y-84345064D01*
X68081811Y-84340023D01*
X68083667Y-84334556D01*
X68083669Y-84334551D01*
X68146008Y-84150904D01*
X68146009Y-84150899D01*
X68147864Y-84145435D01*
X68154657Y-84098589D01*
X68168839Y-84000778D01*
X68177351Y-83942070D01*
X68178890Y-83883302D01*
X68160087Y-83678672D01*
X68139313Y-83605013D01*
X68105878Y-83486459D01*
X68105876Y-83486454D01*
X68104308Y-83480894D01*
X68013421Y-83296594D01*
X67922049Y-83174231D01*
X67893923Y-83136566D01*
X67893922Y-83136565D01*
X67890470Y-83131942D01*
X67739572Y-82992453D01*
X67644669Y-82932574D01*
X67570665Y-82885881D01*
X67570660Y-82885879D01*
X67565781Y-82882800D01*
X67374918Y-82806653D01*
X67173374Y-82766563D01*
X67167599Y-82766487D01*
X67167595Y-82766487D01*
X67066796Y-82765168D01*
X66967899Y-82763873D01*
X66765375Y-82798674D01*
X66759958Y-82800672D01*
X66759952Y-82800674D01*
X66663606Y-82836218D01*
X66572583Y-82869798D01*
X66506597Y-82909056D01*
X66400950Y-82971909D01*
X66400947Y-82971911D01*
X66395982Y-82974865D01*
X66322746Y-83039091D01*
X66253153Y-83100123D01*
X66241484Y-83110356D01*
X66237909Y-83114891D01*
X66237908Y-83114892D01*
X66127504Y-83254939D01*
X66114265Y-83271732D01*
X66018585Y-83453591D01*
X65957648Y-83649840D01*
X65933495Y-83853908D01*
X65634099Y-83853908D01*
X65634099Y-82994636D01*
X65619334Y-82920401D01*
X65611754Y-82909056D01*
X65569977Y-82846534D01*
X65563084Y-82836218D01*
X65506896Y-82798674D01*
X65489220Y-82786863D01*
X65478901Y-82779968D01*
X65404667Y-82765202D01*
X64516144Y-82765202D01*
X63627334Y-82765203D01*
X63591582Y-82772314D01*
X63565274Y-82777546D01*
X63565272Y-82777547D01*
X63553099Y-82779968D01*
X63542779Y-82786863D01*
X63542778Y-82786864D01*
X63482385Y-82827218D01*
X63468916Y-82836218D01*
X63412666Y-82920401D01*
X63397900Y-82994635D01*
X60013453Y-82994635D01*
X60015712Y-82979053D01*
X60017232Y-82921000D01*
X60003027Y-82766409D01*
X59999187Y-82724613D01*
X59999186Y-82724610D01*
X59998658Y-82718859D01*
X59997090Y-82713299D01*
X59945125Y-82529046D01*
X59945124Y-82529044D01*
X59943557Y-82523487D01*
X59932978Y-82502033D01*
X59856331Y-82346609D01*
X59853776Y-82341428D01*
X59732320Y-82178779D01*
X59583258Y-82040987D01*
X59578375Y-82037906D01*
X59578371Y-82037903D01*
X59416464Y-81935748D01*
X59411581Y-81932667D01*
X59223039Y-81857446D01*
X59217379Y-81856320D01*
X59217375Y-81856319D01*
X59029613Y-81818971D01*
X59029610Y-81818971D01*
X59023946Y-81817844D01*
X59018171Y-81817768D01*
X59018167Y-81817768D01*
X58916793Y-81816441D01*
X58820971Y-81815187D01*
X58815274Y-81816166D01*
X58815273Y-81816166D01*
X58626607Y-81848585D01*
X58620910Y-81849564D01*
X58430463Y-81919824D01*
X58256010Y-82023612D01*
X58251670Y-82027418D01*
X58251666Y-82027421D01*
X58122160Y-82140996D01*
X58103392Y-82157455D01*
X58099817Y-82161990D01*
X58099816Y-82161991D01*
X58089675Y-82174855D01*
X57977720Y-82316869D01*
X57975031Y-82321980D01*
X57975029Y-82321983D01*
X57945462Y-82378180D01*
X57883203Y-82496515D01*
X57823007Y-82690378D01*
X57799148Y-82891964D01*
X57474564Y-82891964D01*
X57463027Y-82766409D01*
X57459187Y-82724613D01*
X57459186Y-82724610D01*
X57458658Y-82718859D01*
X57457090Y-82713299D01*
X57405125Y-82529046D01*
X57405124Y-82529044D01*
X57403557Y-82523487D01*
X57392978Y-82502033D01*
X57316331Y-82346609D01*
X57313776Y-82341428D01*
X57192320Y-82178779D01*
X57043258Y-82040987D01*
X57038375Y-82037906D01*
X57038371Y-82037903D01*
X56876464Y-81935748D01*
X56871581Y-81932667D01*
X56683039Y-81857446D01*
X56677379Y-81856320D01*
X56677375Y-81856319D01*
X56489613Y-81818971D01*
X56489610Y-81818971D01*
X56483946Y-81817844D01*
X56478171Y-81817768D01*
X56478167Y-81817768D01*
X56376793Y-81816441D01*
X56280971Y-81815187D01*
X56275274Y-81816166D01*
X56275273Y-81816166D01*
X56086607Y-81848585D01*
X56080910Y-81849564D01*
X56032485Y-81867429D01*
X55977738Y-81887626D01*
X55906904Y-81892438D01*
X55845032Y-81858509D01*
X54917405Y-80930882D01*
X54883379Y-80868570D01*
X54880500Y-80841787D01*
X54880500Y-80351964D01*
X55259148Y-80351964D01*
X55272424Y-80554522D01*
X55273845Y-80560118D01*
X55273846Y-80560123D01*
X55294119Y-80639945D01*
X55322392Y-80751269D01*
X55324809Y-80756512D01*
X55362010Y-80837208D01*
X55407377Y-80935616D01*
X55410710Y-80940332D01*
X55515652Y-81088822D01*
X55524533Y-81101389D01*
X55528675Y-81105424D01*
X55551447Y-81127607D01*
X55669938Y-81243035D01*
X55674742Y-81246245D01*
X55741049Y-81290550D01*
X55838720Y-81355812D01*
X55844023Y-81358090D01*
X55844026Y-81358092D01*
X56004748Y-81427143D01*
X56025228Y-81435942D01*
X56098244Y-81452464D01*
X56217579Y-81479467D01*
X56217584Y-81479468D01*
X56223216Y-81480742D01*
X56228987Y-81480969D01*
X56228989Y-81480969D01*
X56288756Y-81483317D01*
X56426053Y-81488712D01*
X56526499Y-81474148D01*
X56621231Y-81460413D01*
X56621236Y-81460412D01*
X56626945Y-81459584D01*
X56632409Y-81457729D01*
X56632414Y-81457728D01*
X56813693Y-81396192D01*
X56813698Y-81396190D01*
X56819165Y-81394334D01*
X56996276Y-81295147D01*
X57001341Y-81290935D01*
X57147913Y-81169031D01*
X57152345Y-81165345D01*
X57215989Y-81088822D01*
X57278453Y-81013718D01*
X57278455Y-81013715D01*
X57282147Y-81009276D01*
X57360328Y-80869674D01*
X57378510Y-80837208D01*
X57378511Y-80837206D01*
X57381334Y-80832165D01*
X57383190Y-80826698D01*
X57383192Y-80826693D01*
X57444728Y-80645414D01*
X57444729Y-80645409D01*
X57446584Y-80639945D01*
X57447412Y-80634236D01*
X57447413Y-80634231D01*
X57475179Y-80442727D01*
X57475712Y-80439053D01*
X57477232Y-80381000D01*
X57458658Y-80178859D01*
X57457090Y-80173299D01*
X57405125Y-79989046D01*
X57405124Y-79989044D01*
X57403557Y-79983487D01*
X57399791Y-79975849D01*
X57316331Y-79806609D01*
X57313776Y-79801428D01*
X57192320Y-79638779D01*
X57043258Y-79500987D01*
X57038375Y-79497906D01*
X57038371Y-79497903D01*
X56876464Y-79395748D01*
X56871581Y-79392667D01*
X56683039Y-79317446D01*
X56677379Y-79316320D01*
X56677375Y-79316319D01*
X56489613Y-79278971D01*
X56489610Y-79278971D01*
X56483946Y-79277844D01*
X56478171Y-79277768D01*
X56478167Y-79277768D01*
X56376793Y-79276441D01*
X56280971Y-79275187D01*
X56275274Y-79276166D01*
X56275273Y-79276166D01*
X56086607Y-79308585D01*
X56080910Y-79309564D01*
X55890463Y-79379824D01*
X55716010Y-79483612D01*
X55711670Y-79487418D01*
X55711666Y-79487421D01*
X55582160Y-79600996D01*
X55563392Y-79617455D01*
X55437720Y-79776869D01*
X55435031Y-79781980D01*
X55435029Y-79781983D01*
X55422073Y-79806609D01*
X55343203Y-79956515D01*
X55283007Y-80150378D01*
X55259148Y-80351964D01*
X54880500Y-80351964D01*
X54880500Y-77811964D01*
X55259148Y-77811964D01*
X55272424Y-78014522D01*
X55273845Y-78020118D01*
X55273846Y-78020123D01*
X55310124Y-78162966D01*
X55322392Y-78211269D01*
X55324809Y-78216512D01*
X55362010Y-78297208D01*
X55407377Y-78395616D01*
X55524533Y-78561389D01*
X55528675Y-78565424D01*
X55557094Y-78593108D01*
X55669938Y-78703035D01*
X55838720Y-78815812D01*
X55844023Y-78818090D01*
X55844026Y-78818092D01*
X56019921Y-78893662D01*
X56025228Y-78895942D01*
X56098244Y-78912464D01*
X56217579Y-78939467D01*
X56217584Y-78939468D01*
X56223216Y-78940742D01*
X56228987Y-78940969D01*
X56228989Y-78940969D01*
X56288756Y-78943317D01*
X56426053Y-78948712D01*
X56526499Y-78934148D01*
X56621231Y-78920413D01*
X56621236Y-78920412D01*
X56626945Y-78919584D01*
X56632409Y-78917729D01*
X56632414Y-78917728D01*
X56813693Y-78856192D01*
X56813698Y-78856190D01*
X56819165Y-78854334D01*
X56996276Y-78755147D01*
X57058934Y-78703035D01*
X57123696Y-78649172D01*
X57152345Y-78625345D01*
X57282147Y-78469276D01*
X57381334Y-78292165D01*
X57383720Y-78285135D01*
X57384170Y-78284496D01*
X57385541Y-78281416D01*
X57386146Y-78281685D01*
X57424553Y-78227059D01*
X57490305Y-78200278D01*
X57560098Y-78213295D01*
X57611773Y-78261980D01*
X57619777Y-78278229D01*
X57689770Y-78450603D01*
X57694413Y-78459794D01*
X57805694Y-78641388D01*
X57811777Y-78649699D01*
X57951213Y-78810667D01*
X57958580Y-78817883D01*
X58122434Y-78953916D01*
X58130881Y-78959831D01*
X58314756Y-79067279D01*
X58324042Y-79071729D01*
X58473124Y-79128657D01*
X58529627Y-79171644D01*
X58553920Y-79238355D01*
X58538290Y-79307610D01*
X58487699Y-79357421D01*
X58471785Y-79364579D01*
X58430463Y-79379824D01*
X58256010Y-79483612D01*
X58251670Y-79487418D01*
X58251666Y-79487421D01*
X58122160Y-79600996D01*
X58103392Y-79617455D01*
X57977720Y-79776869D01*
X57975031Y-79781980D01*
X57975029Y-79781983D01*
X57962073Y-79806609D01*
X57883203Y-79956515D01*
X57823007Y-80150378D01*
X57799148Y-80351964D01*
X57812424Y-80554522D01*
X57813845Y-80560118D01*
X57813846Y-80560123D01*
X57834119Y-80639945D01*
X57862392Y-80751269D01*
X57864809Y-80756512D01*
X57902010Y-80837208D01*
X57947377Y-80935616D01*
X57950710Y-80940332D01*
X58055652Y-81088822D01*
X58064533Y-81101389D01*
X58068675Y-81105424D01*
X58091447Y-81127607D01*
X58209938Y-81243035D01*
X58214742Y-81246245D01*
X58281049Y-81290550D01*
X58378720Y-81355812D01*
X58384023Y-81358090D01*
X58384026Y-81358092D01*
X58544748Y-81427143D01*
X58565228Y-81435942D01*
X58638244Y-81452464D01*
X58757579Y-81479467D01*
X58757584Y-81479468D01*
X58763216Y-81480742D01*
X58768987Y-81480969D01*
X58768989Y-81480969D01*
X58828756Y-81483317D01*
X58966053Y-81488712D01*
X59066499Y-81474148D01*
X59161231Y-81460413D01*
X59161236Y-81460412D01*
X59166945Y-81459584D01*
X59172409Y-81457729D01*
X59172414Y-81457728D01*
X59353693Y-81396192D01*
X59353698Y-81396190D01*
X59359165Y-81394334D01*
X59502776Y-81313908D01*
X63393495Y-81313908D01*
X63406935Y-81518961D01*
X63457517Y-81718130D01*
X63543549Y-81904747D01*
X63662148Y-82072561D01*
X63666282Y-82076588D01*
X63767264Y-82174960D01*
X63809342Y-82215951D01*
X63814138Y-82219156D01*
X63814141Y-82219158D01*
X63892523Y-82271531D01*
X63980203Y-82330117D01*
X63985506Y-82332395D01*
X63985509Y-82332397D01*
X64137353Y-82397634D01*
X64169008Y-82411234D01*
X64369433Y-82456586D01*
X64375202Y-82456813D01*
X64375205Y-82456813D01*
X64452697Y-82459857D01*
X64574768Y-82464653D01*
X64676451Y-82449909D01*
X64772419Y-82435995D01*
X64772424Y-82435994D01*
X64778133Y-82435166D01*
X64783597Y-82433311D01*
X64783602Y-82433310D01*
X64967249Y-82370971D01*
X64967254Y-82370969D01*
X64972721Y-82369113D01*
X64977918Y-82366203D01*
X65066009Y-82316869D01*
X65152012Y-82268705D01*
X65310003Y-82137305D01*
X65441403Y-81979314D01*
X65531873Y-81817768D01*
X65538987Y-81805066D01*
X65538988Y-81805064D01*
X65541811Y-81800023D01*
X65543667Y-81794556D01*
X65543669Y-81794551D01*
X65606008Y-81610904D01*
X65606009Y-81610899D01*
X65607864Y-81605435D01*
X65610383Y-81588067D01*
X65627001Y-81473453D01*
X65637351Y-81402070D01*
X65638890Y-81343302D01*
X65636189Y-81313908D01*
X65933495Y-81313908D01*
X65946935Y-81518961D01*
X65997517Y-81718130D01*
X66083549Y-81904747D01*
X66202148Y-82072561D01*
X66206282Y-82076588D01*
X66307264Y-82174960D01*
X66349342Y-82215951D01*
X66354138Y-82219156D01*
X66354141Y-82219158D01*
X66432523Y-82271531D01*
X66520203Y-82330117D01*
X66525506Y-82332395D01*
X66525509Y-82332397D01*
X66677353Y-82397634D01*
X66709008Y-82411234D01*
X66909433Y-82456586D01*
X66915202Y-82456813D01*
X66915205Y-82456813D01*
X66992697Y-82459857D01*
X67114768Y-82464653D01*
X67216451Y-82449909D01*
X67312419Y-82435995D01*
X67312424Y-82435994D01*
X67318133Y-82435166D01*
X67323597Y-82433311D01*
X67323602Y-82433310D01*
X67507249Y-82370971D01*
X67507254Y-82370969D01*
X67512721Y-82369113D01*
X67517918Y-82366203D01*
X67606009Y-82316869D01*
X67692012Y-82268705D01*
X67829682Y-82154206D01*
X74251501Y-82154206D01*
X74252743Y-82169000D01*
X74266835Y-82336801D01*
X74268806Y-82360278D01*
X74325807Y-82559066D01*
X74328625Y-82564548D01*
X74328626Y-82564552D01*
X74417514Y-82737509D01*
X74417517Y-82737513D01*
X74420334Y-82742995D01*
X74548786Y-82905061D01*
X74553479Y-82909055D01*
X74553480Y-82909056D01*
X74661309Y-83000825D01*
X74706271Y-83039091D01*
X74886789Y-83139980D01*
X75083466Y-83203884D01*
X75288809Y-83228370D01*
X75294944Y-83227898D01*
X75294946Y-83227898D01*
X75488856Y-83212977D01*
X75488860Y-83212976D01*
X75494998Y-83212504D01*
X75694178Y-83156892D01*
X75699682Y-83154112D01*
X75699684Y-83154111D01*
X75873262Y-83066431D01*
X75873264Y-83066430D01*
X75878763Y-83063652D01*
X76041722Y-82936334D01*
X76045748Y-82931670D01*
X76045751Y-82931667D01*
X76172819Y-82784457D01*
X76172820Y-82784455D01*
X76176848Y-82779789D01*
X76260190Y-82633082D01*
X76275950Y-82605340D01*
X76275952Y-82605336D01*
X76278995Y-82599979D01*
X76315114Y-82491399D01*
X76342325Y-82409601D01*
X76342326Y-82409598D01*
X76344270Y-82403753D01*
X76370189Y-82198586D01*
X76370602Y-82169000D01*
X76350422Y-81963189D01*
X76290651Y-81765217D01*
X76242108Y-81673921D01*
X76196459Y-81588067D01*
X76196457Y-81588064D01*
X76193565Y-81582625D01*
X76189674Y-81577855D01*
X76189672Y-81577851D01*
X76066758Y-81427143D01*
X76066755Y-81427140D01*
X76062863Y-81422368D01*
X76055966Y-81416662D01*
X75908271Y-81294478D01*
X75908266Y-81294475D01*
X75903522Y-81290550D01*
X75898103Y-81287620D01*
X75898100Y-81287618D01*
X75727032Y-81195122D01*
X75727027Y-81195120D01*
X75721612Y-81192192D01*
X75524063Y-81131040D01*
X75517938Y-81130396D01*
X75517937Y-81130396D01*
X75324526Y-81110068D01*
X75324524Y-81110068D01*
X75318397Y-81109424D01*
X75192229Y-81120906D01*
X75118591Y-81127607D01*
X75118590Y-81127607D01*
X75112450Y-81128166D01*
X74914066Y-81186554D01*
X74908601Y-81189411D01*
X74736261Y-81279508D01*
X74736257Y-81279511D01*
X74730801Y-81282363D01*
X74726001Y-81286223D01*
X74726000Y-81286223D01*
X74719495Y-81291453D01*
X74569635Y-81411943D01*
X74436708Y-81570360D01*
X74337082Y-81751578D01*
X74274553Y-81948696D01*
X74273867Y-81954813D01*
X74273866Y-81954817D01*
X74261188Y-82067846D01*
X74251501Y-82154206D01*
X67829682Y-82154206D01*
X67850003Y-82137305D01*
X67981403Y-81979314D01*
X68071873Y-81817768D01*
X68078987Y-81805066D01*
X68078988Y-81805064D01*
X68081811Y-81800023D01*
X68083667Y-81794556D01*
X68083669Y-81794551D01*
X68146008Y-81610904D01*
X68146009Y-81610899D01*
X68147864Y-81605435D01*
X68150383Y-81588067D01*
X68167001Y-81473453D01*
X68177351Y-81402070D01*
X68178890Y-81343302D01*
X68160087Y-81138672D01*
X68158518Y-81133108D01*
X68105878Y-80946459D01*
X68105876Y-80946454D01*
X68104308Y-80940894D01*
X68013421Y-80756594D01*
X67890470Y-80591942D01*
X67739572Y-80452453D01*
X67694348Y-80423919D01*
X67570665Y-80345881D01*
X67570660Y-80345879D01*
X67565781Y-80342800D01*
X67374918Y-80266653D01*
X67173374Y-80226563D01*
X67167599Y-80226487D01*
X67167595Y-80226487D01*
X67066796Y-80225168D01*
X66967899Y-80223873D01*
X66765375Y-80258674D01*
X66759958Y-80260672D01*
X66759952Y-80260674D01*
X66658079Y-80298257D01*
X66572583Y-80329798D01*
X66525634Y-80357730D01*
X66400950Y-80431909D01*
X66400947Y-80431911D01*
X66395982Y-80434865D01*
X66353388Y-80472219D01*
X66253153Y-80560123D01*
X66241484Y-80570356D01*
X66237909Y-80574891D01*
X66237908Y-80574892D01*
X66163293Y-80669541D01*
X66114265Y-80731732D01*
X66018585Y-80913591D01*
X65957648Y-81109840D01*
X65933495Y-81313908D01*
X65636189Y-81313908D01*
X65620087Y-81138672D01*
X65618518Y-81133108D01*
X65565878Y-80946459D01*
X65565876Y-80946454D01*
X65564308Y-80940894D01*
X65473421Y-80756594D01*
X65350470Y-80591942D01*
X65199572Y-80452453D01*
X65154348Y-80423919D01*
X65030665Y-80345881D01*
X65030660Y-80345879D01*
X65025781Y-80342800D01*
X64834918Y-80266653D01*
X64633374Y-80226563D01*
X64627599Y-80226487D01*
X64627595Y-80226487D01*
X64526796Y-80225168D01*
X64427899Y-80223873D01*
X64225375Y-80258674D01*
X64219958Y-80260672D01*
X64219952Y-80260674D01*
X64118079Y-80298257D01*
X64032583Y-80329798D01*
X63985634Y-80357730D01*
X63860950Y-80431909D01*
X63860947Y-80431911D01*
X63855982Y-80434865D01*
X63813388Y-80472219D01*
X63713153Y-80560123D01*
X63701484Y-80570356D01*
X63697909Y-80574891D01*
X63697908Y-80574892D01*
X63623293Y-80669541D01*
X63574265Y-80731732D01*
X63478585Y-80913591D01*
X63417648Y-81109840D01*
X63393495Y-81313908D01*
X59502776Y-81313908D01*
X59536276Y-81295147D01*
X59541341Y-81290935D01*
X59687913Y-81169031D01*
X59692345Y-81165345D01*
X59755989Y-81088822D01*
X59818453Y-81013718D01*
X59818455Y-81013715D01*
X59822147Y-81009276D01*
X59900328Y-80869674D01*
X59918510Y-80837208D01*
X59918511Y-80837206D01*
X59921334Y-80832165D01*
X59923190Y-80826698D01*
X59923192Y-80826693D01*
X59984728Y-80645414D01*
X59984729Y-80645409D01*
X59986584Y-80639945D01*
X59987412Y-80634236D01*
X59987413Y-80634231D01*
X60015179Y-80442727D01*
X60015712Y-80439053D01*
X60017232Y-80381000D01*
X59998658Y-80178859D01*
X59997090Y-80173299D01*
X59945125Y-79989046D01*
X59945124Y-79989044D01*
X59943557Y-79983487D01*
X59939791Y-79975849D01*
X59856331Y-79806609D01*
X59853776Y-79801428D01*
X59732320Y-79638779D01*
X59583258Y-79500987D01*
X59578375Y-79497906D01*
X59578371Y-79497903D01*
X59416464Y-79395748D01*
X59411581Y-79392667D01*
X59339614Y-79363955D01*
X59283755Y-79320134D01*
X59260455Y-79253069D01*
X59277111Y-79184054D01*
X59328436Y-79135000D01*
X59350098Y-79126239D01*
X59400252Y-79111192D01*
X59409842Y-79107433D01*
X59601095Y-79013739D01*
X59609945Y-79008464D01*
X59783328Y-78884792D01*
X59791200Y-78878139D01*
X59895795Y-78773908D01*
X63393495Y-78773908D01*
X63406935Y-78978961D01*
X63457517Y-79178130D01*
X63543549Y-79364747D01*
X63662148Y-79532561D01*
X63809342Y-79675951D01*
X63814138Y-79679156D01*
X63814141Y-79679158D01*
X63892523Y-79731531D01*
X63980203Y-79790117D01*
X63985506Y-79792395D01*
X63985509Y-79792397D01*
X64075293Y-79830971D01*
X64169008Y-79871234D01*
X64369433Y-79916586D01*
X64375202Y-79916813D01*
X64375205Y-79916813D01*
X64452697Y-79919857D01*
X64574768Y-79924653D01*
X64676451Y-79909909D01*
X64772419Y-79895995D01*
X64772424Y-79895994D01*
X64778133Y-79895166D01*
X64783597Y-79893311D01*
X64783602Y-79893310D01*
X64967249Y-79830971D01*
X64967254Y-79830969D01*
X64972721Y-79829113D01*
X65152012Y-79728705D01*
X65310003Y-79597305D01*
X65441403Y-79439314D01*
X65531873Y-79277768D01*
X65538987Y-79265066D01*
X65538988Y-79265064D01*
X65541811Y-79260023D01*
X65543667Y-79254556D01*
X65543669Y-79254551D01*
X65606008Y-79070904D01*
X65606009Y-79070899D01*
X65607864Y-79065435D01*
X65615490Y-79012844D01*
X65626516Y-78936800D01*
X65637351Y-78862070D01*
X65638890Y-78803302D01*
X65620087Y-78598672D01*
X65605520Y-78547020D01*
X65565878Y-78406459D01*
X65565876Y-78406454D01*
X65564308Y-78400894D01*
X65473421Y-78216594D01*
X65382623Y-78095000D01*
X65353923Y-78056566D01*
X65353922Y-78056565D01*
X65350470Y-78051942D01*
X65199572Y-77912453D01*
X65086325Y-77841000D01*
X65030665Y-77805881D01*
X65030660Y-77805879D01*
X65025781Y-77802800D01*
X64834918Y-77726653D01*
X64633374Y-77686563D01*
X64627599Y-77686487D01*
X64627595Y-77686487D01*
X64526796Y-77685168D01*
X64427899Y-77683873D01*
X64225375Y-77718674D01*
X64219958Y-77720672D01*
X64219952Y-77720674D01*
X64123243Y-77756352D01*
X64032583Y-77789798D01*
X63985634Y-77817730D01*
X63860950Y-77891909D01*
X63860947Y-77891911D01*
X63855982Y-77894865D01*
X63841405Y-77907649D01*
X63711763Y-78021342D01*
X63701484Y-78030356D01*
X63697909Y-78034891D01*
X63697908Y-78034892D01*
X63586245Y-78176536D01*
X63574265Y-78191732D01*
X63478585Y-78373591D01*
X63417648Y-78569840D01*
X63393495Y-78773908D01*
X59895795Y-78773908D01*
X59942052Y-78727812D01*
X59948730Y-78719965D01*
X60073003Y-78547020D01*
X60078313Y-78538183D01*
X60172670Y-78347267D01*
X60176469Y-78337672D01*
X60238377Y-78133910D01*
X60240555Y-78123837D01*
X60241986Y-78112962D01*
X60239775Y-78098778D01*
X60226617Y-78095000D01*
X58780000Y-78095000D01*
X58711879Y-78074998D01*
X58665386Y-78021342D01*
X58654000Y-77969000D01*
X58654000Y-77568885D01*
X59162000Y-77568885D01*
X59166475Y-77584124D01*
X59167865Y-77585329D01*
X59175548Y-77587000D01*
X60226344Y-77587000D01*
X60239875Y-77583027D01*
X60241180Y-77573947D01*
X60199214Y-77406875D01*
X60195894Y-77397124D01*
X60110972Y-77201814D01*
X60106105Y-77192739D01*
X59990426Y-77013926D01*
X59984136Y-77005757D01*
X59840806Y-76848240D01*
X59833273Y-76841215D01*
X59666139Y-76709222D01*
X59657552Y-76703517D01*
X59471117Y-76600599D01*
X59461705Y-76596369D01*
X59260959Y-76525280D01*
X59250988Y-76522646D01*
X59179837Y-76509972D01*
X59166540Y-76511432D01*
X59162000Y-76525989D01*
X59162000Y-77568885D01*
X58654000Y-77568885D01*
X58654000Y-76524102D01*
X58650082Y-76510758D01*
X58635806Y-76508771D01*
X58597324Y-76514660D01*
X58587288Y-76517051D01*
X58384868Y-76583212D01*
X58375359Y-76587209D01*
X58186463Y-76685542D01*
X58177738Y-76691036D01*
X58007433Y-76818905D01*
X57999726Y-76825748D01*
X57852590Y-76979717D01*
X57846104Y-76987727D01*
X57726098Y-77163649D01*
X57721000Y-77172623D01*
X57631338Y-77365783D01*
X57627777Y-77375464D01*
X57623291Y-77391640D01*
X57585813Y-77451939D01*
X57521684Y-77482403D01*
X57451266Y-77473360D01*
X57396915Y-77427682D01*
X57388867Y-77413698D01*
X57316331Y-77266609D01*
X57313776Y-77261428D01*
X57192320Y-77098779D01*
X57063520Y-76979717D01*
X57047503Y-76964911D01*
X57043258Y-76960987D01*
X57038375Y-76957906D01*
X57038371Y-76957903D01*
X56876464Y-76855748D01*
X56871581Y-76852667D01*
X56683039Y-76777446D01*
X56677379Y-76776320D01*
X56677375Y-76776319D01*
X56489613Y-76738971D01*
X56489610Y-76738971D01*
X56483946Y-76737844D01*
X56478171Y-76737768D01*
X56478167Y-76737768D01*
X56376793Y-76736441D01*
X56280971Y-76735187D01*
X56275274Y-76736166D01*
X56275273Y-76736166D01*
X56086607Y-76768585D01*
X56080910Y-76769564D01*
X55890463Y-76839824D01*
X55716010Y-76943612D01*
X55711670Y-76947418D01*
X55711666Y-76947421D01*
X55582160Y-77060996D01*
X55563392Y-77077455D01*
X55437720Y-77236869D01*
X55435031Y-77241980D01*
X55435029Y-77241983D01*
X55422073Y-77266609D01*
X55343203Y-77416515D01*
X55283007Y-77610378D01*
X55259148Y-77811964D01*
X54880500Y-77811964D01*
X54880500Y-76233908D01*
X63393495Y-76233908D01*
X63406935Y-76438961D01*
X63457517Y-76638130D01*
X63543549Y-76824747D01*
X63662148Y-76992561D01*
X63809342Y-77135951D01*
X63814138Y-77139156D01*
X63814141Y-77139158D01*
X63939440Y-77222880D01*
X63980203Y-77250117D01*
X63985506Y-77252395D01*
X63985509Y-77252397D01*
X64089654Y-77297141D01*
X64169008Y-77331234D01*
X64369433Y-77376586D01*
X64375202Y-77376813D01*
X64375205Y-77376813D01*
X64452697Y-77379857D01*
X64574768Y-77384653D01*
X64676451Y-77369909D01*
X64772419Y-77355995D01*
X64772424Y-77355994D01*
X64778133Y-77355166D01*
X64783597Y-77353311D01*
X64783602Y-77353310D01*
X64967249Y-77290971D01*
X64967254Y-77290969D01*
X64972721Y-77289113D01*
X64989262Y-77279850D01*
X65069105Y-77235135D01*
X65152012Y-77188705D01*
X65310003Y-77057305D01*
X65441403Y-76899314D01*
X65444227Y-76894271D01*
X65444230Y-76894267D01*
X65540811Y-76721809D01*
X65591548Y-76672147D01*
X65661079Y-76657800D01*
X65727330Y-76683321D01*
X65767488Y-76735971D01*
X65825589Y-76879058D01*
X65830232Y-76888249D01*
X65942682Y-77071750D01*
X65948765Y-77080061D01*
X66089665Y-77242719D01*
X66097032Y-77249935D01*
X66262606Y-77387397D01*
X66271053Y-77393312D01*
X66456859Y-77501888D01*
X66466146Y-77506338D01*
X66582423Y-77550740D01*
X66638926Y-77593728D01*
X66663219Y-77660439D01*
X66647589Y-77729694D01*
X66596998Y-77779504D01*
X66581087Y-77786661D01*
X66572583Y-77789798D01*
X66525634Y-77817730D01*
X66400950Y-77891909D01*
X66400947Y-77891911D01*
X66395982Y-77894865D01*
X66381405Y-77907649D01*
X66251763Y-78021342D01*
X66241484Y-78030356D01*
X66237909Y-78034891D01*
X66237908Y-78034892D01*
X66126245Y-78176536D01*
X66114265Y-78191732D01*
X66018585Y-78373591D01*
X65957648Y-78569840D01*
X65933495Y-78773908D01*
X65946935Y-78978961D01*
X65997517Y-79178130D01*
X66083549Y-79364747D01*
X66202148Y-79532561D01*
X66349342Y-79675951D01*
X66354138Y-79679156D01*
X66354141Y-79679158D01*
X66432523Y-79731531D01*
X66520203Y-79790117D01*
X66525506Y-79792395D01*
X66525509Y-79792397D01*
X66615293Y-79830971D01*
X66709008Y-79871234D01*
X66909433Y-79916586D01*
X66915202Y-79916813D01*
X66915205Y-79916813D01*
X66992697Y-79919857D01*
X67114768Y-79924653D01*
X67216451Y-79909909D01*
X67312419Y-79895995D01*
X67312424Y-79895994D01*
X67318133Y-79895166D01*
X67323597Y-79893311D01*
X67323602Y-79893310D01*
X67507249Y-79830971D01*
X67507254Y-79830969D01*
X67512721Y-79829113D01*
X67692012Y-79728705D01*
X67850003Y-79597305D01*
X67981403Y-79439314D01*
X68071873Y-79277768D01*
X68078987Y-79265066D01*
X68078988Y-79265064D01*
X68081811Y-79260023D01*
X68083667Y-79254556D01*
X68083669Y-79254551D01*
X68146008Y-79070904D01*
X68146009Y-79070899D01*
X68147864Y-79065435D01*
X68155490Y-79012844D01*
X68166516Y-78936800D01*
X68177351Y-78862070D01*
X68178890Y-78803302D01*
X68160087Y-78598672D01*
X68145520Y-78547020D01*
X68105878Y-78406459D01*
X68105876Y-78406454D01*
X68104308Y-78400894D01*
X68013421Y-78216594D01*
X67922623Y-78095000D01*
X67893923Y-78056566D01*
X67893922Y-78056565D01*
X67890470Y-78051942D01*
X67739572Y-77912453D01*
X67626325Y-77841000D01*
X67570665Y-77805881D01*
X67570660Y-77805879D01*
X67565781Y-77802800D01*
X67528876Y-77788076D01*
X67473018Y-77744256D01*
X67449718Y-77677192D01*
X67466374Y-77608176D01*
X67517699Y-77559122D01*
X67539362Y-77550361D01*
X67553219Y-77546204D01*
X67562832Y-77542436D01*
X67756076Y-77447766D01*
X67764934Y-77442487D01*
X67940141Y-77317513D01*
X67948003Y-77310869D01*
X68100445Y-77158958D01*
X68107122Y-77151113D01*
X68232702Y-76976349D01*
X68238013Y-76967510D01*
X68333358Y-76774594D01*
X68337156Y-76765001D01*
X68348735Y-76726890D01*
X70722000Y-76726890D01*
X70722300Y-76733035D01*
X70736170Y-76874481D01*
X70738553Y-76886519D01*
X70793542Y-77068651D01*
X70798217Y-77079993D01*
X70887535Y-77247977D01*
X70894322Y-77258193D01*
X71014572Y-77405634D01*
X71023216Y-77414338D01*
X71169809Y-77535610D01*
X71179980Y-77542470D01*
X71347342Y-77632962D01*
X71358647Y-77637714D01*
X71483692Y-77676422D01*
X71497795Y-77676628D01*
X71501000Y-77669873D01*
X71501000Y-77662986D01*
X72009000Y-77662986D01*
X72012973Y-77676517D01*
X72020768Y-77677637D01*
X72137932Y-77643154D01*
X72149300Y-77638561D01*
X72317911Y-77550414D01*
X72328173Y-77543698D01*
X72476443Y-77424485D01*
X72485204Y-77415905D01*
X72499828Y-77398478D01*
X72558939Y-77359153D01*
X72629926Y-77358027D01*
X72663864Y-77373087D01*
X72675172Y-77380264D01*
X72675177Y-77380267D01*
X72681128Y-77384043D01*
X72687771Y-77386408D01*
X72687770Y-77386408D01*
X72839239Y-77440344D01*
X72839244Y-77440345D01*
X72845874Y-77442706D01*
X72852862Y-77443539D01*
X72852865Y-77443540D01*
X72968201Y-77457293D01*
X73019524Y-77463413D01*
X73026527Y-77462677D01*
X73026528Y-77462677D01*
X73077770Y-77457291D01*
X73193445Y-77445133D01*
X73200111Y-77442864D01*
X73200114Y-77442863D01*
X73352328Y-77391045D01*
X73352331Y-77391044D01*
X73358995Y-77388775D01*
X73418022Y-77352462D01*
X73486522Y-77333803D01*
X73554236Y-77355141D01*
X73573139Y-77370684D01*
X73579623Y-77377168D01*
X73586516Y-77387484D01*
X73670699Y-77443734D01*
X73744933Y-77458500D01*
X74294911Y-77458500D01*
X74845066Y-77458499D01*
X74880818Y-77451388D01*
X74907126Y-77446156D01*
X74907128Y-77446155D01*
X74919301Y-77443734D01*
X74929621Y-77436839D01*
X74929622Y-77436838D01*
X74993168Y-77394377D01*
X75003484Y-77387484D01*
X75059734Y-77303301D01*
X75074500Y-77229067D01*
X75074499Y-75678934D01*
X75064365Y-75627981D01*
X75062156Y-75616874D01*
X75062155Y-75616872D01*
X75059734Y-75604699D01*
X75048948Y-75588556D01*
X75010377Y-75530832D01*
X75003484Y-75520516D01*
X74919301Y-75464266D01*
X74845067Y-75449500D01*
X74295089Y-75449500D01*
X73744934Y-75449501D01*
X73711670Y-75456117D01*
X73682874Y-75461844D01*
X73682872Y-75461845D01*
X73670699Y-75464266D01*
X73660379Y-75471161D01*
X73660378Y-75471162D01*
X73613688Y-75502360D01*
X73586516Y-75520516D01*
X73579623Y-75530832D01*
X73573386Y-75537069D01*
X73511074Y-75571095D01*
X73440259Y-75566030D01*
X73416786Y-75554364D01*
X73368872Y-75523957D01*
X73335130Y-75511942D01*
X73210761Y-75467656D01*
X73210756Y-75467655D01*
X73204126Y-75465294D01*
X73197138Y-75464461D01*
X73197135Y-75464460D01*
X73071677Y-75449500D01*
X73030476Y-75444587D01*
X73023473Y-75445323D01*
X73023472Y-75445323D01*
X72983732Y-75449500D01*
X72856555Y-75462867D01*
X72849889Y-75465136D01*
X72849886Y-75465137D01*
X72697672Y-75516955D01*
X72697669Y-75516956D01*
X72691005Y-75519225D01*
X72685004Y-75522917D01*
X72663877Y-75535914D01*
X72595376Y-75554573D01*
X72527661Y-75533235D01*
X72500208Y-75508229D01*
X72495422Y-75502360D01*
X72486788Y-75493666D01*
X72340191Y-75372390D01*
X72330020Y-75365530D01*
X72162658Y-75275038D01*
X72151353Y-75270286D01*
X72026308Y-75231578D01*
X72012205Y-75231372D01*
X72009000Y-75238127D01*
X72009000Y-77662986D01*
X71501000Y-77662986D01*
X71501000Y-76726115D01*
X71496525Y-76710876D01*
X71495135Y-76709671D01*
X71487452Y-76708000D01*
X70740115Y-76708000D01*
X70724876Y-76712475D01*
X70723671Y-76713865D01*
X70722000Y-76721548D01*
X70722000Y-76726890D01*
X68348735Y-76726890D01*
X68399716Y-76559093D01*
X68401893Y-76549023D01*
X68403705Y-76535262D01*
X68401493Y-76521080D01*
X68388336Y-76517302D01*
X66928000Y-76517302D01*
X66859879Y-76497300D01*
X66813386Y-76443644D01*
X66802000Y-76391302D01*
X66802000Y-76181885D01*
X70722000Y-76181885D01*
X70726475Y-76197124D01*
X70727865Y-76198329D01*
X70735548Y-76200000D01*
X71482885Y-76200000D01*
X71498124Y-76195525D01*
X71499329Y-76194135D01*
X71501000Y-76186452D01*
X71501000Y-75245014D01*
X71497027Y-75231483D01*
X71489232Y-75230363D01*
X71372068Y-75264846D01*
X71360700Y-75269439D01*
X71192089Y-75357586D01*
X71181827Y-75364302D01*
X71033557Y-75483515D01*
X71024787Y-75492103D01*
X70902501Y-75637838D01*
X70895563Y-75647969D01*
X70803906Y-75814692D01*
X70799076Y-75825962D01*
X70741548Y-76007315D01*
X70738998Y-76019309D01*
X70722393Y-76167350D01*
X70722000Y-76174374D01*
X70722000Y-76181885D01*
X66802000Y-76181885D01*
X66802000Y-75991187D01*
X67310000Y-75991187D01*
X67314475Y-76006426D01*
X67315865Y-76007631D01*
X67323548Y-76009302D01*
X68388367Y-76009302D01*
X68401898Y-76005329D01*
X68403203Y-75996249D01*
X68360133Y-75824779D01*
X68356813Y-75815028D01*
X68270999Y-75617667D01*
X68266133Y-75608592D01*
X68149239Y-75427903D01*
X68142947Y-75419732D01*
X67998113Y-75260562D01*
X67990580Y-75253536D01*
X67821691Y-75120157D01*
X67813104Y-75114452D01*
X67624711Y-75010453D01*
X67615299Y-75006223D01*
X67412445Y-74934388D01*
X67402474Y-74931754D01*
X67327837Y-74918459D01*
X67314540Y-74919919D01*
X67310000Y-74934476D01*
X67310000Y-75991187D01*
X66802000Y-75991187D01*
X66802000Y-74932645D01*
X66798082Y-74919301D01*
X66783806Y-74917314D01*
X66742161Y-74923687D01*
X66732125Y-74926078D01*
X66527576Y-74992935D01*
X66518079Y-74996927D01*
X66327189Y-75096297D01*
X66318464Y-75101792D01*
X66146373Y-75231002D01*
X66138666Y-75237845D01*
X65989984Y-75393431D01*
X65983498Y-75401441D01*
X65862232Y-75579210D01*
X65857134Y-75588184D01*
X65766530Y-75783373D01*
X65765178Y-75787049D01*
X65722886Y-75844074D01*
X65656477Y-75869182D01*
X65587036Y-75854402D01*
X65533920Y-75799273D01*
X65475977Y-75681777D01*
X65473421Y-75676594D01*
X65362215Y-75527670D01*
X65353923Y-75516566D01*
X65353922Y-75516565D01*
X65350470Y-75511942D01*
X65213772Y-75385579D01*
X65203812Y-75376372D01*
X65203809Y-75376370D01*
X65199572Y-75372453D01*
X65106431Y-75313686D01*
X65030665Y-75265881D01*
X65030660Y-75265879D01*
X65025781Y-75262800D01*
X64834918Y-75186653D01*
X64633374Y-75146563D01*
X64627599Y-75146487D01*
X64627595Y-75146487D01*
X64526796Y-75145168D01*
X64427899Y-75143873D01*
X64225375Y-75178674D01*
X64219958Y-75180672D01*
X64219952Y-75180674D01*
X64103450Y-75223654D01*
X64032583Y-75249798D01*
X64007290Y-75264846D01*
X63860950Y-75351909D01*
X63860947Y-75351911D01*
X63855982Y-75354865D01*
X63701484Y-75490356D01*
X63697909Y-75494891D01*
X63697908Y-75494892D01*
X63579191Y-75645484D01*
X63574265Y-75651732D01*
X63478585Y-75833591D01*
X63417648Y-76029840D01*
X63393495Y-76233908D01*
X54880500Y-76233908D01*
X54880500Y-75588556D01*
X54900502Y-75520435D01*
X54954158Y-75473942D01*
X55024432Y-75463838D01*
X55059755Y-75474364D01*
X55063308Y-75476021D01*
X55063312Y-75476022D01*
X55068297Y-75478347D01*
X55280326Y-75535161D01*
X55499000Y-75554292D01*
X55717674Y-75535161D01*
X55745630Y-75527670D01*
X59025360Y-75527670D01*
X59031087Y-75535320D01*
X59202242Y-75640205D01*
X59211037Y-75644687D01*
X59421188Y-75731734D01*
X59430573Y-75734783D01*
X59651754Y-75787885D01*
X59661501Y-75789428D01*
X59888270Y-75807275D01*
X59898130Y-75807275D01*
X60124899Y-75789428D01*
X60134646Y-75787885D01*
X60355827Y-75734783D01*
X60365212Y-75731734D01*
X60575363Y-75644687D01*
X60584158Y-75640205D01*
X60751645Y-75537568D01*
X60761107Y-75527110D01*
X60757324Y-75518334D01*
X59906012Y-74667022D01*
X59892068Y-74659408D01*
X59890235Y-74659539D01*
X59883620Y-74663790D01*
X59032120Y-75515290D01*
X59025360Y-75527670D01*
X55745630Y-75527670D01*
X55929703Y-75478347D01*
X56037881Y-75427903D01*
X56123659Y-75387905D01*
X56123664Y-75387902D01*
X56128646Y-75385579D01*
X56141795Y-75376372D01*
X56303946Y-75262833D01*
X56303949Y-75262831D01*
X56308457Y-75259674D01*
X56463674Y-75104457D01*
X56468236Y-75097943D01*
X56586422Y-74929155D01*
X56586423Y-74929153D01*
X56589579Y-74924646D01*
X56591902Y-74919664D01*
X56591905Y-74919659D01*
X56666565Y-74759548D01*
X56682347Y-74725703D01*
X56739161Y-74513674D01*
X56757861Y-74299930D01*
X58380925Y-74299930D01*
X58398772Y-74526699D01*
X58400315Y-74536446D01*
X58453417Y-74757627D01*
X58456466Y-74767012D01*
X58543513Y-74977163D01*
X58547995Y-74985958D01*
X58650632Y-75153445D01*
X58661090Y-75162907D01*
X58669866Y-75159124D01*
X59521178Y-74307812D01*
X59527556Y-74296132D01*
X60257608Y-74296132D01*
X60257739Y-74297965D01*
X60261990Y-74304580D01*
X61113490Y-75156080D01*
X61125870Y-75162840D01*
X61133520Y-75157113D01*
X61238405Y-74985958D01*
X61242887Y-74977163D01*
X61329934Y-74767012D01*
X61332983Y-74757627D01*
X61386085Y-74536446D01*
X61387628Y-74526699D01*
X61405475Y-74299930D01*
X61405475Y-74290070D01*
X61387628Y-74063301D01*
X61386085Y-74053554D01*
X61332983Y-73832373D01*
X61329934Y-73822988D01*
X61242887Y-73612837D01*
X61238405Y-73604042D01*
X61135768Y-73436555D01*
X61125310Y-73427093D01*
X61116534Y-73430876D01*
X60265222Y-74282188D01*
X60257608Y-74296132D01*
X59527556Y-74296132D01*
X59528792Y-74293868D01*
X59528661Y-74292035D01*
X59524410Y-74285420D01*
X58672910Y-73433920D01*
X58660530Y-73427160D01*
X58652880Y-73432887D01*
X58547995Y-73604042D01*
X58543513Y-73612837D01*
X58456466Y-73822988D01*
X58453417Y-73832373D01*
X58400315Y-74053554D01*
X58398772Y-74063301D01*
X58380925Y-74290070D01*
X58380925Y-74299930D01*
X56757861Y-74299930D01*
X56758292Y-74295000D01*
X56739161Y-74076326D01*
X56682347Y-73864297D01*
X56621161Y-73733082D01*
X56591905Y-73670341D01*
X56591902Y-73670336D01*
X56589579Y-73665354D01*
X56582931Y-73655860D01*
X56466833Y-73490054D01*
X56466831Y-73490051D01*
X56463674Y-73485543D01*
X56308457Y-73330326D01*
X56303949Y-73327169D01*
X56303946Y-73327167D01*
X56133155Y-73207578D01*
X56133153Y-73207577D01*
X56128646Y-73204421D01*
X56123664Y-73202098D01*
X56123659Y-73202095D01*
X55981643Y-73135873D01*
X55929703Y-73111653D01*
X55747720Y-73062890D01*
X59025293Y-73062890D01*
X59029076Y-73071666D01*
X59880388Y-73922978D01*
X59894332Y-73930592D01*
X59896165Y-73930461D01*
X59902780Y-73926210D01*
X60754280Y-73074710D01*
X60761040Y-73062330D01*
X60755313Y-73054680D01*
X60584158Y-72949795D01*
X60575363Y-72945313D01*
X60365212Y-72858266D01*
X60355827Y-72855217D01*
X60134646Y-72802115D01*
X60124899Y-72800572D01*
X59898130Y-72782725D01*
X59888270Y-72782725D01*
X59661501Y-72800572D01*
X59651754Y-72802115D01*
X59430573Y-72855217D01*
X59421188Y-72858266D01*
X59211037Y-72945313D01*
X59202242Y-72949795D01*
X59034755Y-73052432D01*
X59025293Y-73062890D01*
X55747720Y-73062890D01*
X55717674Y-73054839D01*
X55499000Y-73035708D01*
X55280326Y-73054839D01*
X55068297Y-73111653D01*
X55016357Y-73135873D01*
X54874341Y-73202095D01*
X54874336Y-73202098D01*
X54869354Y-73204421D01*
X54864847Y-73207577D01*
X54864845Y-73207578D01*
X54694054Y-73327167D01*
X54694051Y-73327169D01*
X54689543Y-73330326D01*
X54534326Y-73485543D01*
X54531169Y-73490051D01*
X54531167Y-73490054D01*
X54415069Y-73655860D01*
X54408421Y-73665354D01*
X54406098Y-73670336D01*
X54406095Y-73670341D01*
X54376839Y-73733082D01*
X54315653Y-73864297D01*
X54258839Y-74076326D01*
X54239708Y-74295000D01*
X54258839Y-74513674D01*
X54260262Y-74518984D01*
X54314230Y-74720392D01*
X54315653Y-74725703D01*
X54344506Y-74787580D01*
X54346143Y-74791090D01*
X54356804Y-74861281D01*
X54327824Y-74926094D01*
X54321043Y-74933434D01*
X54267521Y-74986956D01*
X54248505Y-75002315D01*
X54247444Y-75003281D01*
X54238696Y-75008929D01*
X54232250Y-75017106D01*
X54217771Y-75035472D01*
X54213794Y-75039947D01*
X54213865Y-75040008D01*
X54210512Y-75043965D01*
X54206829Y-75047648D01*
X54203803Y-75051883D01*
X54203801Y-75051885D01*
X54195547Y-75063436D01*
X54191982Y-75068185D01*
X54168523Y-75097943D01*
X54160066Y-75108670D01*
X54157015Y-75117357D01*
X54151666Y-75124843D01*
X54148683Y-75134819D01*
X54148682Y-75134820D01*
X54136902Y-75174211D01*
X54135072Y-75179843D01*
X54117984Y-75228502D01*
X54117500Y-75234091D01*
X54117500Y-75236802D01*
X54117385Y-75239469D01*
X54117366Y-75239532D01*
X54117192Y-75239525D01*
X54117145Y-75240271D01*
X54115275Y-75246524D01*
X54116523Y-75278286D01*
X54117403Y-75300678D01*
X54117500Y-75305625D01*
X54117500Y-80997865D01*
X54114914Y-81022164D01*
X54114846Y-81023602D01*
X54112655Y-81033780D01*
X51614000Y-81033780D01*
X51614000Y-73540950D01*
X51634002Y-73472829D01*
X51650905Y-73451855D01*
X53135755Y-71967005D01*
X53198067Y-71932979D01*
X53224850Y-71930100D01*
X74857500Y-71930100D01*
X74925621Y-71950102D01*
X74972114Y-72003758D01*
X74983500Y-72056100D01*
X74983500Y-73371544D01*
X74982627Y-73386353D01*
X74978593Y-73420438D01*
X74980285Y-73429702D01*
X74980285Y-73429705D01*
X74989229Y-73478680D01*
X74989878Y-73482582D01*
X74996140Y-73524227D01*
X74998685Y-73541151D01*
X75001838Y-73547718D01*
X75003147Y-73554883D01*
X75030462Y-73607467D01*
X75032205Y-73610957D01*
X75057846Y-73664353D01*
X75062741Y-73669648D01*
X75062834Y-73669787D01*
X75066148Y-73676166D01*
X75070494Y-73681254D01*
X75108076Y-73718836D01*
X75111506Y-73722401D01*
X75150617Y-73764712D01*
X75157017Y-73768430D01*
X75163277Y-73774037D01*
X77759251Y-76370011D01*
X77769106Y-76381100D01*
X77790359Y-76408059D01*
X77798106Y-76413413D01*
X77839094Y-76441742D01*
X77842287Y-76444024D01*
X77889924Y-76479209D01*
X77896797Y-76481623D01*
X77902789Y-76485764D01*
X77949910Y-76500666D01*
X77959270Y-76503626D01*
X77962999Y-76504871D01*
X78018874Y-76524493D01*
X78026078Y-76524776D01*
X78026249Y-76524809D01*
X78033097Y-76526975D01*
X78039768Y-76527500D01*
X78092939Y-76527500D01*
X78097885Y-76527597D01*
X78155438Y-76529858D01*
X78162593Y-76527961D01*
X78170968Y-76527500D01*
X79621690Y-76527500D01*
X79623998Y-76527521D01*
X79685755Y-76528653D01*
X79689233Y-76527705D01*
X79692534Y-76527500D01*
X80383690Y-76527500D01*
X80385998Y-76527521D01*
X80447755Y-76528653D01*
X80456417Y-76526291D01*
X80456420Y-76526291D01*
X80477859Y-76520446D01*
X80492268Y-76517409D01*
X80500009Y-76516245D01*
X80526151Y-76512315D01*
X80540075Y-76505629D01*
X80561467Y-76497651D01*
X80573360Y-76494409D01*
X80583206Y-76488363D01*
X80603424Y-76475950D01*
X80614810Y-76469742D01*
X80640862Y-76457232D01*
X80640866Y-76457229D01*
X80649353Y-76453154D01*
X80656268Y-76446762D01*
X80656271Y-76446760D01*
X80657697Y-76445442D01*
X80675400Y-76432028D01*
X80676656Y-76430986D01*
X80684306Y-76426288D01*
X80710726Y-76397098D01*
X80718599Y-76389144D01*
X80749712Y-76360383D01*
X80754444Y-76352236D01*
X80757597Y-76348301D01*
X80760770Y-76343958D01*
X80760629Y-76343863D01*
X80765646Y-76336424D01*
X80771672Y-76329767D01*
X80790608Y-76290683D01*
X80795045Y-76282339D01*
X80813626Y-76250349D01*
X80813627Y-76250346D01*
X80818357Y-76242203D01*
X80820483Y-76233031D01*
X80821965Y-76229288D01*
X80821794Y-76229233D01*
X80824522Y-76220684D01*
X80828437Y-76212604D01*
X80836322Y-76165734D01*
X80837830Y-76158186D01*
X80847090Y-76118237D01*
X80849217Y-76109062D01*
X80848552Y-76099663D01*
X80849290Y-76090280D01*
X80849310Y-76090282D01*
X80849328Y-76088435D01*
X80850037Y-76084219D01*
X80850174Y-76073000D01*
X80844815Y-76035577D01*
X80843870Y-76028977D01*
X80842913Y-76020016D01*
X80840231Y-75982135D01*
X80840230Y-75982133D01*
X80839565Y-75972734D01*
X80836165Y-75963945D01*
X80835679Y-75961772D01*
X80834764Y-75959072D01*
X80832989Y-75953003D01*
X80831718Y-75944125D01*
X80828006Y-75935961D01*
X80828004Y-75935954D01*
X80811615Y-75899909D01*
X80808816Y-75893251D01*
X80790253Y-75845270D01*
X80784420Y-75837871D01*
X80783438Y-75836149D01*
X80781181Y-75832976D01*
X80777832Y-75825610D01*
X80745327Y-75787885D01*
X80743447Y-75785703D01*
X80739953Y-75781465D01*
X80711468Y-75745333D01*
X80705641Y-75737941D01*
X80697897Y-75732588D01*
X80696761Y-75731521D01*
X80692850Y-75726983D01*
X80685319Y-75722102D01*
X80685316Y-75722099D01*
X80645148Y-75696063D01*
X80642042Y-75693984D01*
X80600960Y-75665591D01*
X80600957Y-75665589D01*
X80593211Y-75660236D01*
X80586689Y-75658173D01*
X80583601Y-75656172D01*
X80524968Y-75638637D01*
X80523110Y-75638066D01*
X80462903Y-75619025D01*
X80456232Y-75618500D01*
X80398799Y-75618500D01*
X80398029Y-75618498D01*
X80332285Y-75618096D01*
X80328683Y-75618074D01*
X80327454Y-75618425D01*
X80326357Y-75618500D01*
X79636799Y-75618500D01*
X79636029Y-75618498D01*
X79570285Y-75618096D01*
X79566683Y-75618074D01*
X79565454Y-75618425D01*
X79564357Y-75618500D01*
X78345450Y-75618500D01*
X78277329Y-75598498D01*
X78256355Y-75581595D01*
X75929405Y-73254645D01*
X75895379Y-73192333D01*
X75892500Y-73165550D01*
X75892500Y-72012951D01*
X75912502Y-71944830D01*
X75960416Y-71901138D01*
X75994568Y-71883397D01*
X75995042Y-71883151D01*
X75998557Y-71881394D01*
X76051953Y-71855754D01*
X76057248Y-71850859D01*
X76057387Y-71850766D01*
X76063766Y-71847452D01*
X76068854Y-71843106D01*
X76106436Y-71805524D01*
X76110002Y-71802094D01*
X76145398Y-71769374D01*
X76152312Y-71762983D01*
X76156030Y-71756583D01*
X76161637Y-71750323D01*
X76343265Y-71568695D01*
X78671066Y-71568695D01*
X78680948Y-71581184D01*
X78712239Y-71602092D01*
X78722349Y-71607582D01*
X78898835Y-71683406D01*
X78909778Y-71686961D01*
X79097120Y-71729353D01*
X79108530Y-71730855D01*
X79300469Y-71738396D01*
X79311951Y-71737794D01*
X79502045Y-71710233D01*
X79513240Y-71707545D01*
X79695131Y-71645801D01*
X79705628Y-71641127D01*
X79816032Y-71579299D01*
X79825895Y-71569222D01*
X79822940Y-71561552D01*
X79804683Y-71543295D01*
X84411466Y-71543295D01*
X84421348Y-71555784D01*
X84452639Y-71576692D01*
X84462749Y-71582182D01*
X84639235Y-71658006D01*
X84650178Y-71661561D01*
X84837520Y-71703953D01*
X84848930Y-71705455D01*
X85040869Y-71712996D01*
X85052351Y-71712394D01*
X85242445Y-71684833D01*
X85253640Y-71682145D01*
X85435531Y-71620401D01*
X85446028Y-71615727D01*
X85556432Y-71553899D01*
X85566295Y-71543822D01*
X85563340Y-71536152D01*
X85001211Y-70974022D01*
X84987268Y-70966409D01*
X84985434Y-70966540D01*
X84978820Y-70970791D01*
X84417659Y-71531953D01*
X84411466Y-71543295D01*
X79804683Y-71543295D01*
X79260811Y-70999422D01*
X79246868Y-70991809D01*
X79245034Y-70991940D01*
X79238420Y-70996191D01*
X78677259Y-71557353D01*
X78671066Y-71568695D01*
X76343265Y-71568695D01*
X78187991Y-69723969D01*
X78250303Y-69689943D01*
X78321118Y-69695008D01*
X78377954Y-69737555D01*
X78400665Y-69788485D01*
X78408266Y-69826702D01*
X78404662Y-69827419D01*
X78409966Y-69876740D01*
X78384917Y-69932377D01*
X78318349Y-70016819D01*
X78312081Y-70026470D01*
X78222649Y-70196453D01*
X78218240Y-70207096D01*
X78161281Y-70390533D01*
X78158891Y-70401777D01*
X78136313Y-70592538D01*
X78136012Y-70604039D01*
X78148575Y-70795705D01*
X78150376Y-70807075D01*
X78197657Y-70993244D01*
X78201498Y-71004091D01*
X78281916Y-71178531D01*
X78287664Y-71188487D01*
X78293788Y-71197152D01*
X78304377Y-71205541D01*
X78317676Y-71198514D01*
X79158905Y-70357286D01*
X79221217Y-70323261D01*
X79292033Y-70328326D01*
X79337095Y-70357286D01*
X80178239Y-71198429D01*
X80190614Y-71205186D01*
X80197194Y-71200260D01*
X80261726Y-71085029D01*
X80266400Y-71074532D01*
X80328144Y-70892641D01*
X80330832Y-70881446D01*
X80358689Y-70689312D01*
X80359319Y-70681929D01*
X80360650Y-70631105D01*
X80360407Y-70623706D01*
X80356266Y-70578639D01*
X83876412Y-70578639D01*
X83888975Y-70770305D01*
X83890776Y-70781675D01*
X83938057Y-70967844D01*
X83941898Y-70978691D01*
X84022316Y-71153131D01*
X84028064Y-71163087D01*
X84034188Y-71171752D01*
X84044777Y-71180141D01*
X84058076Y-71173114D01*
X84899305Y-70331886D01*
X84961617Y-70297861D01*
X85032433Y-70302926D01*
X85077495Y-70331886D01*
X85918639Y-71173029D01*
X85931014Y-71179786D01*
X85937594Y-71174860D01*
X86002126Y-71059629D01*
X86006800Y-71049132D01*
X86068544Y-70867241D01*
X86071232Y-70856046D01*
X86099089Y-70663912D01*
X86099719Y-70656529D01*
X86101050Y-70605705D01*
X86100807Y-70598306D01*
X86083043Y-70404976D01*
X86080945Y-70393655D01*
X86028808Y-70208792D01*
X86024683Y-70198045D01*
X85939728Y-70025773D01*
X85933718Y-70015965D01*
X85849798Y-69903583D01*
X85825066Y-69837033D01*
X85830791Y-69801830D01*
X85828134Y-69801302D01*
X85841693Y-69733136D01*
X85842900Y-69727068D01*
X85842900Y-69418342D01*
X97854951Y-69418342D01*
X97855248Y-69423494D01*
X97855248Y-69423498D01*
X97860197Y-69509329D01*
X97868719Y-69657121D01*
X97869856Y-69662167D01*
X97869857Y-69662173D01*
X97888812Y-69746281D01*
X97921301Y-69890446D01*
X98011284Y-70112049D01*
X98136254Y-70315980D01*
X98292852Y-70496762D01*
X98476874Y-70649540D01*
X98481326Y-70652142D01*
X98481331Y-70652145D01*
X98659686Y-70756367D01*
X98683377Y-70770211D01*
X98906817Y-70855534D01*
X98911883Y-70856565D01*
X98911884Y-70856565D01*
X98964359Y-70867241D01*
X99141191Y-70903218D01*
X99275499Y-70908143D01*
X99375043Y-70911794D01*
X99375048Y-70911794D01*
X99380207Y-70911983D01*
X99385327Y-70911327D01*
X99385329Y-70911327D01*
X99612316Y-70882249D01*
X99612317Y-70882249D01*
X99617444Y-70881592D01*
X99622394Y-70880107D01*
X99841577Y-70814349D01*
X99841582Y-70814347D01*
X99846532Y-70812862D01*
X100061319Y-70707639D01*
X100065524Y-70704639D01*
X100065530Y-70704636D01*
X100251832Y-70571748D01*
X100251834Y-70571746D01*
X100256036Y-70568749D01*
X100425454Y-70399921D01*
X100565023Y-70205690D01*
X100568802Y-70198045D01*
X100668701Y-69995914D01*
X100668702Y-69995912D01*
X100670995Y-69991272D01*
X100740524Y-69762425D01*
X100741835Y-69752467D01*
X100771306Y-69528617D01*
X100771306Y-69528613D01*
X100771743Y-69525296D01*
X100772055Y-69512522D01*
X100773403Y-69457365D01*
X100773403Y-69457361D01*
X100773485Y-69454000D01*
X100753887Y-69215628D01*
X100695620Y-68983658D01*
X100621376Y-68812907D01*
X100602309Y-68769056D01*
X100602307Y-68769053D01*
X100600249Y-68764319D01*
X100470335Y-68563502D01*
X100455230Y-68546901D01*
X100312844Y-68390422D01*
X100312842Y-68390421D01*
X100309366Y-68386600D01*
X100305315Y-68383401D01*
X100305311Y-68383397D01*
X100125725Y-68241569D01*
X100121667Y-68238364D01*
X99986367Y-68163674D01*
X99916808Y-68125275D01*
X99916805Y-68125274D01*
X99912277Y-68122774D01*
X99686819Y-68042936D01*
X99638046Y-68034248D01*
X99456438Y-68001898D01*
X99456434Y-68001898D01*
X99451350Y-68000992D01*
X99367548Y-67999968D01*
X99217360Y-67998133D01*
X99217358Y-67998133D01*
X99212191Y-67998070D01*
X99053680Y-68022326D01*
X98980876Y-68033466D01*
X98980874Y-68033467D01*
X98975767Y-68034248D01*
X98943906Y-68044662D01*
X98753340Y-68106949D01*
X98753338Y-68106950D01*
X98748427Y-68108555D01*
X98536275Y-68218994D01*
X98532142Y-68222097D01*
X98532139Y-68222099D01*
X98349145Y-68359495D01*
X98345010Y-68362600D01*
X98292280Y-68417779D01*
X98211477Y-68502334D01*
X98179767Y-68535516D01*
X98044985Y-68733099D01*
X98015102Y-68797477D01*
X97972165Y-68889978D01*
X97944284Y-68950042D01*
X97880366Y-69180520D01*
X97879817Y-69185654D01*
X97879817Y-69185656D01*
X97876614Y-69215628D01*
X97854951Y-69418342D01*
X85842900Y-69418342D01*
X85842899Y-68476935D01*
X85835788Y-68441183D01*
X85830556Y-68414875D01*
X85830555Y-68414873D01*
X85828134Y-68402700D01*
X85817377Y-68386600D01*
X85778777Y-68328833D01*
X85771884Y-68318517D01*
X85733013Y-68292544D01*
X85698020Y-68269162D01*
X85687701Y-68262267D01*
X85613467Y-68247501D01*
X84988502Y-68247501D01*
X84363334Y-68247502D01*
X84327582Y-68254613D01*
X84301274Y-68259845D01*
X84301272Y-68259846D01*
X84289099Y-68262267D01*
X84278779Y-68269162D01*
X84278778Y-68269163D01*
X84243787Y-68292544D01*
X84204916Y-68318517D01*
X84148666Y-68402700D01*
X84133900Y-68476934D01*
X84133901Y-69727067D01*
X84139914Y-69757299D01*
X84148666Y-69801302D01*
X84145062Y-69802019D01*
X84150366Y-69851340D01*
X84125317Y-69906977D01*
X84058749Y-69991419D01*
X84052481Y-70001070D01*
X83963049Y-70171053D01*
X83958640Y-70181696D01*
X83901681Y-70365133D01*
X83899291Y-70376377D01*
X83876713Y-70567138D01*
X83876412Y-70578639D01*
X80356266Y-70578639D01*
X80342643Y-70430376D01*
X80340545Y-70419055D01*
X80288408Y-70234192D01*
X80284283Y-70223445D01*
X80199328Y-70051173D01*
X80193318Y-70041365D01*
X80109398Y-69928983D01*
X80084666Y-69862433D01*
X80090391Y-69827230D01*
X80087734Y-69826702D01*
X80101293Y-69758536D01*
X80102500Y-69752468D01*
X80102500Y-69634901D01*
X80122502Y-69566780D01*
X80176158Y-69520287D01*
X80228500Y-69508901D01*
X80424464Y-69508901D01*
X80448763Y-69511487D01*
X80450201Y-69511555D01*
X80460379Y-69513746D01*
X80493940Y-69509774D01*
X80499919Y-69509422D01*
X80499911Y-69509329D01*
X80505089Y-69508901D01*
X80510291Y-69508901D01*
X80529445Y-69505713D01*
X80535303Y-69504879D01*
X80551917Y-69502913D01*
X80576166Y-69500043D01*
X80576167Y-69500043D01*
X80586506Y-69498819D01*
X80594805Y-69494834D01*
X80603882Y-69493323D01*
X80649250Y-69468843D01*
X80654513Y-69466162D01*
X80693849Y-69447274D01*
X80693853Y-69447271D01*
X80700997Y-69443841D01*
X80705291Y-69440231D01*
X80707223Y-69438299D01*
X80709172Y-69436512D01*
X80709225Y-69436483D01*
X80709344Y-69436613D01*
X80709912Y-69436112D01*
X80715656Y-69433013D01*
X80752466Y-69393192D01*
X80755895Y-69389627D01*
X83179118Y-66966405D01*
X83241430Y-66932379D01*
X83268213Y-66929500D01*
X103831865Y-66929500D01*
X103856164Y-66932086D01*
X103857602Y-66932154D01*
X103867780Y-66934345D01*
X103901341Y-66930373D01*
X103907320Y-66930021D01*
X103907312Y-66929928D01*
X103912490Y-66929500D01*
X103917692Y-66929500D01*
X103936846Y-66926312D01*
X103942704Y-66925478D01*
X103959318Y-66923512D01*
X103983567Y-66920642D01*
X103983568Y-66920642D01*
X103993907Y-66919418D01*
X104002206Y-66915433D01*
X104011283Y-66913922D01*
X104056651Y-66889442D01*
X104061914Y-66886761D01*
X104101250Y-66867873D01*
X104101254Y-66867870D01*
X104108398Y-66864440D01*
X104112692Y-66860830D01*
X104114624Y-66858898D01*
X104116573Y-66857111D01*
X104116626Y-66857082D01*
X104116745Y-66857212D01*
X104117313Y-66856711D01*
X104123057Y-66853612D01*
X104159854Y-66813805D01*
X104163284Y-66810238D01*
X104625483Y-66348040D01*
X104644494Y-66332686D01*
X104645556Y-66331720D01*
X104654304Y-66326071D01*
X104660748Y-66317896D01*
X104660751Y-66317894D01*
X104675229Y-66299528D01*
X104679208Y-66295050D01*
X104679137Y-66294990D01*
X104682490Y-66291033D01*
X104686171Y-66287352D01*
X104697469Y-66271543D01*
X104701032Y-66266798D01*
X104720275Y-66242388D01*
X104732934Y-66226330D01*
X104735984Y-66217645D01*
X104741334Y-66210158D01*
X104756109Y-66160753D01*
X104757930Y-66155150D01*
X104772388Y-66113981D01*
X104775016Y-66106498D01*
X104775500Y-66100909D01*
X104775500Y-66098196D01*
X104775615Y-66095531D01*
X104775634Y-66095468D01*
X104775808Y-66095475D01*
X104775855Y-66094729D01*
X104777725Y-66088476D01*
X104775597Y-66034322D01*
X104775500Y-66029375D01*
X104775500Y-25611640D01*
X104778087Y-25587324D01*
X104778154Y-25585901D01*
X104780346Y-25575720D01*
X104776373Y-25542152D01*
X104776021Y-25536178D01*
X104775928Y-25536186D01*
X104775500Y-25531008D01*
X104775500Y-25525808D01*
X104774646Y-25520676D01*
X104772314Y-25506665D01*
X104771477Y-25500786D01*
X104766642Y-25459933D01*
X104766642Y-25459932D01*
X104765418Y-25449593D01*
X104761433Y-25441294D01*
X104759922Y-25432217D01*
X104735442Y-25386849D01*
X104732761Y-25381586D01*
X104713869Y-25342243D01*
X104710440Y-25335102D01*
X104706831Y-25330808D01*
X104704905Y-25328882D01*
X104703109Y-25326924D01*
X104703079Y-25326867D01*
X104703208Y-25326749D01*
X104702710Y-25326184D01*
X104699612Y-25320443D01*
X104659804Y-25283645D01*
X104656239Y-25280216D01*
X104061695Y-24685672D01*
X104027669Y-24623360D01*
X104031232Y-24556806D01*
X104062187Y-24463750D01*
X104064135Y-24457894D01*
X104071801Y-24397211D01*
X104088678Y-24263623D01*
X104088679Y-24263613D01*
X104089120Y-24260120D01*
X104089518Y-24231600D01*
X104070065Y-24033206D01*
X104068284Y-24027307D01*
X104068283Y-24027302D01*
X104014229Y-23848267D01*
X104012448Y-23842368D01*
X103927534Y-23682667D01*
X103921755Y-23671798D01*
X103921753Y-23671795D01*
X103918861Y-23666356D01*
X103914971Y-23661586D01*
X103914968Y-23661582D01*
X103796763Y-23516649D01*
X103796760Y-23516646D01*
X103792868Y-23511874D01*
X103639270Y-23384806D01*
X103463915Y-23289992D01*
X103273485Y-23231044D01*
X103267360Y-23230400D01*
X103267359Y-23230400D01*
X103081360Y-23210851D01*
X103081358Y-23210851D01*
X103075231Y-23210207D01*
X102952352Y-23221390D01*
X102882846Y-23227715D01*
X102882845Y-23227715D01*
X102876705Y-23228274D01*
X102870791Y-23230015D01*
X102870789Y-23230015D01*
X102740639Y-23268321D01*
X102685470Y-23284558D01*
X102508809Y-23376914D01*
X102504009Y-23380774D01*
X102504008Y-23380774D01*
X102498993Y-23384806D01*
X102353451Y-23501825D01*
X102225314Y-23654533D01*
X102129279Y-23829221D01*
X102127418Y-23835088D01*
X102127417Y-23835090D01*
X102099140Y-23924228D01*
X102069002Y-24019235D01*
X102046782Y-24217339D01*
X102063462Y-24415986D01*
X102118410Y-24607609D01*
X102209530Y-24784911D01*
X102333353Y-24941137D01*
X102485163Y-25070337D01*
X102490541Y-25073343D01*
X102490543Y-25073344D01*
X102515325Y-25087194D01*
X102659176Y-25167589D01*
X102665035Y-25169493D01*
X102665038Y-25169494D01*
X102709351Y-25183892D01*
X102848765Y-25229191D01*
X102854875Y-25229920D01*
X102854877Y-25229920D01*
X102922414Y-25237973D01*
X103046709Y-25252794D01*
X103052844Y-25252322D01*
X103052846Y-25252322D01*
X103239326Y-25237973D01*
X103239331Y-25237972D01*
X103245467Y-25237500D01*
X103251401Y-25235843D01*
X103251408Y-25235842D01*
X103400482Y-25194220D01*
X103471472Y-25195166D01*
X103523461Y-25226483D01*
X103975595Y-25678617D01*
X104009621Y-25740929D01*
X104012500Y-25767712D01*
X104012500Y-52003199D01*
X103992498Y-52071320D01*
X103938842Y-52117813D01*
X103868568Y-52127917D01*
X103803988Y-52098423D01*
X103797095Y-52091984D01*
X103796763Y-52091649D01*
X103792868Y-52086874D01*
X103639270Y-51959806D01*
X103463915Y-51864992D01*
X103273485Y-51806044D01*
X103267360Y-51805400D01*
X103267359Y-51805400D01*
X103081360Y-51785851D01*
X103081358Y-51785851D01*
X103075231Y-51785207D01*
X102952352Y-51796390D01*
X102882846Y-51802715D01*
X102882845Y-51802715D01*
X102876705Y-51803274D01*
X102870791Y-51805015D01*
X102870789Y-51805015D01*
X102740639Y-51843321D01*
X102685470Y-51859558D01*
X102508809Y-51951914D01*
X102504009Y-51955774D01*
X102504008Y-51955774D01*
X102498993Y-51959806D01*
X102353451Y-52076825D01*
X102225314Y-52229533D01*
X102129279Y-52404221D01*
X102069002Y-52594235D01*
X102046782Y-52792339D01*
X102063462Y-52990986D01*
X102118410Y-53182609D01*
X102209530Y-53359911D01*
X102333353Y-53516137D01*
X102338046Y-53520131D01*
X102338047Y-53520132D01*
X102354608Y-53534226D01*
X102485163Y-53645337D01*
X102490541Y-53648343D01*
X102490543Y-53648344D01*
X102532497Y-53671791D01*
X102659176Y-53742589D01*
X102665035Y-53744493D01*
X102665038Y-53744494D01*
X102700801Y-53756114D01*
X102848765Y-53804191D01*
X102854875Y-53804920D01*
X102854877Y-53804920D01*
X102922414Y-53812973D01*
X103046709Y-53827794D01*
X103052844Y-53827322D01*
X103052846Y-53827322D01*
X103239326Y-53812973D01*
X103239331Y-53812972D01*
X103245467Y-53812500D01*
X103251397Y-53810844D01*
X103251399Y-53810844D01*
X103341468Y-53785696D01*
X103437470Y-53758892D01*
X103442970Y-53756114D01*
X103609902Y-53671791D01*
X103609904Y-53671790D01*
X103615403Y-53669012D01*
X103772490Y-53546282D01*
X103791120Y-53524698D01*
X103850771Y-53486203D01*
X103921768Y-53486067D01*
X103981567Y-53524337D01*
X104011183Y-53588862D01*
X104012500Y-53607031D01*
X104012500Y-65829787D01*
X103992498Y-65897908D01*
X103975595Y-65918883D01*
X103764881Y-66129596D01*
X103702569Y-66163621D01*
X103675786Y-66166500D01*
X83112140Y-66166500D01*
X83087824Y-66163913D01*
X83086401Y-66163846D01*
X83076220Y-66161654D01*
X83042681Y-66165624D01*
X83042652Y-66165627D01*
X83036678Y-66165979D01*
X83036686Y-66166072D01*
X83031508Y-66166500D01*
X83026308Y-66166500D01*
X83021179Y-66167354D01*
X83021176Y-66167354D01*
X83007165Y-66169686D01*
X83001286Y-66170523D01*
X82960433Y-66175358D01*
X82960432Y-66175358D01*
X82950093Y-66176582D01*
X82941794Y-66180567D01*
X82932717Y-66182078D01*
X82887349Y-66206558D01*
X82882086Y-66209239D01*
X82842750Y-66228127D01*
X82842746Y-66228130D01*
X82835602Y-66231560D01*
X82831308Y-66235170D01*
X82829376Y-66237102D01*
X82827427Y-66238889D01*
X82827374Y-66238918D01*
X82827255Y-66238788D01*
X82826687Y-66239289D01*
X82820943Y-66242388D01*
X82813876Y-66250033D01*
X82784134Y-66282208D01*
X82780704Y-66285774D01*
X80357481Y-68708996D01*
X80295169Y-68743022D01*
X80268386Y-68745901D01*
X80228499Y-68745901D01*
X80160378Y-68725899D01*
X80113885Y-68672243D01*
X80102499Y-68619901D01*
X80102499Y-68502335D01*
X80087734Y-68428100D01*
X80078898Y-68414875D01*
X80038377Y-68354233D01*
X80031484Y-68343917D01*
X79947301Y-68287667D01*
X79873067Y-68272901D01*
X79248102Y-68272901D01*
X78622934Y-68272902D01*
X78587182Y-68280013D01*
X78560874Y-68285245D01*
X78560872Y-68285246D01*
X78548699Y-68287667D01*
X78538379Y-68294562D01*
X78538378Y-68294563D01*
X78477985Y-68334917D01*
X78464516Y-68343917D01*
X78408266Y-68428100D01*
X78393500Y-68502334D01*
X78393500Y-68546901D01*
X78373498Y-68615022D01*
X78319842Y-68661515D01*
X78267500Y-68672901D01*
X78176255Y-68672901D01*
X78161446Y-68672028D01*
X78136714Y-68669101D01*
X78127361Y-68667994D01*
X78118097Y-68669686D01*
X78118094Y-68669686D01*
X78069119Y-68678630D01*
X78065217Y-68679279D01*
X78015963Y-68686685D01*
X78015960Y-68686686D01*
X78006648Y-68688086D01*
X78000081Y-68691239D01*
X77992916Y-68692548D01*
X77940332Y-68719863D01*
X77936842Y-68721606D01*
X77883446Y-68747247D01*
X77878151Y-68752142D01*
X77878012Y-68752235D01*
X77871633Y-68755549D01*
X77866545Y-68759895D01*
X77828963Y-68797477D01*
X77825398Y-68800907D01*
X77783087Y-68840018D01*
X77779369Y-68846418D01*
X77773762Y-68852678D01*
X75642245Y-70984195D01*
X75579933Y-71018221D01*
X75553150Y-71021100D01*
X53018856Y-71021100D01*
X53004047Y-71020227D01*
X52979315Y-71017300D01*
X52969962Y-71016193D01*
X52960698Y-71017885D01*
X52960697Y-71017885D01*
X52911710Y-71026832D01*
X52907806Y-71027482D01*
X52849249Y-71036285D01*
X52842683Y-71039438D01*
X52835516Y-71040747D01*
X52799166Y-71059629D01*
X52782974Y-71068040D01*
X52779437Y-71069808D01*
X52726047Y-71095446D01*
X52720751Y-71100342D01*
X52720615Y-71100434D01*
X52714234Y-71103748D01*
X52709146Y-71108094D01*
X52671564Y-71145676D01*
X52667999Y-71149106D01*
X52625688Y-71188217D01*
X52621970Y-71194617D01*
X52616363Y-71200877D01*
X50862489Y-72954751D01*
X50851400Y-72964606D01*
X50824441Y-72985859D01*
X50819087Y-72993606D01*
X50790758Y-73034594D01*
X50788476Y-73037787D01*
X50753291Y-73085424D01*
X50750877Y-73092297D01*
X50746736Y-73098289D01*
X50736980Y-73129138D01*
X50728874Y-73154770D01*
X50727629Y-73158499D01*
X50708007Y-73214374D01*
X50707724Y-73221578D01*
X50707691Y-73221749D01*
X50705525Y-73228597D01*
X50705000Y-73235268D01*
X50705000Y-73288438D01*
X50704903Y-73293384D01*
X50702642Y-73350937D01*
X50704539Y-73358092D01*
X50705000Y-73366467D01*
X50705000Y-83241479D01*
X50684998Y-83309600D01*
X50631342Y-83356093D01*
X50618573Y-83361077D01*
X50618284Y-83361199D01*
X50613369Y-83362805D01*
X50515213Y-83413902D01*
X50426679Y-83459990D01*
X50408510Y-83469448D01*
X50404377Y-83472551D01*
X50404374Y-83472553D01*
X50227954Y-83605013D01*
X50223819Y-83608118D01*
X50064257Y-83775090D01*
X49934109Y-83965881D01*
X49931935Y-83970565D01*
X49931933Y-83970568D01*
X49848224Y-84150904D01*
X49836869Y-84175366D01*
X49775149Y-84397921D01*
X49750607Y-84627567D01*
X18116594Y-84627567D01*
X18125930Y-84512791D01*
X18126350Y-84472667D01*
X18126512Y-84457221D01*
X18126512Y-84457214D01*
X18126535Y-84455000D01*
X18123195Y-84399586D01*
X18106777Y-84127256D01*
X18106777Y-84127252D01*
X18106549Y-84123478D01*
X18105869Y-84119754D01*
X18047559Y-83800481D01*
X18047558Y-83800477D01*
X18046879Y-83796759D01*
X18043615Y-83786245D01*
X18001260Y-83649840D01*
X17948391Y-83479574D01*
X17946660Y-83475712D01*
X17853168Y-83267198D01*
X17812510Y-83176518D01*
X17641205Y-82891982D01*
X17638878Y-82888998D01*
X17638873Y-82888991D01*
X17439294Y-82633082D01*
X17439292Y-82633079D01*
X17436958Y-82630087D01*
X17202726Y-82394626D01*
X17181865Y-82378180D01*
X16944885Y-82191360D01*
X16941904Y-82189010D01*
X16658269Y-82016218D01*
X16523225Y-81954817D01*
X16359381Y-81880321D01*
X16359373Y-81880318D01*
X16355929Y-81878752D01*
X16039264Y-81778604D01*
X15866828Y-81746178D01*
X15716585Y-81717925D01*
X15716580Y-81717924D01*
X15712861Y-81717225D01*
X15381449Y-81695503D01*
X15377669Y-81695711D01*
X15377668Y-81695711D01*
X15282655Y-81700940D01*
X15049827Y-81713753D01*
X15046100Y-81714414D01*
X15046096Y-81714414D01*
X14866869Y-81746178D01*
X14722799Y-81771711D01*
X14719174Y-81772816D01*
X14719169Y-81772817D01*
X14472671Y-81847945D01*
X14405103Y-81868538D01*
X14101341Y-82002830D01*
X13984133Y-82072561D01*
X13827896Y-82165512D01*
X13815911Y-82172642D01*
X13812910Y-82174957D01*
X13812906Y-82174960D01*
X13650537Y-82300227D01*
X13552950Y-82375515D01*
X13550249Y-82378174D01*
X13550242Y-82378180D01*
X13324933Y-82599979D01*
X13316266Y-82608511D01*
X13313902Y-82611478D01*
X13313899Y-82611481D01*
X13126594Y-82846534D01*
X13109287Y-82868253D01*
X12935012Y-83150980D01*
X12933423Y-83154427D01*
X12813426Y-83414720D01*
X12766742Y-83468210D01*
X12698550Y-83487968D01*
X12630501Y-83467723D01*
X12584200Y-83413902D01*
X12573000Y-83361969D01*
X12573000Y-73664030D01*
X15615655Y-73664030D01*
X15618672Y-73689523D01*
X15619627Y-73697592D01*
X15619979Y-73703570D01*
X15620072Y-73703562D01*
X15620500Y-73708740D01*
X15620500Y-73713942D01*
X15622627Y-73726718D01*
X15623686Y-73733082D01*
X15624523Y-73738961D01*
X15628118Y-73769334D01*
X15630582Y-73790157D01*
X15634567Y-73798456D01*
X15636078Y-73807533D01*
X15660558Y-73852901D01*
X15663239Y-73858164D01*
X15682127Y-73897500D01*
X15682130Y-73897504D01*
X15685560Y-73904648D01*
X15689170Y-73908942D01*
X15691102Y-73910874D01*
X15692889Y-73912823D01*
X15692918Y-73912876D01*
X15692788Y-73912995D01*
X15693289Y-73913563D01*
X15696388Y-73919307D01*
X15704033Y-73926374D01*
X15736209Y-73956117D01*
X15739775Y-73959547D01*
X20475644Y-78695416D01*
X20509670Y-78757728D01*
X20504605Y-78828543D01*
X20500839Y-78837555D01*
X20487754Y-78865744D01*
X20446826Y-78953916D01*
X20436869Y-78975366D01*
X20375149Y-79197921D01*
X20350607Y-79427567D01*
X20350904Y-79432720D01*
X20350904Y-79432723D01*
X20362785Y-79638779D01*
X20363901Y-79658139D01*
X20365038Y-79663185D01*
X20365039Y-79663191D01*
X20379804Y-79728705D01*
X20414676Y-79883442D01*
X20501566Y-80097428D01*
X20622240Y-80294349D01*
X20773455Y-80468916D01*
X20951151Y-80616442D01*
X20955603Y-80619044D01*
X20955608Y-80619047D01*
X21140687Y-80727198D01*
X21150556Y-80732965D01*
X21366314Y-80815355D01*
X21371380Y-80816386D01*
X21371381Y-80816386D01*
X21422042Y-80826693D01*
X21592632Y-80861400D01*
X21722823Y-80866174D01*
X21818267Y-80869674D01*
X21818271Y-80869674D01*
X21823431Y-80869863D01*
X21828551Y-80869207D01*
X21828553Y-80869207D01*
X21899588Y-80860107D01*
X22052513Y-80840517D01*
X22057461Y-80839032D01*
X22057468Y-80839031D01*
X22268776Y-80775635D01*
X22268775Y-80775635D01*
X22273726Y-80774150D01*
X22481129Y-80672544D01*
X22485334Y-80669544D01*
X22485340Y-80669541D01*
X22664949Y-80541427D01*
X22664951Y-80541425D01*
X22669153Y-80538428D01*
X22832747Y-80375404D01*
X22853962Y-80345881D01*
X22964500Y-80192050D01*
X22967518Y-80187850D01*
X22983203Y-80156115D01*
X23067553Y-79985444D01*
X23069847Y-79980803D01*
X23095866Y-79895166D01*
X23135482Y-79764775D01*
X23135483Y-79764769D01*
X23136986Y-79759823D01*
X23152312Y-79643409D01*
X23166694Y-79534167D01*
X23166694Y-79534161D01*
X23167131Y-79530845D01*
X23168814Y-79462000D01*
X23149890Y-79231822D01*
X23093626Y-79007826D01*
X23001533Y-78796028D01*
X22938764Y-78699002D01*
X22878893Y-78606454D01*
X22878891Y-78606451D01*
X22876085Y-78602114D01*
X22720650Y-78431293D01*
X22614255Y-78347267D01*
X22543456Y-78291353D01*
X22543451Y-78291350D01*
X22539402Y-78288152D01*
X22534886Y-78285659D01*
X22534883Y-78285657D01*
X22341734Y-78179033D01*
X22341730Y-78179031D01*
X22337210Y-78176536D01*
X22332341Y-78174812D01*
X22332337Y-78174810D01*
X22124378Y-78101168D01*
X22124374Y-78101167D01*
X22119503Y-78099442D01*
X22114413Y-78098535D01*
X22114408Y-78098534D01*
X21982273Y-78074998D01*
X21892128Y-78058941D01*
X21805624Y-78057884D01*
X21666361Y-78056182D01*
X21666359Y-78056182D01*
X21661191Y-78056119D01*
X21432894Y-78091053D01*
X21301773Y-78133910D01*
X21218288Y-78161197D01*
X21218286Y-78161198D01*
X21213369Y-78162805D01*
X21208774Y-78165197D01*
X21169514Y-78185634D01*
X21099855Y-78199347D01*
X21033840Y-78173222D01*
X21022239Y-78162966D01*
X16420405Y-73561132D01*
X16386379Y-73498820D01*
X16383500Y-73472037D01*
X16383500Y-70464280D01*
X17393655Y-70464280D01*
X17394879Y-70474620D01*
X17397627Y-70497842D01*
X17397979Y-70503820D01*
X17398072Y-70503812D01*
X17398500Y-70508990D01*
X17398500Y-70514192D01*
X17399354Y-70519322D01*
X17401686Y-70533332D01*
X17402522Y-70539204D01*
X17408582Y-70590407D01*
X17412567Y-70598706D01*
X17414078Y-70607783D01*
X17438558Y-70653151D01*
X17441239Y-70658414D01*
X17460127Y-70697750D01*
X17460130Y-70697754D01*
X17463560Y-70704898D01*
X17467170Y-70709192D01*
X17469102Y-70711124D01*
X17470889Y-70713073D01*
X17470918Y-70713126D01*
X17470788Y-70713246D01*
X17471290Y-70713815D01*
X17474388Y-70719557D01*
X17482032Y-70726623D01*
X17514208Y-70756367D01*
X17517773Y-70759796D01*
X20318095Y-73560118D01*
X20352121Y-73622430D01*
X20355000Y-73649213D01*
X20355001Y-74567390D01*
X20355001Y-75487066D01*
X20360946Y-75516955D01*
X20365046Y-75537568D01*
X20369766Y-75561301D01*
X20376661Y-75571620D01*
X20376662Y-75571622D01*
X20398764Y-75604699D01*
X20426016Y-75645484D01*
X20510199Y-75701734D01*
X20584433Y-75716500D01*
X21759310Y-75716500D01*
X22934566Y-75716499D01*
X22970318Y-75709388D01*
X22996626Y-75704156D01*
X22996628Y-75704155D01*
X23008801Y-75701734D01*
X23019121Y-75694839D01*
X23019122Y-75694838D01*
X23082668Y-75652377D01*
X23092984Y-75645484D01*
X23149234Y-75561301D01*
X23164000Y-75487067D01*
X23163999Y-73436934D01*
X23155705Y-73395232D01*
X23151656Y-73374874D01*
X23151655Y-73374872D01*
X23149234Y-73362699D01*
X23113534Y-73309270D01*
X23099877Y-73288832D01*
X23092984Y-73278516D01*
X23008801Y-73222266D01*
X22934567Y-73207500D01*
X22734253Y-73207500D01*
X21096713Y-73207501D01*
X21028592Y-73187499D01*
X21007618Y-73170596D01*
X18441227Y-70604204D01*
X50182651Y-70604204D01*
X50187220Y-70610735D01*
X50400236Y-70741271D01*
X50409030Y-70745752D01*
X50640992Y-70841834D01*
X50650377Y-70844883D01*
X50894517Y-70903496D01*
X50904264Y-70905039D01*
X51154570Y-70924739D01*
X51164430Y-70924739D01*
X51414736Y-70905039D01*
X51424483Y-70903496D01*
X51668623Y-70844883D01*
X51678008Y-70841834D01*
X51909970Y-70745752D01*
X51918764Y-70741271D01*
X52130375Y-70611596D01*
X52136422Y-70602330D01*
X52130415Y-70592125D01*
X51172312Y-69634022D01*
X51158368Y-69626408D01*
X51156535Y-69626539D01*
X51149920Y-69630790D01*
X50190044Y-70590666D01*
X50182651Y-70604204D01*
X18441227Y-70604204D01*
X18198405Y-70361382D01*
X18164379Y-70299070D01*
X18161500Y-70272287D01*
X18161500Y-69266930D01*
X49496761Y-69266930D01*
X49516461Y-69517236D01*
X49518004Y-69526983D01*
X49576617Y-69771123D01*
X49579666Y-69780508D01*
X49675748Y-70012470D01*
X49680229Y-70021264D01*
X49809904Y-70232875D01*
X49819170Y-70238922D01*
X49829375Y-70232915D01*
X50787478Y-69274812D01*
X50793856Y-69263132D01*
X51523908Y-69263132D01*
X51524039Y-69264965D01*
X51528290Y-69271580D01*
X52488166Y-70231456D01*
X52501704Y-70238849D01*
X52508235Y-70234280D01*
X52638771Y-70021264D01*
X52643252Y-70012470D01*
X52739334Y-69780508D01*
X52742383Y-69771123D01*
X52800996Y-69526983D01*
X52802539Y-69517236D01*
X52822239Y-69266930D01*
X52822239Y-69257070D01*
X52802539Y-69006764D01*
X52800996Y-68997017D01*
X52742383Y-68752877D01*
X52739334Y-68743492D01*
X52643252Y-68511530D01*
X52638771Y-68502736D01*
X52509096Y-68291125D01*
X52499830Y-68285078D01*
X52489625Y-68291085D01*
X51531522Y-69249188D01*
X51523908Y-69263132D01*
X50793856Y-69263132D01*
X50795092Y-69260868D01*
X50794961Y-69259035D01*
X50790710Y-69252420D01*
X49830834Y-68292544D01*
X49817296Y-68285151D01*
X49810765Y-68289720D01*
X49680229Y-68502736D01*
X49675748Y-68511530D01*
X49579666Y-68743492D01*
X49576617Y-68752877D01*
X49518004Y-68997017D01*
X49516461Y-69006764D01*
X49496761Y-69257070D01*
X49496761Y-69266930D01*
X18161500Y-69266930D01*
X18161500Y-67921670D01*
X50182578Y-67921670D01*
X50188585Y-67931875D01*
X51146688Y-68889978D01*
X51160632Y-68897592D01*
X51162465Y-68897461D01*
X51169080Y-68893210D01*
X52117290Y-67945000D01*
X54239708Y-67945000D01*
X54258839Y-68163674D01*
X54315653Y-68375703D01*
X54333918Y-68414873D01*
X54406095Y-68569659D01*
X54406098Y-68569664D01*
X54408421Y-68574646D01*
X54411577Y-68579153D01*
X54411578Y-68579155D01*
X54529278Y-68747247D01*
X54534326Y-68754457D01*
X54689543Y-68909674D01*
X54694051Y-68912831D01*
X54694054Y-68912833D01*
X54828202Y-69006764D01*
X54869354Y-69035579D01*
X54874336Y-69037902D01*
X54874341Y-69037905D01*
X54975116Y-69084896D01*
X55068297Y-69128347D01*
X55280326Y-69185161D01*
X55499000Y-69204292D01*
X55717674Y-69185161D01*
X55745630Y-69177670D01*
X59025360Y-69177670D01*
X59031087Y-69185320D01*
X59202242Y-69290205D01*
X59211037Y-69294687D01*
X59421188Y-69381734D01*
X59430573Y-69384783D01*
X59651754Y-69437885D01*
X59661501Y-69439428D01*
X59888270Y-69457275D01*
X59898130Y-69457275D01*
X60124899Y-69439428D01*
X60134646Y-69437885D01*
X60355827Y-69384783D01*
X60365212Y-69381734D01*
X60575363Y-69294687D01*
X60584158Y-69290205D01*
X60751645Y-69187568D01*
X60761107Y-69177110D01*
X60757324Y-69168334D01*
X59906012Y-68317022D01*
X59892068Y-68309408D01*
X59890235Y-68309539D01*
X59883620Y-68313790D01*
X59032120Y-69165290D01*
X59025360Y-69177670D01*
X55745630Y-69177670D01*
X55929703Y-69128347D01*
X56022884Y-69084896D01*
X56123659Y-69037905D01*
X56123664Y-69037902D01*
X56128646Y-69035579D01*
X56169798Y-69006764D01*
X56303946Y-68912833D01*
X56303949Y-68912831D01*
X56308457Y-68909674D01*
X56463674Y-68754457D01*
X56468723Y-68747247D01*
X56586422Y-68579155D01*
X56586423Y-68579153D01*
X56589579Y-68574646D01*
X56591902Y-68569664D01*
X56591905Y-68569659D01*
X56664082Y-68414873D01*
X56682347Y-68375703D01*
X56739161Y-68163674D01*
X56757861Y-67949930D01*
X58380925Y-67949930D01*
X58398772Y-68176699D01*
X58400315Y-68186446D01*
X58453417Y-68407627D01*
X58456466Y-68417012D01*
X58543513Y-68627163D01*
X58547995Y-68635958D01*
X58650632Y-68803445D01*
X58661090Y-68812907D01*
X58669866Y-68809124D01*
X59521178Y-67957812D01*
X59527556Y-67946132D01*
X60257608Y-67946132D01*
X60257739Y-67947965D01*
X60261990Y-67954580D01*
X61113490Y-68806080D01*
X61125870Y-68812840D01*
X61133520Y-68807113D01*
X61238405Y-68635958D01*
X61242887Y-68627163D01*
X61329934Y-68417012D01*
X61332983Y-68407627D01*
X61386085Y-68186446D01*
X61387628Y-68176699D01*
X61405475Y-67949930D01*
X61405475Y-67940070D01*
X61387628Y-67713301D01*
X61386085Y-67703554D01*
X61332983Y-67482373D01*
X61329934Y-67472988D01*
X61242887Y-67262837D01*
X61238405Y-67254042D01*
X61135768Y-67086555D01*
X61125310Y-67077093D01*
X61116534Y-67080876D01*
X60265222Y-67932188D01*
X60257608Y-67946132D01*
X59527556Y-67946132D01*
X59528792Y-67943868D01*
X59528661Y-67942035D01*
X59524410Y-67935420D01*
X58672910Y-67083920D01*
X58660530Y-67077160D01*
X58652880Y-67082887D01*
X58547995Y-67254042D01*
X58543513Y-67262837D01*
X58456466Y-67472988D01*
X58453417Y-67482373D01*
X58400315Y-67703554D01*
X58398772Y-67713301D01*
X58380925Y-67940070D01*
X58380925Y-67949930D01*
X56757861Y-67949930D01*
X56758292Y-67945000D01*
X56739161Y-67726326D01*
X56682347Y-67514297D01*
X56638896Y-67421116D01*
X56591905Y-67320341D01*
X56591902Y-67320336D01*
X56589579Y-67315354D01*
X56463674Y-67135543D01*
X56308457Y-66980326D01*
X56303949Y-66977169D01*
X56303946Y-66977167D01*
X56133155Y-66857578D01*
X56133153Y-66857577D01*
X56128646Y-66854421D01*
X56123664Y-66852098D01*
X56123659Y-66852095D01*
X56022884Y-66805104D01*
X55929703Y-66761653D01*
X55747720Y-66712890D01*
X59025293Y-66712890D01*
X59029076Y-66721666D01*
X59880388Y-67572978D01*
X59894332Y-67580592D01*
X59896165Y-67580461D01*
X59902780Y-67576210D01*
X60754280Y-66724710D01*
X60761040Y-66712330D01*
X60755313Y-66704680D01*
X60584158Y-66599795D01*
X60575363Y-66595313D01*
X60365212Y-66508266D01*
X60355827Y-66505217D01*
X60134646Y-66452115D01*
X60124899Y-66450572D01*
X59898130Y-66432725D01*
X59888270Y-66432725D01*
X59661501Y-66450572D01*
X59651754Y-66452115D01*
X59430573Y-66505217D01*
X59421188Y-66508266D01*
X59211037Y-66595313D01*
X59202242Y-66599795D01*
X59034755Y-66702432D01*
X59025293Y-66712890D01*
X55747720Y-66712890D01*
X55717674Y-66704839D01*
X55499000Y-66685708D01*
X55280326Y-66704839D01*
X55068297Y-66761653D01*
X54975116Y-66805104D01*
X54874341Y-66852095D01*
X54874336Y-66852098D01*
X54869354Y-66854421D01*
X54864847Y-66857577D01*
X54864845Y-66857578D01*
X54694054Y-66977167D01*
X54694051Y-66977169D01*
X54689543Y-66980326D01*
X54534326Y-67135543D01*
X54408421Y-67315354D01*
X54406098Y-67320336D01*
X54406095Y-67320341D01*
X54359104Y-67421116D01*
X54315653Y-67514297D01*
X54258839Y-67726326D01*
X54239708Y-67945000D01*
X52117290Y-67945000D01*
X52128956Y-67933334D01*
X52136349Y-67919796D01*
X52131780Y-67913265D01*
X51918764Y-67782729D01*
X51909970Y-67778248D01*
X51678008Y-67682166D01*
X51668623Y-67679117D01*
X51424483Y-67620504D01*
X51414736Y-67618961D01*
X51164430Y-67599261D01*
X51154570Y-67599261D01*
X50904264Y-67618961D01*
X50894517Y-67620504D01*
X50650377Y-67679117D01*
X50640992Y-67682166D01*
X50409030Y-67778248D01*
X50400236Y-67782729D01*
X50188625Y-67912404D01*
X50182578Y-67921670D01*
X18161500Y-67921670D01*
X18161500Y-51181961D01*
X18181502Y-51113840D01*
X18198405Y-51092866D01*
X18331629Y-50959642D01*
X18393941Y-50925616D01*
X18459659Y-50928904D01*
X18510618Y-50945462D01*
X18560559Y-50961689D01*
X18560563Y-50961690D01*
X18566414Y-50963591D01*
X18572524Y-50964320D01*
X18572526Y-50964320D01*
X18640063Y-50972373D01*
X18764358Y-50987194D01*
X18770493Y-50986722D01*
X18770495Y-50986722D01*
X18956975Y-50972373D01*
X18956980Y-50972372D01*
X18963116Y-50971900D01*
X18969046Y-50970244D01*
X18969048Y-50970244D01*
X19100016Y-50933677D01*
X19155119Y-50918292D01*
X19195736Y-50897775D01*
X19327551Y-50831191D01*
X19327553Y-50831190D01*
X19333052Y-50828412D01*
X19476042Y-50716696D01*
X19485283Y-50709476D01*
X19490139Y-50705682D01*
X19513116Y-50679063D01*
X19616367Y-50559446D01*
X19616368Y-50559444D01*
X19620396Y-50554778D01*
X19718861Y-50381448D01*
X19781784Y-50192294D01*
X19787854Y-50144247D01*
X19806327Y-49998023D01*
X19806328Y-49998013D01*
X19806769Y-49994520D01*
X19807167Y-49966000D01*
X19787714Y-49767606D01*
X19785933Y-49761707D01*
X19785932Y-49761702D01*
X19731878Y-49582667D01*
X19730097Y-49576768D01*
X19636510Y-49400756D01*
X19632620Y-49395986D01*
X19632617Y-49395982D01*
X19514412Y-49251049D01*
X19514409Y-49251046D01*
X19510517Y-49246274D01*
X19356919Y-49119206D01*
X19181564Y-49024392D01*
X18991134Y-48965444D01*
X18985009Y-48964800D01*
X18985008Y-48964800D01*
X18799009Y-48945251D01*
X18799007Y-48945251D01*
X18792880Y-48944607D01*
X18670001Y-48955790D01*
X18600495Y-48962115D01*
X18600494Y-48962115D01*
X18594354Y-48962674D01*
X18588440Y-48964415D01*
X18588438Y-48964415D01*
X18458288Y-49002721D01*
X18403119Y-49018958D01*
X18226458Y-49111314D01*
X18221658Y-49115174D01*
X18221657Y-49115174D01*
X18216642Y-49119206D01*
X18071100Y-49236225D01*
X17942963Y-49388933D01*
X17846928Y-49563621D01*
X17786651Y-49753635D01*
X17764431Y-49951739D01*
X17781111Y-50150386D01*
X17793128Y-50192294D01*
X17823213Y-50297211D01*
X17822763Y-50368206D01*
X17791189Y-50421038D01*
X17548517Y-50663709D01*
X17529506Y-50679063D01*
X17528444Y-50680029D01*
X17519696Y-50685678D01*
X17513252Y-50693853D01*
X17513249Y-50693855D01*
X17498771Y-50712221D01*
X17494794Y-50716696D01*
X17494865Y-50716757D01*
X17491512Y-50720714D01*
X17487829Y-50724397D01*
X17484803Y-50728632D01*
X17484801Y-50728634D01*
X17476547Y-50740185D01*
X17472984Y-50744931D01*
X17441066Y-50785419D01*
X17438015Y-50794106D01*
X17432666Y-50801592D01*
X17429683Y-50811568D01*
X17429682Y-50811569D01*
X17417902Y-50850960D01*
X17416072Y-50856592D01*
X17398984Y-50905251D01*
X17398500Y-50910840D01*
X17398500Y-50913551D01*
X17398385Y-50916218D01*
X17398366Y-50916281D01*
X17398192Y-50916274D01*
X17398145Y-50917020D01*
X17396275Y-50923273D01*
X17396684Y-50933677D01*
X17398403Y-50977427D01*
X17398500Y-50982374D01*
X17398500Y-70428365D01*
X17395914Y-70452664D01*
X17395846Y-70454102D01*
X17393655Y-70464280D01*
X16383500Y-70464280D01*
X16383500Y-41963992D01*
X21108863Y-41963992D01*
X21115651Y-41973693D01*
X21320707Y-42148828D01*
X21325393Y-42152463D01*
X21653755Y-42383240D01*
X21658745Y-42386407D01*
X22007370Y-42585260D01*
X22012651Y-42587950D01*
X22378441Y-42753110D01*
X22383932Y-42755284D01*
X22763647Y-42885290D01*
X22769331Y-42886942D01*
X23159591Y-42980635D01*
X23165406Y-42981744D01*
X23562738Y-43038292D01*
X23568650Y-43038851D01*
X23969531Y-43057756D01*
X23975469Y-43057756D01*
X24376350Y-43038851D01*
X24382262Y-43038292D01*
X24779594Y-42981744D01*
X24785409Y-42980635D01*
X25175669Y-42886942D01*
X25181353Y-42885290D01*
X25561068Y-42755284D01*
X25566559Y-42753110D01*
X25932349Y-42587950D01*
X25937630Y-42585260D01*
X26286255Y-42386407D01*
X26291245Y-42383240D01*
X26619607Y-42152463D01*
X26624293Y-42148828D01*
X26827781Y-41975033D01*
X26834989Y-41963992D01*
X96292863Y-41963992D01*
X96299651Y-41973693D01*
X96504707Y-42148828D01*
X96509393Y-42152463D01*
X96837755Y-42383240D01*
X96842745Y-42386407D01*
X97191370Y-42585260D01*
X97196651Y-42587950D01*
X97562441Y-42753110D01*
X97567932Y-42755284D01*
X97947647Y-42885290D01*
X97953331Y-42886942D01*
X98343591Y-42980635D01*
X98349406Y-42981744D01*
X98746738Y-43038292D01*
X98752650Y-43038851D01*
X99153531Y-43057756D01*
X99159469Y-43057756D01*
X99560350Y-43038851D01*
X99566262Y-43038292D01*
X99963594Y-42981744D01*
X99969409Y-42980635D01*
X100359669Y-42886942D01*
X100365353Y-42885290D01*
X100745068Y-42755284D01*
X100750559Y-42753110D01*
X101116349Y-42587950D01*
X101121630Y-42585260D01*
X101470255Y-42386407D01*
X101475245Y-42383240D01*
X101803607Y-42152463D01*
X101808293Y-42148828D01*
X102011781Y-41975033D01*
X102020211Y-41962120D01*
X102014203Y-41951913D01*
X99169312Y-39107022D01*
X99155368Y-39099408D01*
X99153535Y-39099539D01*
X99146920Y-39103790D01*
X96300255Y-41950455D01*
X96292863Y-41963992D01*
X26834989Y-41963992D01*
X26836211Y-41962120D01*
X26830203Y-41951913D01*
X23985312Y-39107022D01*
X23971368Y-39099408D01*
X23969535Y-39099539D01*
X23962920Y-39103790D01*
X21116255Y-41950455D01*
X21108863Y-41963992D01*
X16383500Y-41963992D01*
X16383500Y-38602187D01*
X19651784Y-38602187D01*
X19658087Y-39003453D01*
X19658461Y-39009399D01*
X19702499Y-39408288D01*
X19703430Y-39414169D01*
X19784813Y-39807151D01*
X19786289Y-39812899D01*
X19904299Y-40196499D01*
X19906303Y-40202064D01*
X20059894Y-40572864D01*
X20062416Y-40578222D01*
X20250208Y-40932900D01*
X20253233Y-40938017D01*
X20473573Y-41273452D01*
X20477063Y-41278255D01*
X20727995Y-41591469D01*
X20729834Y-41593555D01*
X20743197Y-41601127D01*
X20744506Y-41601054D01*
X20751918Y-41596372D01*
X23600478Y-38747812D01*
X23606856Y-38736132D01*
X24336908Y-38736132D01*
X24337039Y-38737965D01*
X24341290Y-38744580D01*
X27190204Y-41593494D01*
X27204148Y-41601108D01*
X27205455Y-41601015D01*
X27212791Y-41596218D01*
X27213089Y-41595911D01*
X27217005Y-41591469D01*
X27467937Y-41278255D01*
X27471427Y-41273452D01*
X27691767Y-40938017D01*
X27694792Y-40932900D01*
X27882584Y-40578222D01*
X27885106Y-40572864D01*
X28038697Y-40202064D01*
X28040701Y-40196499D01*
X28158711Y-39812899D01*
X28160187Y-39807151D01*
X28241570Y-39414169D01*
X28242501Y-39408288D01*
X28286595Y-39008892D01*
X28286943Y-39003971D01*
X28295318Y-38737468D01*
X28295279Y-38732529D01*
X28289132Y-38602187D01*
X94835784Y-38602187D01*
X94842087Y-39003453D01*
X94842461Y-39009399D01*
X94886499Y-39408288D01*
X94887430Y-39414169D01*
X94968813Y-39807151D01*
X94970289Y-39812899D01*
X95088299Y-40196499D01*
X95090303Y-40202064D01*
X95243894Y-40572864D01*
X95246416Y-40578222D01*
X95434208Y-40932900D01*
X95437233Y-40938017D01*
X95657573Y-41273452D01*
X95661063Y-41278255D01*
X95911995Y-41591469D01*
X95913834Y-41593555D01*
X95927197Y-41601127D01*
X95928506Y-41601054D01*
X95935918Y-41596372D01*
X98784478Y-38747812D01*
X98790856Y-38736132D01*
X99520908Y-38736132D01*
X99521039Y-38737965D01*
X99525290Y-38744580D01*
X102374204Y-41593494D01*
X102388148Y-41601108D01*
X102389455Y-41601015D01*
X102396791Y-41596218D01*
X102397089Y-41595911D01*
X102401005Y-41591469D01*
X102651937Y-41278255D01*
X102655427Y-41273452D01*
X102875767Y-40938017D01*
X102878792Y-40932900D01*
X103066584Y-40578222D01*
X103069106Y-40572864D01*
X103222697Y-40202064D01*
X103224701Y-40196499D01*
X103342711Y-39812899D01*
X103344187Y-39807151D01*
X103425570Y-39414169D01*
X103426501Y-39408288D01*
X103470595Y-39008892D01*
X103470943Y-39003971D01*
X103479318Y-38737468D01*
X103479279Y-38732529D01*
X103460351Y-38331150D01*
X103459792Y-38325238D01*
X103403244Y-37927906D01*
X103402135Y-37922091D01*
X103308442Y-37531831D01*
X103306790Y-37526147D01*
X103176784Y-37146432D01*
X103174610Y-37140941D01*
X103009450Y-36775151D01*
X103006760Y-36769870D01*
X102807907Y-36421245D01*
X102804740Y-36416255D01*
X102573963Y-36087893D01*
X102570328Y-36083207D01*
X102396533Y-35879719D01*
X102383620Y-35871289D01*
X102373413Y-35877297D01*
X99528522Y-38722188D01*
X99520908Y-38736132D01*
X98790856Y-38736132D01*
X98792092Y-38733868D01*
X98791961Y-38732035D01*
X98787710Y-38725420D01*
X95941428Y-35879138D01*
X95927484Y-35871524D01*
X95927233Y-35871542D01*
X95918486Y-35877458D01*
X95827651Y-35977284D01*
X95823866Y-35981859D01*
X95582907Y-36302788D01*
X95579563Y-36307708D01*
X95369871Y-36649893D01*
X95367004Y-36655109D01*
X95190449Y-37015503D01*
X95188094Y-37020944D01*
X95046230Y-37396377D01*
X95044398Y-37402016D01*
X94938500Y-37789111D01*
X94937201Y-37794924D01*
X94868200Y-38190282D01*
X94867459Y-38196145D01*
X94835969Y-38596261D01*
X94835784Y-38602187D01*
X28289132Y-38602187D01*
X28276351Y-38331150D01*
X28275792Y-38325238D01*
X28219244Y-37927906D01*
X28218135Y-37922091D01*
X28124442Y-37531831D01*
X28122790Y-37526147D01*
X27992784Y-37146432D01*
X27990610Y-37140941D01*
X27825450Y-36775151D01*
X27822760Y-36769870D01*
X27623907Y-36421245D01*
X27620740Y-36416255D01*
X27389963Y-36087893D01*
X27386328Y-36083207D01*
X27212533Y-35879719D01*
X27199620Y-35871289D01*
X27189413Y-35877297D01*
X24344522Y-38722188D01*
X24336908Y-38736132D01*
X23606856Y-38736132D01*
X23608092Y-38733868D01*
X23607961Y-38732035D01*
X23603710Y-38725420D01*
X20757428Y-35879138D01*
X20743484Y-35871524D01*
X20743233Y-35871542D01*
X20734486Y-35877458D01*
X20643651Y-35977284D01*
X20639866Y-35981859D01*
X20398907Y-36302788D01*
X20395563Y-36307708D01*
X20185871Y-36649893D01*
X20183004Y-36655109D01*
X20006449Y-37015503D01*
X20004094Y-37020944D01*
X19862230Y-37396377D01*
X19860398Y-37402016D01*
X19754500Y-37789111D01*
X19753201Y-37794924D01*
X19684200Y-38190282D01*
X19683459Y-38196145D01*
X19651969Y-38596261D01*
X19651784Y-38602187D01*
X16383500Y-38602187D01*
X16383500Y-35508491D01*
X21108965Y-35508491D01*
X21108971Y-35508745D01*
X21114468Y-35517758D01*
X23959688Y-38362978D01*
X23973632Y-38370592D01*
X23975465Y-38370461D01*
X23982080Y-38366210D01*
X26830994Y-35517296D01*
X26835802Y-35508491D01*
X96292965Y-35508491D01*
X96292971Y-35508745D01*
X96298468Y-35517758D01*
X99143688Y-38362978D01*
X99157632Y-38370592D01*
X99159465Y-38370461D01*
X99166080Y-38366210D01*
X102014994Y-35517296D01*
X102022608Y-35503352D01*
X102022515Y-35502045D01*
X102017718Y-35494709D01*
X102017411Y-35494411D01*
X102012969Y-35490495D01*
X101699755Y-35239563D01*
X101694952Y-35236073D01*
X101359517Y-35015733D01*
X101354400Y-35012708D01*
X100999722Y-34824916D01*
X100994364Y-34822394D01*
X100623564Y-34668803D01*
X100617999Y-34666799D01*
X100234399Y-34548789D01*
X100228651Y-34547313D01*
X99835669Y-34465930D01*
X99829788Y-34464999D01*
X99430899Y-34420961D01*
X99424953Y-34420587D01*
X99023687Y-34414284D01*
X99017761Y-34414469D01*
X98617645Y-34445959D01*
X98611782Y-34446700D01*
X98216424Y-34515701D01*
X98210611Y-34517000D01*
X97823516Y-34622898D01*
X97817877Y-34624730D01*
X97442444Y-34766594D01*
X97437003Y-34768949D01*
X97076609Y-34945504D01*
X97071393Y-34948371D01*
X96729208Y-35158063D01*
X96724288Y-35161407D01*
X96403359Y-35402366D01*
X96398784Y-35406151D01*
X96301226Y-35494923D01*
X96292965Y-35508491D01*
X26835802Y-35508491D01*
X26838608Y-35503352D01*
X26838515Y-35502045D01*
X26833718Y-35494709D01*
X26833411Y-35494411D01*
X26828969Y-35490495D01*
X26515755Y-35239563D01*
X26510952Y-35236073D01*
X26175517Y-35015733D01*
X26170400Y-35012708D01*
X25815722Y-34824916D01*
X25810364Y-34822394D01*
X25439564Y-34668803D01*
X25433999Y-34666799D01*
X25050399Y-34548789D01*
X25044651Y-34547313D01*
X24651669Y-34465930D01*
X24645788Y-34464999D01*
X24246899Y-34420961D01*
X24240953Y-34420587D01*
X23839687Y-34414284D01*
X23833761Y-34414469D01*
X23433645Y-34445959D01*
X23427782Y-34446700D01*
X23032424Y-34515701D01*
X23026611Y-34517000D01*
X22639516Y-34622898D01*
X22633877Y-34624730D01*
X22258444Y-34766594D01*
X22253003Y-34768949D01*
X21892609Y-34945504D01*
X21887393Y-34948371D01*
X21545208Y-35158063D01*
X21540288Y-35161407D01*
X21219359Y-35402366D01*
X21214784Y-35406151D01*
X21117226Y-35494923D01*
X21108965Y-35508491D01*
X16383500Y-35508491D01*
X16383500Y-29219000D01*
X36950554Y-29219000D01*
X84969447Y-29219000D01*
X84969447Y-16501000D01*
X36950554Y-16501000D01*
X36950554Y-29219000D01*
X16383500Y-29219000D01*
X16383500Y-26979399D01*
X16403502Y-26911278D01*
X16420405Y-26890304D01*
X18251067Y-25059642D01*
X18313379Y-25025616D01*
X18379097Y-25028904D01*
X18430056Y-25045462D01*
X18479997Y-25061689D01*
X18480001Y-25061690D01*
X18485852Y-25063591D01*
X18491962Y-25064320D01*
X18491964Y-25064320D01*
X18559501Y-25072373D01*
X18683796Y-25087194D01*
X18689931Y-25086722D01*
X18689933Y-25086722D01*
X18876413Y-25072373D01*
X18876418Y-25072372D01*
X18882554Y-25071900D01*
X18888484Y-25070244D01*
X18888486Y-25070244D01*
X18978555Y-25045096D01*
X19074557Y-25018292D01*
X19227299Y-24941137D01*
X19246989Y-24931191D01*
X19246991Y-24931190D01*
X19252490Y-24928412D01*
X19409577Y-24805682D01*
X19539834Y-24654778D01*
X19638299Y-24481448D01*
X19701222Y-24292294D01*
X19711465Y-24211214D01*
X19725765Y-24098023D01*
X19725766Y-24098013D01*
X19726207Y-24094520D01*
X19726605Y-24066000D01*
X19707152Y-23867606D01*
X19705371Y-23861707D01*
X19705370Y-23861702D01*
X19651316Y-23682667D01*
X19649535Y-23676768D01*
X19602742Y-23588762D01*
X19558842Y-23506198D01*
X19558840Y-23506195D01*
X19555948Y-23500756D01*
X19552058Y-23495986D01*
X19552055Y-23495982D01*
X19433850Y-23351049D01*
X19433847Y-23351046D01*
X19429955Y-23346274D01*
X19276357Y-23219206D01*
X19101002Y-23124392D01*
X18910572Y-23065444D01*
X18904447Y-23064800D01*
X18904446Y-23064800D01*
X18718447Y-23045251D01*
X18718445Y-23045251D01*
X18712318Y-23044607D01*
X18589439Y-23055790D01*
X18519933Y-23062115D01*
X18519932Y-23062115D01*
X18513792Y-23062674D01*
X18507878Y-23064415D01*
X18507876Y-23064415D01*
X18377726Y-23102721D01*
X18322557Y-23118958D01*
X18145896Y-23211314D01*
X18141096Y-23215174D01*
X18141095Y-23215174D01*
X18136080Y-23219206D01*
X17990538Y-23336225D01*
X17862401Y-23488933D01*
X17766366Y-23663621D01*
X17706089Y-23853635D01*
X17683869Y-24051739D01*
X17700549Y-24250386D01*
X17712566Y-24292294D01*
X17742651Y-24397211D01*
X17742201Y-24468206D01*
X17710627Y-24521037D01*
X15770521Y-26461143D01*
X15751505Y-26476502D01*
X15750444Y-26477468D01*
X15741696Y-26483116D01*
X15735250Y-26491293D01*
X15720771Y-26509659D01*
X15716794Y-26514134D01*
X15716865Y-26514195D01*
X15713512Y-26518152D01*
X15709829Y-26521835D01*
X15706803Y-26526070D01*
X15706801Y-26526072D01*
X15698547Y-26537623D01*
X15694984Y-26542369D01*
X15663066Y-26582857D01*
X15660015Y-26591544D01*
X15654666Y-26599030D01*
X15651683Y-26609006D01*
X15651682Y-26609007D01*
X15639902Y-26648398D01*
X15638072Y-26654030D01*
X15620984Y-26702689D01*
X15620500Y-26708278D01*
X15620500Y-26710989D01*
X15620385Y-26713656D01*
X15620366Y-26713719D01*
X15620192Y-26713712D01*
X15620145Y-26714458D01*
X15618275Y-26720711D01*
X15618684Y-26731115D01*
X15620403Y-26774865D01*
X15620500Y-26779812D01*
X15620500Y-73628115D01*
X15617914Y-73652414D01*
X15617846Y-73653852D01*
X15615655Y-73664030D01*
X12573000Y-73664030D01*
X12573000Y-16398416D01*
X12593002Y-16330295D01*
X12646658Y-16283802D01*
X12716932Y-16273698D01*
X12781512Y-16303192D01*
X12814505Y-16348072D01*
X12877586Y-16492803D01*
X12879509Y-16496074D01*
X12879511Y-16496078D01*
X13043979Y-16775847D01*
X13043984Y-16775855D01*
X13045902Y-16779117D01*
X13247396Y-17043137D01*
X13250044Y-17045856D01*
X13250049Y-17045861D01*
X13476502Y-17278322D01*
X13479148Y-17281038D01*
X13482092Y-17283409D01*
X13482095Y-17283412D01*
X13553160Y-17340652D01*
X13737803Y-17489374D01*
X14019614Y-17665127D01*
X14320497Y-17805751D01*
X14636096Y-17909209D01*
X14961838Y-17974003D01*
X14965611Y-17974290D01*
X14965618Y-17974291D01*
X15289228Y-17998908D01*
X15289233Y-17998908D01*
X15293005Y-17999195D01*
X15624800Y-17984418D01*
X15952417Y-17929888D01*
X15956051Y-17928822D01*
X15956055Y-17928821D01*
X16098325Y-17887083D01*
X16271109Y-17836393D01*
X16576262Y-17705290D01*
X16863453Y-17538475D01*
X17128525Y-17338367D01*
X17367636Y-17107863D01*
X17418114Y-17045861D01*
X17574932Y-16853239D01*
X17574933Y-16853238D01*
X17577323Y-16850302D01*
X17579345Y-16847098D01*
X17752526Y-16572623D01*
X17752529Y-16572617D01*
X17754549Y-16569416D01*
X17896747Y-16269273D01*
X18001856Y-15954220D01*
X18068355Y-15628822D01*
X18095280Y-15297791D01*
X18095885Y-15240000D01*
X18075899Y-14908478D01*
X18075219Y-14904754D01*
X18016909Y-14585481D01*
X18016908Y-14585477D01*
X18016229Y-14581759D01*
X18007527Y-14553732D01*
X17918863Y-14268189D01*
X17917741Y-14264574D01*
X17908961Y-14244990D01*
X17783415Y-13964987D01*
X17781860Y-13961518D01*
X17610555Y-13676982D01*
X17608228Y-13673998D01*
X17608223Y-13673991D01*
X17408644Y-13418082D01*
X17408642Y-13418079D01*
X17406308Y-13415087D01*
X17172076Y-13179626D01*
X17151215Y-13163180D01*
X16914235Y-12976360D01*
X16911254Y-12974010D01*
X16627619Y-12801218D01*
X16507004Y-12746378D01*
X16328731Y-12665321D01*
X16328723Y-12665318D01*
X16325279Y-12663752D01*
X16013455Y-12565135D01*
X15954537Y-12525523D01*
X15926387Y-12460346D01*
X15937944Y-12390296D01*
X15985537Y-12337614D01*
X16051449Y-12319000D01*
X103049142Y-12319000D01*
X103117263Y-12339002D01*
G37*
%TD.AperFunction*%
%TD*%
M02*
