%TF.GenerationSoftware,KiCad,Pcbnew,(6.0.0)*%
%TF.CreationDate,2022-04-24T16:41:59-07:00*%
%TF.ProjectId,Attic_Fan_Controller,41747469-635f-4466-916e-5f436f6e7472,rev?*%
%TF.SameCoordinates,Original*%
%TF.FileFunction,Soldermask,Top*%
%TF.FilePolarity,Negative*%
%FSLAX46Y46*%
G04 Gerber Fmt 4.6, Leading zero omitted, Abs format (unit mm)*
G04 Created by KiCad (PCBNEW (6.0.0)) date 2022-04-24 16:41:59*
%MOMM*%
%LPD*%
G01*
G04 APERTURE LIST*
G04 Aperture macros list*
%AMFreePoly0*
4,1,9,3.862500,-0.866500,0.737500,-0.866500,0.737500,-0.450000,-0.737500,-0.450000,-0.737500,0.450000,0.737500,0.450000,0.737500,0.866500,3.862500,0.866500,3.862500,-0.866500,3.862500,-0.866500,$1*%
G04 Aperture macros list end*
%ADD10R,2.300000X2.000000*%
%ADD11C,2.300000*%
%ADD12O,1.727200X1.727200*%
%ADD13R,1.727200X1.727200*%
%ADD14C,1.600000*%
%ADD15O,1.600000X1.600000*%
%ADD16R,1.500000X1.000000*%
%ADD17O,1.500000X1.000000*%
%ADD18C,5.000000*%
%ADD19C,2.900000*%
%ADD20C,1.524000*%
%ADD21C,7.620000*%
%ADD22R,1.050000X1.500000*%
%ADD23O,1.050000X1.500000*%
%ADD24R,2.400000X2.400000*%
%ADD25C,2.400000*%
%ADD26O,1.700000X1.700000*%
%ADD27R,1.700000X1.700000*%
%ADD28R,1.200000X1.200000*%
%ADD29C,1.200000*%
%ADD30R,1.300000X0.900000*%
%ADD31FreePoly0,180.000000*%
%ADD32C,2.000000*%
G04 APERTURE END LIST*
D10*
%TO.C,PS1*%
X21759500Y-74462000D03*
D11*
X21759500Y-79462000D03*
X51159500Y-69262000D03*
X51159500Y-84662000D03*
%TD*%
D12*
%TO.C,U2*%
X64516000Y-76263302D03*
X67056000Y-76263302D03*
X64516000Y-78803302D03*
X67056000Y-78803302D03*
X64516000Y-81343302D03*
X67056000Y-81343302D03*
D13*
X64516000Y-83883302D03*
D12*
X67056000Y-83883302D03*
%TD*%
D14*
%TO.C,R1*%
X75231000Y-85344000D03*
D15*
X85391000Y-85344000D03*
%TD*%
D16*
%TO.C,U1*%
X92536538Y-74620350D03*
D17*
X92536538Y-73350350D03*
X92536538Y-72080350D03*
%TD*%
D18*
%TO.C,2.5mm*%
X103759000Y-84455000D03*
D19*
X103759000Y-84455000D03*
%TD*%
D20*
%TO.C,RLY1*%
X103068100Y-52806600D03*
X103068100Y-24231600D03*
X18705187Y-24066000D03*
X18785749Y-49966000D03*
D21*
X99156500Y-38735000D03*
X23972500Y-38735000D03*
%TD*%
D22*
%TO.C,Q1*%
X74295000Y-76454000D03*
D23*
X73025000Y-76454000D03*
X71755000Y-76454000D03*
%TD*%
D24*
%TO.C,J1*%
X99314000Y-76454000D03*
D25*
X99314000Y-72954000D03*
X99314000Y-69454000D03*
%TD*%
D26*
%TO.C,J2*%
X56368000Y-77841000D03*
X58908000Y-77841000D03*
X56368000Y-80381000D03*
X58908000Y-80381000D03*
X56368000Y-82921000D03*
X58908000Y-82921000D03*
D27*
X56368000Y-85461000D03*
D26*
X58908000Y-85461000D03*
%TD*%
D28*
%TO.C,C1*%
X79248000Y-69127401D03*
D29*
X79248000Y-70627401D03*
%TD*%
D30*
%TO.C,U3*%
X83057000Y-77573000D03*
D31*
X82969500Y-76073000D03*
D30*
X83057000Y-74573000D03*
%TD*%
D18*
%TO.C,2.5mm*%
X103759000Y-15240000D03*
D19*
X103759000Y-15240000D03*
%TD*%
%TO.C,2.5mm*%
X15336350Y-15240000D03*
D18*
X15336350Y-15240000D03*
%TD*%
D32*
%TO.C,SW1*%
X55499000Y-74295000D03*
X55499000Y-67945000D03*
X59893200Y-74295000D03*
X59893200Y-67945000D03*
%TD*%
D28*
%TO.C,C2*%
X84988400Y-69102001D03*
D29*
X84988400Y-70602001D03*
%TD*%
D19*
%TO.C,2.5mm*%
X15367000Y-84455000D03*
D18*
X15367000Y-84455000D03*
%TD*%
D14*
%TO.C,R2*%
X75311000Y-82169000D03*
D15*
X85471000Y-82169000D03*
%TD*%
M02*
